solid Motion_Detection_via_LoRa
facet normal 0.0 1.1102230246251563e-16 1.0
  outer loop
    vertex -296.6999999999999 3.40000000000001 27.499999999999996
    vertex -391.29999999999995 4.9000000000000075 27.499999999999996
    vertex -391.29999999999995 3.40000000000001 27.499999999999996
  endloop
endfacet
facet normal 0.0 1.1102230246251563e-16 1.0
  outer loop
    vertex -391.29999999999995 4.9000000000000075 27.499999999999996
    vertex -296.6999999999999 3.40000000000001 27.499999999999996
    vertex -296.6999999999999 4.9000000000000075 27.499999999999996
  endloop
endfacet
facet normal 1.0 0.0 0.0
  outer loop
    vertex -296.6999999999999 4.9000000000000075 1.9999999999999907
    vertex -296.6999999999999 3.40000000000001 27.499999999999996
    vertex -296.6999999999999 3.40000000000001 1.9999999999999907
  endloop
endfacet
facet normal 1.0 0.0 0.0
  outer loop
    vertex -296.6999999999999 3.40000000000001 27.499999999999996
    vertex -296.6999999999999 4.9000000000000075 1.9999999999999907
    vertex -296.6999999999999 4.9000000000000075 27.499999999999996
  endloop
endfacet
facet normal -1.0 0.0 0.0
  outer loop
    vertex -391.29999999999995 4.9000000000000075 27.499999999999996
    vertex -391.29999999999995 3.40000000000001 1.9999999999999907
    vertex -391.29999999999995 3.40000000000001 27.499999999999996
  endloop
endfacet
facet normal -1.0 0.0 0.0
  outer loop
    vertex -391.29999999999995 3.40000000000001 1.9999999999999907
    vertex -391.29999999999995 4.9000000000000075 27.499999999999996
    vertex -391.29999999999995 4.9000000000000075 1.9999999999999907
  endloop
endfacet
facet normal 0.0 -1.1102230246251563e-16 -1.0
  outer loop
    vertex -296.6999999999999 4.9000000000000075 1.9999999999999907
    vertex -391.29999999999995 3.40000000000001 1.9999999999999907
    vertex -391.29999999999995 4.9000000000000075 1.9999999999999907
  endloop
endfacet
facet normal 0.0 -1.1102230246251563e-16 -1.0
  outer loop
    vertex -391.29999999999995 3.40000000000001 1.9999999999999907
    vertex -296.6999999999999 4.9000000000000075 1.9999999999999907
    vertex -296.6999999999999 3.40000000000001 1.9999999999999907
  endloop
endfacet
facet normal 0.0 1.0 0.0
  outer loop
    vertex -359.4999999999999 4.9000000000000075 8.499999999999995
    vertex -337.0719568930232 4.900000000000001 9.527825234791749
    vertex -336.4194368571796 4.900000000000001 9.51579301931364
  endloop
endfacet
facet normal 0.0 1.0 0.0
  outer loop
    vertex -337.0719568930232 4.900000000000001 9.527825234791749
    vertex -359.4999999999999 4.9000000000000075 8.499999999999995
    vertex -337.69912868129506 4.900000000000001 9.708332075056829
  endloop
endfacet
facet normal 0.0 1.0 0.0
  outer loop
    vertex -337.69912868129506 4.900000000000001 9.708332075056829
    vertex -359.4999999999999 4.9000000000000075 8.499999999999995
    vertex -359.4999999999999 4.900000000000008 16.499999999999996
  endloop
endfacet
facet normal 0.0 1.0 0.0
  outer loop
    vertex -337.69912868129506 4.900000000000001 9.708332075056829
    vertex -359.4999999999999 4.900000000000008 16.499999999999996
    vertex -338.2582115010749 4.900000000000001 10.045012297246478
  endloop
endfacet
facet normal 0.0 1.0 0.0
  outer loop
    vertex -338.2582115010749 4.900000000000001 10.045012297246478
    vertex -359.4999999999999 4.900000000000008 16.499999999999996
    vertex -338.71110478212273 4.900000000000001 10.514921700608843
  endloop
endfacet
facet normal 0.0 1.0 0.0
  outer loop
    vertex -338.71110478212273 4.900000000000001 10.514921700608843
    vertex -359.4999999999999 4.900000000000008 16.499999999999996
    vertex -339.0269445957767 4.900000000000001 11.086036735866784
  endloop
endfacet
facet normal 0.0 1.0 0.0
  outer loop
    vertex -339.0269445957767 4.900000000000001 11.086036735866784
    vertex -359.4999999999999 4.900000000000008 16.499999999999996
    vertex -339.1842069806862 4.900000000000001 11.719436857179698
  endloop
endfacet
facet normal 0.0 1.0 0.0
  outer loop
    vertex -339.1842069806862 4.900000000000001 11.719436857179698
    vertex -359.4999999999999 4.900000000000008 16.499999999999996
    vertex -339.1721747652081 4.900000000000001 12.371956893023297
  endloop
endfacet
facet normal 0.0 1.0 0.0
  outer loop
    vertex -339.1721747652081 4.900000000000001 12.371956893023297
    vertex -359.4999999999999 4.900000000000008 16.499999999999996
    vertex -338.99166792494304 4.900000000000001 12.999128681295186
  endloop
endfacet
facet normal 0.0 1.0 0.0
  outer loop
    vertex -338.99166792494304 4.900000000000001 12.999128681295186
    vertex -359.4999999999999 4.900000000000008 16.499999999999996
    vertex -338.6549877027534 4.900000000000001 13.558211501075027
  endloop
endfacet
facet normal 0.0 1.0 0.0
  outer loop
    vertex -338.6549877027534 4.900000000000001 13.558211501075027
    vertex -359.4999999999999 4.900000000000008 16.499999999999996
    vertex -338.185078299391 4.900000000000001 14.011104782122855
  endloop
endfacet
facet normal 0.0 1.0 0.0
  outer loop
    vertex -338.185078299391 4.900000000000001 14.011104782122855
    vertex -359.4999999999999 4.900000000000008 16.499999999999996
    vertex -337.6139632641331 4.900000000000001 14.32694459577681
  endloop
endfacet
facet normal 0.0 1.0 0.0
  outer loop
    vertex -337.6139632641331 4.900000000000001 14.32694459577681
    vertex -359.4999999999999 4.900000000000008 16.499999999999996
    vertex -336.9805631428202 4.900000000000001 14.484206980686334
  endloop
endfacet
facet normal 0.0 1.0 0.0
  outer loop
    vertex -391.29999999999995 4.9000000000000075 1.9999999999999907
    vertex -374.4999999999999 4.90000000000001 8.499999999999995
    vertex -296.6999999999999 4.9000000000000075 1.9999999999999907
  endloop
endfacet
facet normal 0.0 1.0 0.0
  outer loop
    vertex -374.4999999999999 4.90000000000001 8.499999999999995
    vertex -391.29999999999995 4.9000000000000075 1.9999999999999907
    vertex -391.29999999999995 4.9000000000000075 27.499999999999996
  endloop
endfacet
facet normal 0.0 1.0 0.0
  outer loop
    vertex -374.4999999999999 4.90000000000001 8.499999999999995
    vertex -391.29999999999995 4.9000000000000075 27.499999999999996
    vertex -374.4999999999999 4.90000000000001 16.499999999999996
  endloop
endfacet
facet normal 0.0 1.0 0.0
  outer loop
    vertex -374.4999999999999 4.90000000000001 16.499999999999996
    vertex -391.29999999999995 4.9000000000000075 27.499999999999996
    vertex -359.4999999999999 4.900000000000008 16.499999999999996
  endloop
endfacet
facet normal 0.0 1.0 0.0
  outer loop
    vertex -296.6999999999999 4.9000000000000075 1.9999999999999907
    vertex -335.7860367358667 4.900000000000001 9.673055404223168
    vertex -296.6999999999999 4.9000000000000075 27.499999999999996
  endloop
endfacet
facet normal 0.0 1.0 0.0
  outer loop
    vertex -335.7860367358667 4.900000000000001 9.673055404223168
    vertex -296.6999999999999 4.9000000000000075 1.9999999999999907
    vertex -336.4194368571796 4.900000000000001 9.51579301931364
  endloop
endfacet
facet normal 0.0 1.0 0.0
  outer loop
    vertex -336.4194368571796 4.900000000000001 9.51579301931364
    vertex -296.6999999999999 4.9000000000000075 1.9999999999999907
    vertex -359.4999999999999 4.9000000000000075 8.499999999999995
  endloop
endfacet
facet normal 0.0 1.0 0.0
  outer loop
    vertex -359.4999999999999 4.9000000000000075 8.499999999999995
    vertex -296.6999999999999 4.9000000000000075 1.9999999999999907
    vertex -374.4999999999999 4.90000000000001 8.499999999999995
  endloop
endfacet
facet normal 0.0 1.0 0.0
  outer loop
    vertex -296.6999999999999 4.9000000000000075 27.499999999999996
    vertex -335.7860367358667 4.900000000000001 9.673055404223168
    vertex -335.2149217006087 4.900000000000001 9.98889521787712
  endloop
endfacet
facet normal 0.0 1.0 0.0
  outer loop
    vertex -296.6999999999999 4.9000000000000075 27.499999999999996
    vertex -335.2149217006087 4.900000000000001 9.98889521787712
    vertex -334.7450122972464 4.900000000000001 10.441788498924954
  endloop
endfacet
facet normal 0.0 1.0 0.0
  outer loop
    vertex -296.6999999999999 4.9000000000000075 27.499999999999996
    vertex -334.7450122972464 4.900000000000001 10.441788498924954
    vertex -334.4083320750567 4.900000000000001 11.00087131870479
  endloop
endfacet
facet normal 0.0 1.0 0.0
  outer loop
    vertex -296.6999999999999 4.9000000000000075 27.499999999999996
    vertex -334.4083320750567 4.900000000000001 11.00087131870479
    vertex -334.2278252347916 4.900000000000001 11.62804310697668
  endloop
endfacet
facet normal 0.0 1.0 0.0
  outer loop
    vertex -296.6999999999999 4.9000000000000075 27.499999999999996
    vertex -334.2278252347916 4.900000000000001 11.62804310697668
    vertex -334.2157930193135 4.900000000000001 12.280563142820279
  endloop
endfacet
facet normal 0.0 1.0 0.0
  outer loop
    vertex -296.6999999999999 4.9000000000000075 27.499999999999996
    vertex -334.2157930193135 4.900000000000001 12.280563142820279
    vertex -334.37305540422307 4.900000000000001 12.91396326413319
  endloop
endfacet
facet normal 0.0 1.0 0.0
  outer loop
    vertex -296.6999999999999 4.9000000000000075 27.499999999999996
    vertex -334.37305540422307 4.900000000000001 12.91396326413319
    vertex -334.688895217877 4.900000000000001 13.485078299391137
  endloop
endfacet
facet normal 0.0 1.0 0.0
  outer loop
    vertex -296.6999999999999 4.9000000000000075 27.499999999999996
    vertex -334.688895217877 4.900000000000001 13.485078299391137
    vertex -335.1417884989248 4.900000000000001 13.954987702753499
  endloop
endfacet
facet normal 0.0 1.0 0.0
  outer loop
    vertex -296.6999999999999 4.9000000000000075 27.499999999999996
    vertex -335.1417884989248 4.900000000000001 13.954987702753499
    vertex -335.7008713187047 4.900000000000001 14.291667924943148
  endloop
endfacet
facet normal 0.0 1.0 0.0
  outer loop
    vertex -296.6999999999999 4.9000000000000075 27.499999999999996
    vertex -335.7008713187047 4.900000000000001 14.291667924943148
    vertex -336.32804310697657 4.900000000000001 14.472174765208228
  endloop
endfacet
facet normal 0.0 1.0 0.0
  outer loop
    vertex -296.6999999999999 4.9000000000000075 27.499999999999996
    vertex -336.32804310697657 4.900000000000001 14.472174765208228
    vertex -336.9805631428202 4.900000000000001 14.484206980686334
  endloop
endfacet
facet normal 0.0 1.0 0.0
  outer loop
    vertex -296.6999999999999 4.9000000000000075 27.499999999999996
    vertex -336.9805631428202 4.900000000000001 14.484206980686334
    vertex -359.4999999999999 4.900000000000008 16.499999999999996
  endloop
endfacet
facet normal 0.0 1.0 0.0
  outer loop
    vertex -296.6999999999999 4.9000000000000075 27.499999999999996
    vertex -359.4999999999999 4.900000000000008 16.499999999999996
    vertex -391.29999999999995 4.9000000000000075 27.499999999999996
  endloop
endfacet
facet normal 0.0 -1.0 0.0
  outer loop
    vertex -296.6999999999999 3.40000000000001 1.9999999999999907
    vertex -336.4194368571796 3.400000000000009 9.51579301931364
    vertex -391.29999999999995 3.40000000000001 1.9999999999999907
  endloop
endfacet
facet normal 0.0 -1.0 0.0
  outer loop
    vertex -336.4194368571796 3.400000000000009 9.51579301931364
    vertex -296.6999999999999 3.40000000000001 1.9999999999999907
    vertex -335.7860367358667 3.400000000000009 9.673055404223168
  endloop
endfacet
facet normal 0.0 -1.0 0.0
  outer loop
    vertex -335.7860367358667 3.400000000000009 9.673055404223168
    vertex -296.6999999999999 3.40000000000001 1.9999999999999907
    vertex -296.6999999999999 3.40000000000001 27.499999999999996
  endloop
endfacet
facet normal 0.0 -1.0 0.0
  outer loop
    vertex -391.29999999999995 3.40000000000001 1.9999999999999907
    vertex -336.4194368571796 3.400000000000009 9.51579301931364
    vertex -359.4999999999999 3.400000000000007 8.499999999999995
  endloop
endfacet
facet normal 0.0 -1.0 0.0
  outer loop
    vertex -335.7860367358667 3.400000000000009 9.673055404223168
    vertex -296.6999999999999 3.40000000000001 27.499999999999996
    vertex -335.2149217006087 3.400000000000009 9.98889521787712
  endloop
endfacet
facet normal 0.0 -1.0 0.0
  outer loop
    vertex -335.2149217006087 3.400000000000009 9.98889521787712
    vertex -296.6999999999999 3.40000000000001 27.499999999999996
    vertex -334.7450122972464 3.400000000000009 10.441788498924954
  endloop
endfacet
facet normal 0.0 -1.0 0.0
  outer loop
    vertex -334.7450122972464 3.400000000000009 10.441788498924954
    vertex -296.6999999999999 3.40000000000001 27.499999999999996
    vertex -334.4083320750567 3.400000000000009 11.00087131870479
  endloop
endfacet
facet normal 0.0 -1.0 0.0
  outer loop
    vertex -334.4083320750567 3.400000000000009 11.00087131870479
    vertex -296.6999999999999 3.40000000000001 27.499999999999996
    vertex -334.2278252347916 3.400000000000009 11.62804310697668
  endloop
endfacet
facet normal 0.0 -1.0 0.0
  outer loop
    vertex -334.2278252347916 3.400000000000009 11.62804310697668
    vertex -296.6999999999999 3.40000000000001 27.499999999999996
    vertex -334.2157930193135 3.400000000000009 12.280563142820279
  endloop
endfacet
facet normal 0.0 -1.0 0.0
  outer loop
    vertex -334.2157930193135 3.400000000000009 12.280563142820279
    vertex -296.6999999999999 3.40000000000001 27.499999999999996
    vertex -334.37305540422307 3.400000000000009 12.91396326413319
  endloop
endfacet
facet normal 0.0 -1.0 0.0
  outer loop
    vertex -334.37305540422307 3.400000000000009 12.91396326413319
    vertex -296.6999999999999 3.40000000000001 27.499999999999996
    vertex -334.688895217877 3.400000000000009 13.485078299391137
  endloop
endfacet
facet normal 0.0 -1.0 0.0
  outer loop
    vertex -334.688895217877 3.400000000000009 13.485078299391137
    vertex -296.6999999999999 3.40000000000001 27.499999999999996
    vertex -335.1417884989248 3.400000000000009 13.954987702753499
  endloop
endfacet
facet normal 0.0 -1.0 0.0
  outer loop
    vertex -335.1417884989248 3.400000000000009 13.954987702753499
    vertex -296.6999999999999 3.40000000000001 27.499999999999996
    vertex -335.7008713187047 3.400000000000009 14.291667924943148
  endloop
endfacet
facet normal 0.0 -1.0 0.0
  outer loop
    vertex -335.7008713187047 3.400000000000009 14.291667924943148
    vertex -296.6999999999999 3.40000000000001 27.499999999999996
    vertex -336.32804310697657 3.400000000000009 14.472174765208228
  endloop
endfacet
facet normal 0.0 -1.0 0.0
  outer loop
    vertex -336.32804310697657 3.400000000000009 14.472174765208228
    vertex -296.6999999999999 3.40000000000001 27.499999999999996
    vertex -336.9805631428202 3.400000000000009 14.484206980686334
  endloop
endfacet
facet normal 0.0 -1.0 0.0
  outer loop
    vertex -336.9805631428202 3.400000000000009 14.484206980686334
    vertex -296.6999999999999 3.40000000000001 27.499999999999996
    vertex -359.4999999999999 3.400000000000009 16.499999999999996
  endloop
endfacet
facet normal 0.0 -1.0 0.0
  outer loop
    vertex -359.4999999999999 3.400000000000009 16.499999999999996
    vertex -296.6999999999999 3.40000000000001 27.499999999999996
    vertex -374.4999999999999 3.40000000000001 16.499999999999996
  endloop
endfacet
facet normal 0.0 -1.0 0.0
  outer loop
    vertex -391.29999999999995 3.40000000000001 1.9999999999999907
    vertex -374.4999999999999 3.40000000000001 8.499999999999995
    vertex -391.29999999999995 3.40000000000001 27.499999999999996
  endloop
endfacet
facet normal 0.0 -1.0 0.0
  outer loop
    vertex -374.4999999999999 3.40000000000001 8.499999999999995
    vertex -391.29999999999995 3.40000000000001 1.9999999999999907
    vertex -359.4999999999999 3.400000000000007 8.499999999999995
  endloop
endfacet
facet normal 0.0 -1.0 0.0
  outer loop
    vertex -391.29999999999995 3.40000000000001 27.499999999999996
    vertex -374.4999999999999 3.40000000000001 8.499999999999995
    vertex -374.4999999999999 3.40000000000001 16.499999999999996
  endloop
endfacet
facet normal 0.0 -1.0 0.0
  outer loop
    vertex -391.29999999999995 3.40000000000001 27.499999999999996
    vertex -374.4999999999999 3.40000000000001 16.499999999999996
    vertex -296.6999999999999 3.40000000000001 27.499999999999996
  endloop
endfacet
facet normal 0.0 -1.0 0.0
  outer loop
    vertex -359.4999999999999 3.400000000000007 8.499999999999995
    vertex -337.69912868129506 3.400000000000009 9.708332075056829
    vertex -359.4999999999999 3.400000000000009 16.499999999999996
  endloop
endfacet
facet normal 0.0 -1.0 0.0
  outer loop
    vertex -337.69912868129506 3.400000000000009 9.708332075056829
    vertex -359.4999999999999 3.400000000000007 8.499999999999995
    vertex -337.0719568930232 3.400000000000009 9.527825234791749
  endloop
endfacet
facet normal 0.0 -1.0 0.0
  outer loop
    vertex -337.0719568930232 3.400000000000009 9.527825234791749
    vertex -359.4999999999999 3.400000000000007 8.499999999999995
    vertex -336.4194368571796 3.400000000000009 9.51579301931364
  endloop
endfacet
facet normal 0.0 -1.0 0.0
  outer loop
    vertex -359.4999999999999 3.400000000000009 16.499999999999996
    vertex -337.69912868129506 3.400000000000009 9.708332075056829
    vertex -338.2582115010749 3.400000000000009 10.045012297246478
  endloop
endfacet
facet normal 0.0 -1.0 0.0
  outer loop
    vertex -359.4999999999999 3.400000000000009 16.499999999999996
    vertex -338.2582115010749 3.400000000000009 10.045012297246478
    vertex -338.71110478212273 3.400000000000009 10.514921700608843
  endloop
endfacet
facet normal 0.0 -1.0 0.0
  outer loop
    vertex -359.4999999999999 3.400000000000009 16.499999999999996
    vertex -338.71110478212273 3.400000000000009 10.514921700608843
    vertex -339.0269445957767 3.400000000000009 11.086036735866784
  endloop
endfacet
facet normal 0.0 -1.0 0.0
  outer loop
    vertex -359.4999999999999 3.400000000000009 16.499999999999996
    vertex -339.0269445957767 3.400000000000009 11.086036735866784
    vertex -339.1842069806862 3.400000000000009 11.719436857179698
  endloop
endfacet
facet normal 0.0 -1.0 0.0
  outer loop
    vertex -359.4999999999999 3.400000000000009 16.499999999999996
    vertex -339.1842069806862 3.400000000000009 11.719436857179698
    vertex -339.1721747652081 3.400000000000009 12.371956893023297
  endloop
endfacet
facet normal 0.0 -1.0 0.0
  outer loop
    vertex -359.4999999999999 3.400000000000009 16.499999999999996
    vertex -339.1721747652081 3.400000000000009 12.371956893023297
    vertex -338.99166792494304 3.400000000000009 12.999128681295186
  endloop
endfacet
facet normal 0.0 -1.0 0.0
  outer loop
    vertex -359.4999999999999 3.400000000000009 16.499999999999996
    vertex -338.99166792494304 3.400000000000009 12.999128681295186
    vertex -338.6549877027534 3.400000000000009 13.558211501075027
  endloop
endfacet
facet normal 0.0 -1.0 0.0
  outer loop
    vertex -359.4999999999999 3.400000000000009 16.499999999999996
    vertex -338.6549877027534 3.400000000000009 13.558211501075027
    vertex -338.185078299391 3.400000000000009 14.011104782122855
  endloop
endfacet
facet normal 0.0 -1.0 0.0
  outer loop
    vertex -359.4999999999999 3.400000000000009 16.499999999999996
    vertex -338.185078299391 3.400000000000009 14.011104782122855
    vertex -337.6139632641331 3.400000000000009 14.32694459577681
  endloop
endfacet
facet normal 0.0 -1.0 0.0
  outer loop
    vertex -359.4999999999999 3.400000000000009 16.499999999999996
    vertex -337.6139632641331 3.400000000000009 14.32694459577681
    vertex -336.9805631428202 3.400000000000009 14.484206980686334
  endloop
endfacet
facet normal 2.0286252455850916e-32 1.0071308866242491e-16 1.0
  outer loop
    vertex -359.4999999999999 3.400000000000007 8.499999999999995
    vertex -374.4999999999999 4.90000000000001 8.499999999999995
    vertex -374.4999999999999 3.40000000000001 8.499999999999995
  endloop
endfacet
facet normal 2.0286252455850916e-32 1.0071308866242491e-16 1.0
  outer loop
    vertex -374.4999999999999 4.90000000000001 8.499999999999995
    vertex -359.4999999999999 3.400000000000007 8.499999999999995
    vertex -359.4999999999999 4.9000000000000075 8.499999999999995
  endloop
endfacet
facet normal -1.0 1.5106963299363733e-16 -3.0429378683776375e-32
  outer loop
    vertex -359.4999999999999 3.400000000000009 16.499999999999996
    vertex -359.4999999999999 4.9000000000000075 8.499999999999995
    vertex -359.4999999999999 3.400000000000007 8.499999999999995
  endloop
endfacet
facet normal -1.0 1.5106963299363733e-16 -3.0429378683776375e-32
  outer loop
    vertex -359.4999999999999 4.9000000000000075 8.499999999999995
    vertex -359.4999999999999 3.400000000000009 16.499999999999996
    vertex -359.4999999999999 4.900000000000008 16.499999999999996
  endloop
endfacet
facet normal -1.0143126227925458e-32 -1.0071308866242491e-16 -1.0
  outer loop
    vertex -359.4999999999999 4.900000000000008 16.499999999999996
    vertex -374.4999999999999 3.40000000000001 16.499999999999996
    vertex -374.4999999999999 4.90000000000001 16.499999999999996
  endloop
endfacet
facet normal -1.0143126227925458e-32 -1.0071308866242491e-16 -1.0
  outer loop
    vertex -374.4999999999999 3.40000000000001 16.499999999999996
    vertex -359.4999999999999 4.900000000000008 16.499999999999996
    vertex -359.4999999999999 3.400000000000009 16.499999999999996
  endloop
endfacet
facet normal 1.0 -1.5106963299363733e-16 0.0
  outer loop
    vertex -374.4999999999999 4.90000000000001 8.499999999999995
    vertex -374.4999999999999 3.40000000000001 16.499999999999996
    vertex -374.4999999999999 3.40000000000001 8.499999999999995
  endloop
endfacet
facet normal 1.0 -1.5106963299363733e-16 0.0
  outer loop
    vertex -374.4999999999999 3.40000000000001 16.499999999999996
    vertex -374.4999999999999 4.90000000000001 8.499999999999995
    vertex -374.4999999999999 4.90000000000001 16.499999999999996
  endloop
endfacet
facet normal -0.960989940186951 0.0 0.2765833235382788
  outer loop
    vertex -334.2278252347916 4.900000000000001 11.62804310697668
    vertex -334.4083320750567 3.400000000000009 11.00087131870479
    vertex -334.2278252347916 3.400000000000009 11.62804310697668
  endloop
endfacet
facet normal -0.960989940186951 0.0 0.2765833235382788
  outer loop
    vertex -334.4083320750567 3.400000000000009 11.00087131870479
    vertex -334.2278252347916 4.900000000000001 11.62804310697668
    vertex -334.4083320750567 4.900000000000001 11.00087131870479
  endloop
endfacet
facet normal -0.9998300337200221 2.4283506420434043e-19 0.018436476654168296
  outer loop
    vertex -334.2157930193135 4.900000000000001 12.280563142820279
    vertex -334.2278252347916 3.400000000000009 11.62804310697668
    vertex -334.2157930193135 3.400000000000009 12.280563142820279
  endloop
endfacet
facet normal -0.9998300337200221 2.4283506420434043e-19 0.018436476654168296
  outer loop
    vertex -334.2278252347916 3.400000000000009 11.62804310697668
    vertex -334.2157930193135 4.900000000000001 12.280563142820279
    vertex -334.2278252347916 4.900000000000001 11.62804310697668
  endloop
endfacet
facet normal -0.9705333627523203 3.745608458503107e-18 -0.24096678564622417
  outer loop
    vertex -334.37305540422307 4.900000000000001 12.91396326413319
    vertex -334.2157930193135 3.400000000000009 12.280563142820279
    vertex -334.37305540422307 3.400000000000009 12.91396326413319
  endloop
endfacet
facet normal -0.9705333627523203 3.745608458503107e-18 -0.24096678564622417
  outer loop
    vertex -334.2157930193135 3.400000000000009 12.280563142820279
    vertex -334.37305540422307 4.900000000000001 12.91396326413319
    vertex -334.2157930193135 4.900000000000001 12.280563142820279
  endloop
endfacet
facet normal -0.8750964469952732 0.0 -0.483948559721226
  outer loop
    vertex -334.688895217877 4.900000000000001 13.485078299391137
    vertex -334.37305540422307 3.400000000000009 12.91396326413319
    vertex -334.688895217877 3.400000000000009 13.485078299391137
  endloop
endfacet
facet normal -0.8750964469952732 0.0 -0.483948559721226
  outer loop
    vertex -334.37305540422307 3.400000000000009 12.91396326413319
    vertex -334.688895217877 4.900000000000001 13.485078299391137
    vertex -334.37305540422307 4.900000000000001 12.91396326413319
  endloop
endfacet
facet normal -0.7200231545407407 0.0 -0.6939500392140638
  outer loop
    vertex -335.1417884989248 4.900000000000001 13.954987702753499
    vertex -334.688895217877 3.400000000000009 13.485078299391137
    vertex -335.1417884989248 3.400000000000009 13.954987702753499
  endloop
endfacet
facet normal -0.7200231545407407 0.0 -0.6939500392140638
  outer loop
    vertex -334.688895217877 3.400000000000009 13.485078299391137
    vertex -335.1417884989248 4.900000000000001 13.954987702753499
    vertex -334.688895217877 4.900000000000001 13.485078299391137
  endloop
endfacet
facet normal -0.5158814739987992 0.0 -0.8566599703411069
  outer loop
    vertex -335.1417884989248 4.900000000000001 13.954987702753499
    vertex -335.7008713187047 3.400000000000009 14.291667924943148
    vertex -335.7008713187047 4.900000000000001 14.291667924943148
  endloop
endfacet
facet normal -0.5158814739987992 0.0 -0.8566599703411069
  outer loop
    vertex -335.7008713187047 3.400000000000009 14.291667924943148
    vertex -335.1417884989248 4.900000000000001 13.954987702753499
    vertex -335.1417884989248 3.400000000000009 13.954987702753499
  endloop
endfacet
facet normal -0.2765833235382617 -1.955065722257073e-30 -0.960989940186956
  outer loop
    vertex -335.7008713187047 4.900000000000001 14.291667924943148
    vertex -336.32804310697657 3.400000000000009 14.472174765208228
    vertex -336.32804310697657 4.900000000000001 14.472174765208228
  endloop
endfacet
facet normal -0.2765833235382617 -1.955065722257073e-30 -0.960989940186956
  outer loop
    vertex -336.32804310697657 3.400000000000009 14.472174765208228
    vertex -335.7008713187047 4.900000000000001 14.291667924943148
    vertex -335.7008713187047 3.400000000000009 14.291667924943148
  endloop
endfacet
facet normal -0.018436476654159654 0.0 -0.9998300337200221
  outer loop
    vertex -336.32804310697657 4.900000000000001 14.472174765208228
    vertex -336.9805631428202 3.400000000000009 14.484206980686334
    vertex -336.9805631428202 4.900000000000001 14.484206980686334
  endloop
endfacet
facet normal -0.018436476654159654 0.0 -0.9998300337200221
  outer loop
    vertex -336.9805631428202 3.400000000000009 14.484206980686334
    vertex -336.32804310697657 4.900000000000001 14.472174765208228
    vertex -336.32804310697657 3.400000000000009 14.472174765208228
  endloop
endfacet
facet normal 0.24096678564620333 0.0 -0.9705333627523253
  outer loop
    vertex -336.9805631428202 4.900000000000001 14.484206980686334
    vertex -337.6139632641331 3.400000000000009 14.32694459577681
    vertex -337.6139632641331 4.900000000000001 14.32694459577681
  endloop
endfacet
facet normal 0.24096678564620333 0.0 -0.9705333627523253
  outer loop
    vertex -337.6139632641331 3.400000000000009 14.32694459577681
    vertex -336.9805631428202 4.900000000000001 14.484206980686334
    vertex -336.9805631428202 3.400000000000009 14.484206980686334
  endloop
endfacet
facet normal 0.48394855972123624 -7.522538070603618e-18 -0.8750964469952675
  outer loop
    vertex -337.6139632641331 4.900000000000001 14.32694459577681
    vertex -338.185078299391 3.400000000000009 14.011104782122855
    vertex -338.185078299391 4.900000000000001 14.011104782122855
  endloop
endfacet
facet normal 0.48394855972123624 -7.522538070603618e-18 -0.8750964469952675
  outer loop
    vertex -338.185078299391 3.400000000000009 14.011104782122855
    vertex -337.6139632641331 4.900000000000001 14.32694459577681
    vertex -337.6139632641331 3.400000000000009 14.32694459577681
  endloop
endfacet
facet normal 0.6939500392140635 9.810554861155129e-30 -0.720023154540741
  outer loop
    vertex -338.185078299391 4.900000000000001 14.011104782122855
    vertex -338.6549877027534 3.400000000000009 13.558211501075027
    vertex -338.6549877027534 4.900000000000001 13.558211501075027
  endloop
endfacet
facet normal 0.6939500392140635 9.810554861155129e-30 -0.720023154540741
  outer loop
    vertex -338.6549877027534 3.400000000000009 13.558211501075027
    vertex -338.185078299391 4.900000000000001 14.011104782122855
    vertex -338.185078299391 3.400000000000009 14.011104782122855
  endloop
endfacet
facet normal 0.8566599703411116 0.0 -0.5158814739987917
  outer loop
    vertex -338.99166792494304 4.900000000000001 12.999128681295186
    vertex -338.6549877027534 3.400000000000009 13.558211501075027
    vertex -338.99166792494304 3.400000000000009 12.999128681295186
  endloop
endfacet
facet normal 0.8566599703411116 0.0 -0.5158814739987917
  outer loop
    vertex -338.6549877027534 3.400000000000009 13.558211501075027
    vertex -338.99166792494304 4.900000000000001 12.999128681295186
    vertex -338.6549877027534 4.900000000000001 13.558211501075027
  endloop
endfacet
facet normal 0.9609899401869513 1.2219160764107433e-31 -0.27658332353827814
  outer loop
    vertex -339.1721747652081 4.900000000000001 12.371956893023297
    vertex -338.99166792494304 3.400000000000009 12.999128681295186
    vertex -339.1721747652081 3.400000000000009 12.371956893023297
  endloop
endfacet
facet normal 0.9609899401869513 1.2219160764107433e-31 -0.27658332353827814
  outer loop
    vertex -338.99166792494304 3.400000000000009 12.999128681295186
    vertex -339.1721747652081 4.900000000000001 12.371956893023297
    vertex -338.99166792494304 4.900000000000001 12.999128681295186
  endloop
endfacet
facet normal 0.9998300337200221 2.4283506420434043e-19 -0.018436476654168296
  outer loop
    vertex -339.1842069806862 4.900000000000001 11.719436857179698
    vertex -339.1721747652081 3.400000000000009 12.371956893023297
    vertex -339.1842069806862 3.400000000000009 11.719436857179698
  endloop
endfacet
facet normal 0.9998300337200221 2.4283506420434043e-19 -0.018436476654168296
  outer loop
    vertex -339.1721747652081 3.400000000000009 12.371956893023297
    vertex -339.1842069806862 4.900000000000001 11.719436857179698
    vertex -339.1721747652081 4.900000000000001 12.371956893023297
  endloop
endfacet
facet normal 0.9705333627523203 -6.860343152834602e-30 0.2409667856462237
  outer loop
    vertex -339.0269445957767 4.900000000000001 11.086036735866784
    vertex -339.1842069806862 3.400000000000009 11.719436857179698
    vertex -339.0269445957767 3.400000000000009 11.086036735866784
  endloop
endfacet
facet normal 0.9705333627523203 -6.860343152834602e-30 0.2409667856462237
  outer loop
    vertex -339.1842069806862 3.400000000000009 11.719436857179698
    vertex -339.0269445957767 4.900000000000001 11.086036735866784
    vertex -339.1842069806862 4.900000000000001 11.719436857179698
  endloop
endfacet
facet normal 0.8750964469952711 0.0 0.4839485597212296
  outer loop
    vertex -338.71110478212273 4.900000000000001 10.514921700608843
    vertex -339.0269445957767 3.400000000000009 11.086036735866784
    vertex -338.71110478212273 3.400000000000009 10.514921700608843
  endloop
endfacet
facet normal 0.8750964469952711 0.0 0.4839485597212296
  outer loop
    vertex -339.0269445957767 3.400000000000009 11.086036735866784
    vertex -338.71110478212273 4.900000000000001 10.514921700608843
    vertex -339.0269445957767 4.900000000000001 11.086036735866784
  endloop
endfacet
facet normal 0.720023154540744 2.1978921038571412e-17 0.6939500392140604
  outer loop
    vertex -338.2582115010749 4.900000000000001 10.045012297246478
    vertex -338.71110478212273 3.400000000000009 10.514921700608843
    vertex -338.2582115010749 3.400000000000009 10.045012297246478
  endloop
endfacet
facet normal 0.720023154540744 2.1978921038571412e-17 0.6939500392140604
  outer loop
    vertex -338.71110478212273 3.400000000000009 10.514921700608843
    vertex -338.2582115010749 4.900000000000001 10.045012297246478
    vertex -338.71110478212273 4.900000000000001 10.514921700608843
  endloop
endfacet
facet normal 0.5158814739987976 -3.784633781915205e-31 0.8566599703411079
  outer loop
    vertex -337.69912868129506 3.400000000000009 9.708332075056829
    vertex -338.2582115010749 4.900000000000001 10.045012297246478
    vertex -338.2582115010749 3.400000000000009 10.045012297246478
  endloop
endfacet
facet normal 0.5158814739987976 -3.784633781915205e-31 0.8566599703411079
  outer loop
    vertex -338.2582115010749 4.900000000000001 10.045012297246478
    vertex -337.69912868129506 3.400000000000009 9.708332075056829
    vertex -337.69912868129506 4.900000000000001 9.708332075056829
  endloop
endfacet
facet normal 0.27658332353826365 -1.5305104590685863e-30 0.9609899401869554
  outer loop
    vertex -337.0719568930232 3.400000000000009 9.527825234791749
    vertex -337.69912868129506 4.900000000000001 9.708332075056829
    vertex -337.69912868129506 3.400000000000009 9.708332075056829
  endloop
endfacet
facet normal 0.27658332353826365 -1.5305104590685863e-30 0.9609899401869554
  outer loop
    vertex -337.69912868129506 4.900000000000001 9.708332075056829
    vertex -337.0719568930232 3.400000000000009 9.527825234791749
    vertex -337.0719568930232 4.900000000000001 9.527825234791749
  endloop
endfacet
facet normal 0.018436476654159654 0.0 0.9998300337200221
  outer loop
    vertex -336.4194368571796 3.400000000000009 9.51579301931364
    vertex -337.0719568930232 4.900000000000001 9.527825234791749
    vertex -337.0719568930232 3.400000000000009 9.527825234791749
  endloop
endfacet
facet normal 0.018436476654159654 0.0 0.9998300337200221
  outer loop
    vertex -337.0719568930232 4.900000000000001 9.527825234791749
    vertex -336.4194368571796 3.400000000000009 9.51579301931364
    vertex -336.4194368571796 4.900000000000001 9.51579301931364
  endloop
endfacet
facet normal -0.24096678564620744 8.575428941043291e-31 0.9705333627523245
  outer loop
    vertex -335.7860367358667 3.400000000000009 9.673055404223168
    vertex -336.4194368571796 4.900000000000001 9.51579301931364
    vertex -336.4194368571796 3.400000000000009 9.51579301931364
  endloop
endfacet
facet normal -0.24096678564620744 8.575428941043291e-31 0.9705333627523245
  outer loop
    vertex -336.4194368571796 4.900000000000001 9.51579301931364
    vertex -335.7860367358667 3.400000000000009 9.673055404223168
    vertex -335.7860367358667 4.900000000000001 9.673055404223168
  endloop
endfacet
facet normal -0.4839485597212329 -7.522538070603565e-18 0.8750964469952693
  outer loop
    vertex -335.2149217006087 3.400000000000009 9.98889521787712
    vertex -335.7860367358667 4.900000000000001 9.673055404223168
    vertex -335.7860367358667 3.400000000000009 9.673055404223168
  endloop
endfacet
facet normal -0.4839485597212329 -7.522538070603565e-18 0.8750964469952693
  outer loop
    vertex -335.7860367358667 4.900000000000001 9.673055404223168
    vertex -335.2149217006087 3.400000000000009 9.98889521787712
    vertex -335.2149217006087 4.900000000000001 9.98889521787712
  endloop
endfacet
facet normal -0.6939500392140668 -1.1192101893786137e-17 0.7200231545407378
  outer loop
    vertex -334.7450122972464 3.400000000000009 10.441788498924954
    vertex -335.2149217006087 4.900000000000001 9.98889521787712
    vertex -335.2149217006087 3.400000000000009 9.98889521787712
  endloop
endfacet
facet normal -0.6939500392140668 -1.1192101893786137e-17 0.7200231545407378
  outer loop
    vertex -335.2149217006087 4.900000000000001 9.98889521787712
    vertex -334.7450122972464 3.400000000000009 10.441788498924954
    vertex -334.7450122972464 4.900000000000001 10.441788498924954
  endloop
endfacet
facet normal -0.8566599703411103 0.0 0.5158814739987936
  outer loop
    vertex -334.4083320750567 4.900000000000001 11.00087131870479
    vertex -334.7450122972464 3.400000000000009 10.441788498924954
    vertex -334.4083320750567 3.400000000000009 11.00087131870479
  endloop
endfacet
facet normal -0.8566599703411103 0.0 0.5158814739987936
  outer loop
    vertex -334.7450122972464 3.400000000000009 10.441788498924954
    vertex -334.4083320750567 4.900000000000001 11.00087131870479
    vertex -334.7450122972464 4.900000000000001 10.441788498924954
  endloop
endfacet
endsolid Motion_Detection_via_LoRa
