solid Motion_Detection_via_LoRa
facet normal 3.106332407302168e-32 1.4099832412739488e-16 -1.0
  outer loop
    vertex 22.000000000000004 25.999999999999996 0.0
    vertex 20.000000000000007 6.000000000000003 -2.8199664825478975e-15
    vertex 20.000000000000007 25.999999999999996 0.0
  endloop
endfacet
facet normal 3.106332407302168e-32 1.4099832412739488e-16 -1.0
  outer loop
    vertex 20.000000000000007 6.000000000000003 -2.8199664825478975e-15
    vertex 22.000000000000004 25.999999999999996 0.0
    vertex 22.000000000000004 6.000000000000003 -2.8199664825478975e-15
  endloop
endfacet
facet normal -1.9500224191655868e-16 -1.0 -1.1700134514993532e-16
  outer loop
    vertex 22.000000000000004 5.999999999999997 50.0
    vertex 20.000000000000007 6.000000000000003 -2.8199664825478975e-15
    vertex 22.000000000000004 6.000000000000003 -2.8199664825478975e-15
  endloop
endfacet
facet normal -1.9500224191655868e-16 -1.0 -1.1700134514993532e-16
  outer loop
    vertex 20.000000000000007 6.000000000000003 -2.8199664825478975e-15
    vertex 22.000000000000004 5.999999999999997 50.0
    vertex 19.999999999999986 5.999999999999997 50.0
  endloop
endfacet
facet normal -2.835589535353316e-17 -7.668443924655775e-17 1.0
  outer loop
    vertex 22.000000000000004 5.999999999999997 50.0
    vertex 20.000000000000007 29.999999999999996 50.0
    vertex 19.999999999999986 5.999999999999997 50.0
  endloop
endfacet
facet normal -2.835589535353316e-17 -7.668443924655775e-17 1.0
  outer loop
    vertex -20.000000000000007 5.999999999999995 50.0
    vertex -21.999999999999993 31.999999999999996 50.0
    vertex -22.000000000000004 5.999999999999995 50.0
  endloop
endfacet
facet normal -2.835589535353316e-17 -7.668443924655775e-17 1.0
  outer loop
    vertex -21.999999999999993 31.999999999999996 50.0
    vertex -20.000000000000007 5.999999999999995 50.0
    vertex -19.999999999999996 29.999999999999996 50.0
  endloop
endfacet
facet normal -2.835589535353316e-17 -7.668443924655775e-17 1.0
  outer loop
    vertex -21.999999999999993 31.999999999999996 50.0
    vertex -19.999999999999996 29.999999999999996 50.0
    vertex 22.000000000000004 31.999999999999996 50.0
  endloop
endfacet
facet normal -2.835589535353316e-17 -7.668443924655775e-17 1.0
  outer loop
    vertex 22.000000000000004 31.999999999999996 50.0
    vertex -19.999999999999996 29.999999999999996 50.0
    vertex 20.000000000000007 29.999999999999996 50.0
  endloop
endfacet
facet normal -2.835589535353316e-17 -7.668443924655775e-17 1.0
  outer loop
    vertex 22.000000000000004 31.999999999999996 50.0
    vertex 20.000000000000007 29.999999999999996 50.0
    vertex 22.000000000000004 5.999999999999997 50.0
  endloop
endfacet
facet normal 0.0 1.0 8.326672684688672e-17
  outer loop
    vertex -21.999999999999993 31.999999999999996 50.0
    vertex 22.000000000000004 31.999999999999996 0.0
    vertex -21.999999999999993 31.999999999999996 -2.8199664825478975e-15
  endloop
endfacet
facet normal 0.0 1.0 8.326672684688672e-17
  outer loop
    vertex 22.000000000000004 31.999999999999996 0.0
    vertex -21.999999999999993 31.999999999999996 50.0
    vertex 22.000000000000004 31.999999999999996 50.0
  endloop
endfacet
facet normal -1.0 1.0233321454777531e-15 2.1930346114395903e-16
  outer loop
    vertex -21.999999999999993 31.999999999999996 50.0
    vertex -22.00000000000004 6.000000000000003 0.0
    vertex -22.000000000000004 5.999999999999995 50.0
  endloop
endfacet
facet normal -1.0 1.0233321454777531e-15 2.1930346114395903e-16
  outer loop
    vertex -22.00000000000004 6.000000000000003 0.0
    vertex -21.999999999999993 31.999999999999996 50.0
    vertex -22.000000000000004 18.079613379188547 5.391009550051238
  endloop
endfacet
facet normal -1.0 1.0233321454777531e-15 2.1930346114395903e-16
  outer loop
    vertex -22.00000000000004 6.000000000000003 0.0
    vertex -22.000000000000004 18.079613379188547 5.391009550051238
    vertex -22.000000000000004 18.009774074417066 5.139472636396602
  endloop
endfacet
facet normal -1.0 1.0233321454777531e-15 2.1930346114395903e-16
  outer loop
    vertex -22.00000000000004 6.000000000000003 0.0
    vertex -22.000000000000004 18.009774074417066 5.139472636396602
    vertex -22.000000000000004 18.007417030048348 4.878430893060967
  endloop
endfacet
facet normal -1.0 1.0233321454777531e-15 2.1930346114395903e-16
  outer loop
    vertex -22.000000000000004 18.079613379188547 5.391009550051238
    vertex -21.999999999999993 31.999999999999996 50.0
    vertex -22.000000000000004 18.212175511157522 5.615899809043714
  endloop
endfacet
facet normal -1.0 1.0233321454777531e-15 2.1930346114395903e-16
  outer loop
    vertex -22.000000000000004 18.212175511157522 5.615899809043714
    vertex -21.999999999999993 31.999999999999996 50.0
    vertex -22.000000000000004 18.39842658009959 5.798817513872421
  endloop
endfacet
facet normal -1.0 1.0233321454777531e-15 2.1930346114395903e-16
  outer loop
    vertex -22.000000000000004 18.39842658009959 5.798817513872421
    vertex -21.999999999999993 31.999999999999996 50.0
    vertex -22.000000000000004 18.625673883460784 5.92729712523908
  endloop
endfacet
facet normal -1.0 1.0233321454777531e-15 2.1930346114395903e-16
  outer loop
    vertex -22.000000000000004 18.625673883460784 5.92729712523908
    vertex -21.999999999999993 31.999999999999996 50.0
    vertex -22.000000000000004 18.878430893060973 5.992582969951651
  endloop
endfacet
facet normal -1.0 1.0233321454777531e-15 2.1930346114395903e-16
  outer loop
    vertex -22.000000000000004 18.878430893060973 5.992582969951651
    vertex -21.999999999999993 31.999999999999996 50.0
    vertex -22.000000000000004 19.139472636396608 5.990225925582932
  endloop
endfacet
facet normal -1.0 1.0233321454777531e-15 2.1930346114395903e-16
  outer loop
    vertex -22.000000000000004 19.139472636396608 5.990225925582932
    vertex -21.999999999999993 31.999999999999996 50.0
    vertex -22.000000000000004 19.391009550051244 5.92038662081145
  endloop
endfacet
facet normal -1.0 1.0233321454777531e-15 2.1930346114395903e-16
  outer loop
    vertex -22.000000000000004 19.391009550051244 5.92038662081145
    vertex -21.999999999999993 31.999999999999996 50.0
    vertex -22.000000000000004 19.615899809043718 5.787824488842474
  endloop
endfacet
facet normal -1.0 1.0233321454777531e-15 2.1930346114395903e-16
  outer loop
    vertex -22.000000000000004 19.615899809043718 5.787824488842474
    vertex -21.999999999999993 31.999999999999996 50.0
    vertex -22.000000000000004 19.79881751387243 5.60157341990041
  endloop
endfacet
facet normal -1.0 1.0233321454777531e-15 2.1930346114395903e-16
  outer loop
    vertex -22.000000000000004 19.79881751387243 5.60157341990041
    vertex -21.999999999999993 31.999999999999996 50.0
    vertex -22.000000000000004 19.927297125239086 5.374326116539213
  endloop
endfacet
facet normal -1.0 1.0233321454777531e-15 2.1930346114395903e-16
  outer loop
    vertex -22.000000000000004 19.927297125239086 5.374326116539213
    vertex -21.999999999999993 31.999999999999996 50.0
    vertex -22.000000000000004 19.992582969951656 5.121569106939026
  endloop
endfacet
facet normal -1.0 1.0233321454777531e-15 2.1930346114395903e-16
  outer loop
    vertex -22.000000000000004 19.992582969951656 5.121569106939026
    vertex -21.999999999999993 31.999999999999996 50.0
    vertex -21.999999999999993 25.999999999999996 -2.8199664825478975e-15
  endloop
endfacet
facet normal -1.0 1.0233321454777531e-15 2.1930346114395903e-16
  outer loop
    vertex -21.999999999999993 25.999999999999996 -2.8199664825478975e-15
    vertex -21.999999999999993 31.999999999999996 50.0
    vertex -21.999999999999993 31.999999999999996 -2.8199664825478975e-15
  endloop
endfacet
facet normal -1.0 1.0233321454777531e-15 2.1930346114395903e-16
  outer loop
    vertex -22.00000000000004 6.000000000000003 0.0
    vertex -22.000000000000004 18.608990449948763 4.079613379188543
    vertex -21.999999999999993 25.999999999999996 -2.8199664825478975e-15
  endloop
endfacet
facet normal -1.0 1.0233321454777531e-15 2.1930346114395903e-16
  outer loop
    vertex -22.000000000000004 18.608990449948763 4.079613379188543
    vertex -22.00000000000004 6.000000000000003 0.0
    vertex -22.000000000000004 18.384100190956286 4.212175511157518
  endloop
endfacet
facet normal -1.0 1.0233321454777531e-15 2.1930346114395903e-16
  outer loop
    vertex -22.000000000000004 18.384100190956286 4.212175511157518
    vertex -22.00000000000004 6.000000000000003 0.0
    vertex -22.000000000000004 18.201182486127575 4.398426580099583
  endloop
endfacet
facet normal -1.0 1.0233321454777531e-15 2.1930346114395903e-16
  outer loop
    vertex -22.000000000000004 18.201182486127575 4.398426580099583
    vertex -22.00000000000004 6.000000000000003 0.0
    vertex -22.000000000000004 18.072702874760918 4.625673883460779
  endloop
endfacet
facet normal -1.0 1.0233321454777531e-15 2.1930346114395903e-16
  outer loop
    vertex -22.000000000000004 18.072702874760918 4.625673883460779
    vertex -22.00000000000004 6.000000000000003 0.0
    vertex -22.000000000000004 18.007417030048348 4.878430893060967
  endloop
endfacet
facet normal -1.0 1.0233321454777531e-15 2.1930346114395903e-16
  outer loop
    vertex -21.999999999999993 25.999999999999996 -2.8199664825478975e-15
    vertex -22.000000000000004 18.608990449948763 4.079613379188543
    vertex -22.000000000000004 18.860527363603396 4.009774074417061
  endloop
endfacet
facet normal -1.0 1.0233321454777531e-15 2.1930346114395903e-16
  outer loop
    vertex -21.999999999999993 25.999999999999996 -2.8199664825478975e-15
    vertex -22.000000000000004 18.860527363603396 4.009774074417061
    vertex -22.000000000000004 19.12156910693903 4.007417030048342
  endloop
endfacet
facet normal -1.0 1.0233321454777531e-15 2.1930346114395903e-16
  outer loop
    vertex -21.999999999999993 25.999999999999996 -2.8199664825478975e-15
    vertex -22.000000000000004 19.12156910693903 4.007417030048342
    vertex -22.000000000000004 19.37432611653922 4.072702874760913
  endloop
endfacet
facet normal -1.0 1.0233321454777531e-15 2.1930346114395903e-16
  outer loop
    vertex -21.999999999999993 25.999999999999996 -2.8199664825478975e-15
    vertex -22.000000000000004 19.37432611653922 4.072702874760913
    vertex -22.000000000000004 19.601573419900415 4.201182486127572
  endloop
endfacet
facet normal -1.0 1.0233321454777531e-15 2.1930346114395903e-16
  outer loop
    vertex -21.999999999999993 25.999999999999996 -2.8199664825478975e-15
    vertex -22.000000000000004 19.601573419900415 4.201182486127572
    vertex -22.000000000000004 19.78782448884248 4.3841001909562785
  endloop
endfacet
facet normal -1.0 1.0233321454777531e-15 2.1930346114395903e-16
  outer loop
    vertex -21.999999999999993 25.999999999999996 -2.8199664825478975e-15
    vertex -22.000000000000004 19.78782448884248 4.3841001909562785
    vertex -22.000000000000004 19.920386620811456 4.608990449948755
  endloop
endfacet
facet normal -1.0 1.0233321454777531e-15 2.1930346114395903e-16
  outer loop
    vertex -21.999999999999993 25.999999999999996 -2.8199664825478975e-15
    vertex -22.000000000000004 19.920386620811456 4.608990449948755
    vertex -22.000000000000004 19.990225925582937 4.86052736360339
  endloop
endfacet
facet normal -1.0 1.0233321454777531e-15 2.1930346114395903e-16
  outer loop
    vertex -21.999999999999993 25.999999999999996 -2.8199664825478975e-15
    vertex -22.000000000000004 19.990225925582937 4.86052736360339
    vertex -22.000000000000004 19.992582969951656 5.121569106939026
  endloop
endfacet
facet normal 1.720515264649759e-17 -1.0 -8.32667268468867e-17
  outer loop
    vertex 20.000000000000007 30.0 0.0
    vertex -19.999999999999996 29.999999999999996 50.0
    vertex -19.999999999999996 30.0 -2.8199664825478975e-15
  endloop
endfacet
facet normal 1.720515264649759e-17 -1.0 -8.32667268468867e-17
  outer loop
    vertex -19.999999999999996 29.999999999999996 50.0
    vertex 20.000000000000007 30.0 0.0
    vertex 20.000000000000007 29.999999999999996 50.0
  endloop
endfacet
facet normal 1.0 -1.125859463129306e-15 -2.2219391078006723e-16
  outer loop
    vertex -20.000000000000043 6.000000000000003 -2.8199664825478975e-15
    vertex -20.000000000000007 18.072702874760918 4.625673883460779
    vertex -20.000000000000007 18.007417030048348 4.878430893060967
  endloop
endfacet
facet normal 1.0 -1.125859463129306e-15 -2.2219391078006723e-16
  outer loop
    vertex -20.000000000000007 18.072702874760918 4.625673883460779
    vertex -20.000000000000043 6.000000000000003 -2.8199664825478975e-15
    vertex -20.000000000000007 18.201182486127575 4.398426580099583
  endloop
endfacet
facet normal 1.0 -1.125859463129306e-15 -2.2219391078006723e-16
  outer loop
    vertex -20.000000000000007 18.201182486127575 4.398426580099583
    vertex -20.000000000000043 6.000000000000003 -2.8199664825478975e-15
    vertex -20.000000000000007 18.384100190956286 4.212175511157518
  endloop
endfacet
facet normal 1.0 -1.125859463129306e-15 -2.2219391078006723e-16
  outer loop
    vertex -20.000000000000007 18.384100190956286 4.212175511157518
    vertex -20.000000000000043 6.000000000000003 -2.8199664825478975e-15
    vertex -20.000000000000007 18.608990449948763 4.079613379188543
  endloop
endfacet
facet normal 1.0 -1.125859463129306e-15 -2.2219391078006723e-16
  outer loop
    vertex -20.000000000000007 18.608990449948763 4.079613379188543
    vertex -20.000000000000043 6.000000000000003 -2.8199664825478975e-15
    vertex -19.999999999999996 25.999999999999996 -2.8199664825478975e-15
  endloop
endfacet
facet normal 1.0 -1.125859463129306e-15 -2.2219391078006723e-16
  outer loop
    vertex -20.000000000000007 18.608990449948763 4.079613379188543
    vertex -19.999999999999996 25.999999999999996 -2.8199664825478975e-15
    vertex -20.000000000000007 18.860527363603396 4.009774074417061
  endloop
endfacet
facet normal 1.0 -1.125859463129306e-15 -2.2219391078006723e-16
  outer loop
    vertex -20.000000000000007 18.860527363603396 4.009774074417061
    vertex -19.999999999999996 25.999999999999996 -2.8199664825478975e-15
    vertex -20.000000000000007 19.12156910693903 4.007417030048342
  endloop
endfacet
facet normal 1.0 -1.125859463129306e-15 -2.2219391078006723e-16
  outer loop
    vertex -20.000000000000007 19.12156910693903 4.007417030048342
    vertex -19.999999999999996 25.999999999999996 -2.8199664825478975e-15
    vertex -20.000000000000007 19.37432611653922 4.072702874760913
  endloop
endfacet
facet normal 1.0 -1.125859463129306e-15 -2.2219391078006723e-16
  outer loop
    vertex -20.000000000000007 19.37432611653922 4.072702874760913
    vertex -19.999999999999996 25.999999999999996 -2.8199664825478975e-15
    vertex -20.000000000000007 19.601573419900415 4.201182486127572
  endloop
endfacet
facet normal 1.0 -1.125859463129306e-15 -2.2219391078006723e-16
  outer loop
    vertex -20.000000000000007 19.601573419900415 4.201182486127572
    vertex -19.999999999999996 25.999999999999996 -2.8199664825478975e-15
    vertex -20.000000000000007 19.78782448884248 4.3841001909562785
  endloop
endfacet
facet normal 1.0 -1.125859463129306e-15 -2.2219391078006723e-16
  outer loop
    vertex -20.000000000000007 19.78782448884248 4.3841001909562785
    vertex -19.999999999999996 25.999999999999996 -2.8199664825478975e-15
    vertex -20.000000000000007 19.920386620811456 4.608990449948755
  endloop
endfacet
facet normal 1.0 -1.125859463129306e-15 -2.2219391078006723e-16
  outer loop
    vertex -20.000000000000007 19.920386620811456 4.608990449948755
    vertex -19.999999999999996 25.999999999999996 -2.8199664825478975e-15
    vertex -20.000000000000007 19.990225925582937 4.86052736360339
  endloop
endfacet
facet normal 1.0 -1.125859463129306e-15 -2.2219391078006723e-16
  outer loop
    vertex -20.000000000000007 19.990225925582937 4.86052736360339
    vertex -19.999999999999996 25.999999999999996 -2.8199664825478975e-15
    vertex -20.000000000000007 19.992582969951656 5.121569106939026
  endloop
endfacet
facet normal 1.0 -1.125859463129306e-15 -2.2219391078006723e-16
  outer loop
    vertex -20.000000000000043 6.000000000000003 -2.8199664825478975e-15
    vertex -19.999999999999996 29.999999999999996 50.0
    vertex -20.000000000000007 5.999999999999995 50.0
  endloop
endfacet
facet normal 1.0 -1.125859463129306e-15 -2.2219391078006723e-16
  outer loop
    vertex -19.999999999999996 29.999999999999996 50.0
    vertex -20.000000000000043 6.000000000000003 -2.8199664825478975e-15
    vertex -20.000000000000007 18.009774074417066 5.139472636396602
  endloop
endfacet
facet normal 1.0 -1.125859463129306e-15 -2.2219391078006723e-16
  outer loop
    vertex -20.000000000000007 18.009774074417066 5.139472636396602
    vertex -20.000000000000043 6.000000000000003 -2.8199664825478975e-15
    vertex -20.000000000000007 18.007417030048348 4.878430893060967
  endloop
endfacet
facet normal 1.0 -1.125859463129306e-15 -2.2219391078006723e-16
  outer loop
    vertex -19.999999999999996 29.999999999999996 50.0
    vertex -20.000000000000007 18.009774074417066 5.139472636396602
    vertex -20.000000000000007 18.079613379188547 5.391009550051238
  endloop
endfacet
facet normal 1.0 -1.125859463129306e-15 -2.2219391078006723e-16
  outer loop
    vertex -19.999999999999996 29.999999999999996 50.0
    vertex -20.000000000000007 18.079613379188547 5.391009550051238
    vertex -20.000000000000007 18.212175511157522 5.615899809043714
  endloop
endfacet
facet normal 1.0 -1.125859463129306e-15 -2.2219391078006723e-16
  outer loop
    vertex -19.999999999999996 29.999999999999996 50.0
    vertex -20.000000000000007 18.212175511157522 5.615899809043714
    vertex -20.000000000000007 18.39842658009959 5.798817513872421
  endloop
endfacet
facet normal 1.0 -1.125859463129306e-15 -2.2219391078006723e-16
  outer loop
    vertex -19.999999999999996 29.999999999999996 50.0
    vertex -20.000000000000007 18.39842658009959 5.798817513872421
    vertex -20.000000000000007 18.625673883460784 5.92729712523908
  endloop
endfacet
facet normal 1.0 -1.125859463129306e-15 -2.2219391078006723e-16
  outer loop
    vertex -19.999999999999996 29.999999999999996 50.0
    vertex -20.000000000000007 18.625673883460784 5.92729712523908
    vertex -20.000000000000007 18.878430893060973 5.992582969951651
  endloop
endfacet
facet normal 1.0 -1.125859463129306e-15 -2.2219391078006723e-16
  outer loop
    vertex -19.999999999999996 29.999999999999996 50.0
    vertex -20.000000000000007 18.878430893060973 5.992582969951651
    vertex -20.000000000000007 19.139472636396608 5.990225925582932
  endloop
endfacet
facet normal 1.0 -1.125859463129306e-15 -2.2219391078006723e-16
  outer loop
    vertex -19.999999999999996 29.999999999999996 50.0
    vertex -20.000000000000007 19.139472636396608 5.990225925582932
    vertex -20.000000000000007 19.391009550051244 5.92038662081145
  endloop
endfacet
facet normal 1.0 -1.125859463129306e-15 -2.2219391078006723e-16
  outer loop
    vertex -19.999999999999996 29.999999999999996 50.0
    vertex -20.000000000000007 19.391009550051244 5.92038662081145
    vertex -20.000000000000007 19.615899809043718 5.787824488842474
  endloop
endfacet
facet normal 1.0 -1.125859463129306e-15 -2.2219391078006723e-16
  outer loop
    vertex -19.999999999999996 29.999999999999996 50.0
    vertex -20.000000000000007 19.615899809043718 5.787824488842474
    vertex -20.000000000000007 19.79881751387243 5.60157341990041
  endloop
endfacet
facet normal 1.0 -1.125859463129306e-15 -2.2219391078006723e-16
  outer loop
    vertex -19.999999999999996 29.999999999999996 50.0
    vertex -20.000000000000007 19.79881751387243 5.60157341990041
    vertex -20.000000000000007 19.927297125239086 5.374326116539213
  endloop
endfacet
facet normal 1.0 -1.125859463129306e-15 -2.2219391078006723e-16
  outer loop
    vertex -19.999999999999996 29.999999999999996 50.0
    vertex -20.000000000000007 19.927297125239086 5.374326116539213
    vertex -20.000000000000007 19.992582969951656 5.121569106939026
  endloop
endfacet
facet normal 1.0 -1.125859463129306e-15 -2.2219391078006723e-16
  outer loop
    vertex -19.999999999999996 29.999999999999996 50.0
    vertex -20.000000000000007 19.992582969951656 5.121569106939026
    vertex -19.999999999999996 25.999999999999996 -2.8199664825478975e-15
  endloop
endfacet
facet normal 1.0 -1.125859463129306e-15 -2.2219391078006723e-16
  outer loop
    vertex -19.999999999999996 29.999999999999996 50.0
    vertex -19.999999999999996 25.999999999999996 -2.8199664825478975e-15
    vertex -19.999999999999996 30.0 -2.8199664825478975e-15
  endloop
endfacet
facet normal 6.699015399717855e-17 -4.1188707904432157e-33 -1.0
  outer loop
    vertex -21.999999999999993 31.999999999999996 -2.8199664825478975e-15
    vertex -19.999999999999996 30.0 -2.8199664825478975e-15
    vertex -21.999999999999993 25.999999999999996 -2.8199664825478975e-15
  endloop
endfacet
facet normal 6.699015399717855e-17 -4.1188707904432157e-33 -1.0
  outer loop
    vertex -19.999999999999996 30.0 -2.8199664825478975e-15
    vertex -21.999999999999993 31.999999999999996 -2.8199664825478975e-15
    vertex 22.000000000000004 31.999999999999996 0.0
  endloop
endfacet
facet normal 6.699015399717855e-17 -4.1188707904432157e-33 -1.0
  outer loop
    vertex -19.999999999999996 30.0 -2.8199664825478975e-15
    vertex 22.000000000000004 31.999999999999996 0.0
    vertex 20.000000000000007 30.0 0.0
  endloop
endfacet
facet normal 6.699015399717855e-17 -4.1188707904432157e-33 -1.0
  outer loop
    vertex 20.000000000000007 30.0 0.0
    vertex 22.000000000000004 31.999999999999996 0.0
    vertex 20.000000000000007 25.999999999999996 0.0
  endloop
endfacet
facet normal 6.699015399717855e-17 -4.1188707904432157e-33 -1.0
  outer loop
    vertex 20.000000000000007 25.999999999999996 0.0
    vertex 22.000000000000004 31.999999999999996 0.0
    vertex 22.000000000000004 25.999999999999996 0.0
  endloop
endfacet
facet normal 6.699015399717855e-17 -4.1188707904432157e-33 -1.0
  outer loop
    vertex -19.999999999999996 25.999999999999996 -2.8199664825478975e-15
    vertex -21.999999999999993 25.999999999999996 -2.8199664825478975e-15
    vertex -19.999999999999996 30.0 -2.8199664825478975e-15
  endloop
endfacet
facet normal 1.0 -2.2549120509555154e-16 1.2107551294777614e-16
  outer loop
    vertex 22.000000000000004 6.000000000000003 -2.8199664825478975e-15
    vertex 22.000000000000004 18.045207226240038 4.7027278028880515
    vertex 22.000000000000004 18.000801294879036 4.9599756613472135
  endloop
endfacet
facet normal 1.0 -2.2549120509555154e-16 1.2107551294777614e-16
  outer loop
    vertex 22.000000000000004 18.045207226240038 4.7027278028880515
    vertex 22.000000000000004 6.000000000000003 -2.8199664825478975e-15
    vertex 22.000000000000004 18.15468070726312 4.465738553396535
  endloop
endfacet
facet normal 1.0 -2.2549120509555154e-16 1.2107551294777614e-16
  outer loop
    vertex 22.000000000000004 18.15468070726312 4.465738553396535
    vertex 22.000000000000004 6.000000000000003 -2.8199664825478975e-15
    vertex 22.000000000000004 18.321761301130042 4.265158338582258
  endloop
endfacet
facet normal 1.0 -2.2549120509555154e-16 1.2107551294777614e-16
  outer loop
    vertex 22.000000000000004 18.321761301130042 4.265158338582258
    vertex 22.000000000000004 6.000000000000003 -2.8199664825478975e-15
    vertex 22.000000000000004 18.535062741482502 4.114656368610336
  endloop
endfacet
facet normal 1.0 -2.2549120509555154e-16 1.2107551294777614e-16
  outer loop
    vertex 22.000000000000004 18.535062741482502 4.114656368610336
    vertex 22.000000000000004 6.000000000000003 -2.8199664825478975e-15
    vertex 22.000000000000004 25.999999999999996 0.0
  endloop
endfacet
facet normal 1.0 -2.2549120509555154e-16 1.2107551294777614e-16
  outer loop
    vertex 22.000000000000004 18.535062741482502 4.114656368610336
    vertex 22.000000000000004 25.999999999999996 0.0
    vertex 22.000000000000004 18.78004888765778 4.024489104018093
  endloop
endfacet
facet normal 1.0 -2.2549120509555154e-16 1.2107551294777614e-16
  outer loop
    vertex 22.000000000000004 18.78004888765778 4.024489104018093
    vertex 22.000000000000004 25.999999999999996 0.0
    vertex 22.000000000000004 19.040024338652785 4.000801294879037
  endloop
endfacet
facet normal 1.0 -2.2549120509555154e-16 1.2107551294777614e-16
  outer loop
    vertex 22.000000000000004 19.040024338652785 4.000801294879037
    vertex 22.000000000000004 25.999999999999996 0.0
    vertex 22.000000000000004 19.297272197111948 4.0452072262400405
  endloop
endfacet
facet normal 1.0 -2.2549120509555154e-16 1.2107551294777614e-16
  outer loop
    vertex 22.000000000000004 19.297272197111948 4.0452072262400405
    vertex 22.000000000000004 25.999999999999996 0.0
    vertex 22.000000000000004 19.534261446603463 4.154680707263122
  endloop
endfacet
facet normal 1.0 -2.2549120509555154e-16 1.2107551294777614e-16
  outer loop
    vertex 22.000000000000004 19.534261446603463 4.154680707263122
    vertex 22.000000000000004 25.999999999999996 0.0
    vertex 22.000000000000004 19.73484166141774 4.32176130113004
  endloop
endfacet
facet normal 1.0 -2.2549120509555154e-16 1.2107551294777614e-16
  outer loop
    vertex 22.000000000000004 19.73484166141774 4.32176130113004
    vertex 22.000000000000004 25.999999999999996 0.0
    vertex 22.000000000000004 19.885343631389663 4.535062741482501
  endloop
endfacet
facet normal 1.0 -2.2549120509555154e-16 1.2107551294777614e-16
  outer loop
    vertex 22.000000000000004 19.885343631389663 4.535062741482501
    vertex 22.000000000000004 25.999999999999996 0.0
    vertex 22.000000000000004 19.975510895981905 4.780048887657781
  endloop
endfacet
facet normal 1.0 -2.2549120509555154e-16 1.2107551294777614e-16
  outer loop
    vertex 22.000000000000004 19.975510895981905 4.780048887657781
    vertex 22.000000000000004 25.999999999999996 0.0
    vertex 22.000000000000004 19.99919870512096 5.040024338652784
  endloop
endfacet
facet normal 1.0 -2.2549120509555154e-16 1.2107551294777614e-16
  outer loop
    vertex 22.000000000000004 6.000000000000003 -2.8199664825478975e-15
    vertex 22.000000000000004 31.999999999999996 50.0
    vertex 22.000000000000004 5.999999999999997 50.0
  endloop
endfacet
facet normal 1.0 -2.2549120509555154e-16 1.2107551294777614e-16
  outer loop
    vertex 22.000000000000004 31.999999999999996 50.0
    vertex 22.000000000000004 6.000000000000003 -2.8199664825478975e-15
    vertex 22.000000000000004 18.02448910401809 5.219951112342216
  endloop
endfacet
facet normal 1.0 -2.2549120509555154e-16 1.2107551294777614e-16
  outer loop
    vertex 22.000000000000004 18.02448910401809 5.219951112342216
    vertex 22.000000000000004 6.000000000000003 -2.8199664825478975e-15
    vertex 22.000000000000004 18.000801294879036 4.9599756613472135
  endloop
endfacet
facet normal 1.0 -2.2549120509555154e-16 1.2107551294777614e-16
  outer loop
    vertex 22.000000000000004 31.999999999999996 50.0
    vertex 22.000000000000004 18.02448910401809 5.219951112342216
    vertex 22.000000000000004 18.114656368610337 5.464937258517496
  endloop
endfacet
facet normal 1.0 -2.2549120509555154e-16 1.2107551294777614e-16
  outer loop
    vertex 22.000000000000004 31.999999999999996 50.0
    vertex 22.000000000000004 18.114656368610337 5.464937258517496
    vertex 22.000000000000004 18.265158338582257 5.678238698869957
  endloop
endfacet
facet normal 1.0 -2.2549120509555154e-16 1.2107551294777614e-16
  outer loop
    vertex 22.000000000000004 31.999999999999996 50.0
    vertex 22.000000000000004 18.265158338582257 5.678238698869957
    vertex 22.000000000000004 18.465738553396534 5.845319292736875
  endloop
endfacet
facet normal 1.0 -2.2549120509555154e-16 1.2107551294777614e-16
  outer loop
    vertex 22.000000000000004 31.999999999999996 50.0
    vertex 22.000000000000004 18.465738553396534 5.845319292736875
    vertex 22.000000000000004 18.702727802888052 5.954792773759957
  endloop
endfacet
facet normal 1.0 -2.2549120509555154e-16 1.2107551294777614e-16
  outer loop
    vertex 22.000000000000004 31.999999999999996 50.0
    vertex 22.000000000000004 18.702727802888052 5.954792773759957
    vertex 22.000000000000004 18.959975661347215 5.9991987051209605
  endloop
endfacet
facet normal 1.0 -2.2549120509555154e-16 1.2107551294777614e-16
  outer loop
    vertex 22.000000000000004 31.999999999999996 50.0
    vertex 22.000000000000004 18.959975661347215 5.9991987051209605
    vertex 22.000000000000004 19.219951112342216 5.9755108959819045
  endloop
endfacet
facet normal 1.0 -2.2549120509555154e-16 1.2107551294777614e-16
  outer loop
    vertex 22.000000000000004 31.999999999999996 50.0
    vertex 22.000000000000004 19.219951112342216 5.9755108959819045
    vertex 22.000000000000004 19.464937258517498 5.88534363138966
  endloop
endfacet
facet normal 1.0 -2.2549120509555154e-16 1.2107551294777614e-16
  outer loop
    vertex 22.000000000000004 31.999999999999996 50.0
    vertex 22.000000000000004 19.464937258517498 5.88534363138966
    vertex 22.000000000000004 19.678238698869958 5.7348416614177395
  endloop
endfacet
facet normal 1.0 -2.2549120509555154e-16 1.2107551294777614e-16
  outer loop
    vertex 22.000000000000004 31.999999999999996 50.0
    vertex 22.000000000000004 19.678238698869958 5.7348416614177395
    vertex 22.000000000000004 19.845319292736875 5.534261446603463
  endloop
endfacet
facet normal 1.0 -2.2549120509555154e-16 1.2107551294777614e-16
  outer loop
    vertex 22.000000000000004 31.999999999999996 50.0
    vertex 22.000000000000004 19.845319292736875 5.534261446603463
    vertex 22.000000000000004 19.954792773759955 5.297272197111947
  endloop
endfacet
facet normal 1.0 -2.2549120509555154e-16 1.2107551294777614e-16
  outer loop
    vertex 22.000000000000004 31.999999999999996 50.0
    vertex 22.000000000000004 19.954792773759955 5.297272197111947
    vertex 22.000000000000004 19.99919870512096 5.040024338652784
  endloop
endfacet
facet normal 1.0 -2.2549120509555154e-16 1.2107551294777614e-16
  outer loop
    vertex 22.000000000000004 31.999999999999996 50.0
    vertex 22.000000000000004 19.99919870512096 5.040024338652784
    vertex 22.000000000000004 25.999999999999996 0.0
  endloop
endfacet
facet normal 1.0 -2.2549120509555154e-16 1.2107551294777614e-16
  outer loop
    vertex 22.000000000000004 31.999999999999996 50.0
    vertex 22.000000000000004 25.999999999999996 0.0
    vertex 22.000000000000004 31.999999999999996 0.0
  endloop
endfacet
facet normal -1.0 2.4310055884033596e-16 -1.1863307271408391e-16
  outer loop
    vertex 20.000000000000007 29.999999999999996 50.0
    vertex 20.000000000000007 6.000000000000003 -2.8199664825478975e-15
    vertex 19.999999999999986 5.999999999999997 50.0
  endloop
endfacet
facet normal -1.0 2.4310055884033596e-16 -1.1863307271408391e-16
  outer loop
    vertex 20.000000000000007 6.000000000000003 -2.8199664825478975e-15
    vertex 20.000000000000007 29.999999999999996 50.0
    vertex 20.000000000000007 18.02448910401809 5.219951112342216
  endloop
endfacet
facet normal -1.0 2.4310055884033596e-16 -1.1863307271408391e-16
  outer loop
    vertex 20.000000000000007 6.000000000000003 -2.8199664825478975e-15
    vertex 20.000000000000007 18.02448910401809 5.219951112342216
    vertex 20.000000000000007 18.000801294879036 4.9599756613472135
  endloop
endfacet
facet normal -1.0 2.4310055884033596e-16 -1.1863307271408391e-16
  outer loop
    vertex 20.000000000000007 18.02448910401809 5.219951112342216
    vertex 20.000000000000007 29.999999999999996 50.0
    vertex 20.000000000000007 18.114656368610337 5.464937258517496
  endloop
endfacet
facet normal -1.0 2.4310055884033596e-16 -1.1863307271408391e-16
  outer loop
    vertex 20.000000000000007 18.114656368610337 5.464937258517496
    vertex 20.000000000000007 29.999999999999996 50.0
    vertex 20.000000000000007 18.265158338582257 5.678238698869957
  endloop
endfacet
facet normal -1.0 2.4310055884033596e-16 -1.1863307271408391e-16
  outer loop
    vertex 20.000000000000007 18.265158338582257 5.678238698869957
    vertex 20.000000000000007 29.999999999999996 50.0
    vertex 20.000000000000007 18.465738553396534 5.845319292736875
  endloop
endfacet
facet normal -1.0 2.4310055884033596e-16 -1.1863307271408391e-16
  outer loop
    vertex 20.000000000000007 18.465738553396534 5.845319292736875
    vertex 20.000000000000007 29.999999999999996 50.0
    vertex 20.000000000000007 18.702727802888052 5.954792773759957
  endloop
endfacet
facet normal -1.0 2.4310055884033596e-16 -1.1863307271408391e-16
  outer loop
    vertex 20.000000000000007 18.702727802888052 5.954792773759957
    vertex 20.000000000000007 29.999999999999996 50.0
    vertex 20.000000000000007 18.959975661347215 5.9991987051209605
  endloop
endfacet
facet normal -1.0 2.4310055884033596e-16 -1.1863307271408391e-16
  outer loop
    vertex 20.000000000000007 18.959975661347215 5.9991987051209605
    vertex 20.000000000000007 29.999999999999996 50.0
    vertex 20.000000000000007 19.219951112342216 5.9755108959819045
  endloop
endfacet
facet normal -1.0 2.4310055884033596e-16 -1.1863307271408391e-16
  outer loop
    vertex 20.000000000000007 19.219951112342216 5.9755108959819045
    vertex 20.000000000000007 29.999999999999996 50.0
    vertex 20.000000000000007 19.464937258517498 5.88534363138966
  endloop
endfacet
facet normal -1.0 2.4310055884033596e-16 -1.1863307271408391e-16
  outer loop
    vertex 20.000000000000007 19.464937258517498 5.88534363138966
    vertex 20.000000000000007 29.999999999999996 50.0
    vertex 20.000000000000007 19.678238698869958 5.7348416614177395
  endloop
endfacet
facet normal -1.0 2.4310055884033596e-16 -1.1863307271408391e-16
  outer loop
    vertex 20.000000000000007 19.678238698869958 5.7348416614177395
    vertex 20.000000000000007 29.999999999999996 50.0
    vertex 20.000000000000007 19.845319292736875 5.534261446603463
  endloop
endfacet
facet normal -1.0 2.4310055884033596e-16 -1.1863307271408391e-16
  outer loop
    vertex 20.000000000000007 19.845319292736875 5.534261446603463
    vertex 20.000000000000007 29.999999999999996 50.0
    vertex 20.000000000000007 19.954792773759955 5.297272197111947
  endloop
endfacet
facet normal -1.0 2.4310055884033596e-16 -1.1863307271408391e-16
  outer loop
    vertex 20.000000000000007 19.954792773759955 5.297272197111947
    vertex 20.000000000000007 29.999999999999996 50.0
    vertex 20.000000000000007 19.99919870512096 5.040024338652784
  endloop
endfacet
facet normal -1.0 2.4310055884033596e-16 -1.1863307271408391e-16
  outer loop
    vertex 20.000000000000007 19.99919870512096 5.040024338652784
    vertex 20.000000000000007 29.999999999999996 50.0
    vertex 20.000000000000007 25.999999999999996 0.0
  endloop
endfacet
facet normal -1.0 2.4310055884033596e-16 -1.1863307271408391e-16
  outer loop
    vertex 20.000000000000007 25.999999999999996 0.0
    vertex 20.000000000000007 29.999999999999996 50.0
    vertex 20.000000000000007 30.0 0.0
  endloop
endfacet
facet normal -1.0 2.4310055884033596e-16 -1.1863307271408391e-16
  outer loop
    vertex 20.000000000000007 6.000000000000003 -2.8199664825478975e-15
    vertex 20.000000000000007 18.535062741482502 4.114656368610336
    vertex 20.000000000000007 25.999999999999996 0.0
  endloop
endfacet
facet normal -1.0 2.4310055884033596e-16 -1.1863307271408391e-16
  outer loop
    vertex 20.000000000000007 18.535062741482502 4.114656368610336
    vertex 20.000000000000007 6.000000000000003 -2.8199664825478975e-15
    vertex 20.000000000000007 18.321761301130042 4.265158338582258
  endloop
endfacet
facet normal -1.0 2.4310055884033596e-16 -1.1863307271408391e-16
  outer loop
    vertex 20.000000000000007 18.321761301130042 4.265158338582258
    vertex 20.000000000000007 6.000000000000003 -2.8199664825478975e-15
    vertex 20.000000000000007 18.15468070726312 4.465738553396535
  endloop
endfacet
facet normal -1.0 2.4310055884033596e-16 -1.1863307271408391e-16
  outer loop
    vertex 20.000000000000007 18.15468070726312 4.465738553396535
    vertex 20.000000000000007 6.000000000000003 -2.8199664825478975e-15
    vertex 20.000000000000007 18.045207226240038 4.7027278028880515
  endloop
endfacet
facet normal -1.0 2.4310055884033596e-16 -1.1863307271408391e-16
  outer loop
    vertex 20.000000000000007 18.045207226240038 4.7027278028880515
    vertex 20.000000000000007 6.000000000000003 -2.8199664825478975e-15
    vertex 20.000000000000007 18.000801294879036 4.9599756613472135
  endloop
endfacet
facet normal -1.0 2.4310055884033596e-16 -1.1863307271408391e-16
  outer loop
    vertex 20.000000000000007 25.999999999999996 0.0
    vertex 20.000000000000007 18.535062741482502 4.114656368610336
    vertex 20.000000000000007 18.78004888765778 4.024489104018093
  endloop
endfacet
facet normal -1.0 2.4310055884033596e-16 -1.1863307271408391e-16
  outer loop
    vertex 20.000000000000007 25.999999999999996 0.0
    vertex 20.000000000000007 18.78004888765778 4.024489104018093
    vertex 20.000000000000007 19.040024338652785 4.000801294879037
  endloop
endfacet
facet normal -1.0 2.4310055884033596e-16 -1.1863307271408391e-16
  outer loop
    vertex 20.000000000000007 25.999999999999996 0.0
    vertex 20.000000000000007 19.040024338652785 4.000801294879037
    vertex 20.000000000000007 19.297272197111948 4.0452072262400405
  endloop
endfacet
facet normal -1.0 2.4310055884033596e-16 -1.1863307271408391e-16
  outer loop
    vertex 20.000000000000007 25.999999999999996 0.0
    vertex 20.000000000000007 19.297272197111948 4.0452072262400405
    vertex 20.000000000000007 19.534261446603463 4.154680707263122
  endloop
endfacet
facet normal -1.0 2.4310055884033596e-16 -1.1863307271408391e-16
  outer loop
    vertex 20.000000000000007 25.999999999999996 0.0
    vertex 20.000000000000007 19.534261446603463 4.154680707263122
    vertex 20.000000000000007 19.73484166141774 4.32176130113004
  endloop
endfacet
facet normal -1.0 2.4310055884033596e-16 -1.1863307271408391e-16
  outer loop
    vertex 20.000000000000007 25.999999999999996 0.0
    vertex 20.000000000000007 19.73484166141774 4.32176130113004
    vertex 20.000000000000007 19.885343631389663 4.535062741482501
  endloop
endfacet
facet normal -1.0 2.4310055884033596e-16 -1.1863307271408391e-16
  outer loop
    vertex 20.000000000000007 25.999999999999996 0.0
    vertex 20.000000000000007 19.885343631389663 4.535062741482501
    vertex 20.000000000000007 19.975510895981905 4.780048887657781
  endloop
endfacet
facet normal -1.0 2.4310055884033596e-16 -1.1863307271408391e-16
  outer loop
    vertex 20.000000000000007 25.999999999999996 0.0
    vertex 20.000000000000007 19.975510895981905 4.780048887657781
    vertex 20.000000000000007 19.99919870512096 5.040024338652784
  endloop
endfacet
facet normal -3.4147168090892746e-16 -1.0 -1.3851583476004283e-16
  outer loop
    vertex -20.000000000000007 5.999999999999995 50.0
    vertex -22.00000000000004 6.000000000000003 0.0
    vertex -20.000000000000043 6.000000000000003 -2.8199664825478975e-15
  endloop
endfacet
facet normal -3.4147168090892746e-16 -1.0 -1.3851583476004283e-16
  outer loop
    vertex -22.00000000000004 6.000000000000003 0.0
    vertex -20.000000000000007 5.999999999999995 50.0
    vertex -22.000000000000004 5.999999999999995 50.0
  endloop
endfacet
facet normal -7.049916206369742e-16 -7.049916206369596e-17 -1.0
  outer loop
    vertex -21.999999999999993 25.999999999999996 -2.8199664825478975e-15
    vertex -20.000000000000043 6.000000000000003 -2.8199664825478975e-15
    vertex -22.00000000000004 6.000000000000003 0.0
  endloop
endfacet
facet normal -7.049916206369742e-16 -7.049916206369596e-17 -1.0
  outer loop
    vertex -20.000000000000043 6.000000000000003 -2.8199664825478975e-15
    vertex -21.999999999999993 25.999999999999996 -2.8199664825478975e-15
    vertex -19.999999999999996 25.999999999999996 -2.8199664825478975e-15
  endloop
endfacet
facet normal 0.0 0.7683523567289964 0.6400270743562315
  outer loop
    vertex 20.000000000000007 18.15468070726312 4.465738553396535
    vertex 22.000000000000004 18.321761301130042 4.265158338582258
    vertex 20.000000000000007 18.321761301130042 4.265158338582258
  endloop
endfacet
facet normal 0.0 0.7683523567289964 0.6400270743562315
  outer loop
    vertex 22.000000000000004 18.321761301130042 4.265158338582258
    vertex 20.000000000000007 18.15468070726312 4.465738553396535
    vertex 22.000000000000004 18.15468070726312 4.465738553396535
  endloop
endfacet
facet normal 0.0 0.5765201888299661 0.81708290391579
  outer loop
    vertex 22.000000000000004 18.321761301130042 4.265158338582258
    vertex 20.000000000000007 18.535062741482502 4.114656368610336
    vertex 20.000000000000007 18.321761301130042 4.265158338582258
  endloop
endfacet
facet normal 0.0 0.5765201888299661 0.81708290391579
  outer loop
    vertex 20.000000000000007 18.535062741482502 4.114656368610336
    vertex 22.000000000000004 18.321761301130042 4.265158338582258
    vertex 22.000000000000004 18.535062741482502 4.114656368610336
  endloop
endfacet
facet normal 0.0 0.34539912280683316 0.9384558838668285
  outer loop
    vertex 22.000000000000004 18.535062741482502 4.114656368610336
    vertex 20.000000000000007 18.78004888765778 4.024489104018093
    vertex 20.000000000000007 18.535062741482502 4.114656368610336
  endloop
endfacet
facet normal 0.0 0.34539912280683316 0.9384558838668285
  outer loop
    vertex 20.000000000000007 18.78004888765778 4.024489104018093
    vertex 22.000000000000004 18.535062741482502 4.114656368610336
    vertex 22.000000000000004 18.78004888765778 4.024489104018093
  endloop
endfacet
facet normal 0.0 0.09073967736345746 0.9958746462040169
  outer loop
    vertex 22.000000000000004 18.78004888765778 4.024489104018093
    vertex 20.000000000000007 19.040024338652785 4.000801294879037
    vertex 20.000000000000007 18.78004888765778 4.024489104018093
  endloop
endfacet
facet normal 0.0 0.09073967736345746 0.9958746462040169
  outer loop
    vertex 20.000000000000007 19.040024338652785 4.000801294879037
    vertex 22.000000000000004 18.78004888765778 4.024489104018093
    vertex 22.000000000000004 19.040024338652785 4.000801294879037
  endloop
endfacet
facet normal 0.0 -0.17010352713783386 0.9854261971630692
  outer loop
    vertex 22.000000000000004 19.040024338652785 4.000801294879037
    vertex 20.000000000000007 19.297272197111948 4.0452072262400405
    vertex 20.000000000000007 19.040024338652785 4.000801294879037
  endloop
endfacet
facet normal 0.0 -0.17010352713783386 0.9854261971630692
  outer loop
    vertex 20.000000000000007 19.297272197111948 4.0452072262400405
    vertex 22.000000000000004 19.040024338652785 4.000801294879037
    vertex 22.000000000000004 19.297272197111948 4.0452072262400405
  endloop
endfacet
facet normal 0.0 -0.41935445737405397 0.9078225812792459
  outer loop
    vertex 22.000000000000004 19.297272197111948 4.0452072262400405
    vertex 20.000000000000007 19.534261446603463 4.154680707263122
    vertex 20.000000000000007 19.297272197111948 4.0452072262400405
  endloop
endfacet
facet normal 0.0 -0.41935445737405397 0.9078225812792459
  outer loop
    vertex 20.000000000000007 19.534261446603463 4.154680707263122
    vertex 22.000000000000004 19.297272197111948 4.0452072262400405
    vertex 22.000000000000004 19.534261446603463 4.154680707263122
  endloop
endfacet
facet normal 0.0 -0.6400270743562317 0.7683523567289962
  outer loop
    vertex 22.000000000000004 19.534261446603463 4.154680707263122
    vertex 20.000000000000007 19.73484166141774 4.32176130113004
    vertex 20.000000000000007 19.534261446603463 4.154680707263122
  endloop
endfacet
facet normal 0.0 -0.6400270743562317 0.7683523567289962
  outer loop
    vertex 20.000000000000007 19.73484166141774 4.32176130113004
    vertex 22.000000000000004 19.534261446603463 4.154680707263122
    vertex 22.000000000000004 19.73484166141774 4.32176130113004
  endloop
endfacet
facet normal 0.0 -0.8170829039157913 0.5765201888299644
  outer loop
    vertex 22.000000000000004 19.885343631389663 4.535062741482501
    vertex 20.000000000000007 19.73484166141774 4.32176130113004
    vertex 22.000000000000004 19.73484166141774 4.32176130113004
  endloop
endfacet
facet normal 0.0 -0.8170829039157913 0.5765201888299644
  outer loop
    vertex 20.000000000000007 19.73484166141774 4.32176130113004
    vertex 22.000000000000004 19.885343631389663 4.535062741482501
    vertex 20.000000000000007 19.885343631389663 4.535062741482501
  endloop
endfacet
facet normal 0.0 -0.938455883866828 0.34539912280683466
  outer loop
    vertex 22.000000000000004 19.975510895981905 4.780048887657781
    vertex 20.000000000000007 19.885343631389663 4.535062741482501
    vertex 22.000000000000004 19.885343631389663 4.535062741482501
  endloop
endfacet
facet normal 0.0 -0.938455883866828 0.34539912280683466
  outer loop
    vertex 20.000000000000007 19.885343631389663 4.535062741482501
    vertex 22.000000000000004 19.975510895981905 4.780048887657781
    vertex 20.000000000000007 19.975510895981905 4.780048887657781
  endloop
endfacet
facet normal 0.0 -0.9958746462040174 0.09073967736345187
  outer loop
    vertex 22.000000000000004 19.99919870512096 5.040024338652784
    vertex 20.000000000000007 19.975510895981905 4.780048887657781
    vertex 22.000000000000004 19.975510895981905 4.780048887657781
  endloop
endfacet
facet normal 0.0 -0.9958746462040174 0.09073967736345187
  outer loop
    vertex 20.000000000000007 19.975510895981905 4.780048887657781
    vertex 22.000000000000004 19.99919870512096 5.040024338652784
    vertex 20.000000000000007 19.99919870512096 5.040024338652784
  endloop
endfacet
facet normal -0.0 -0.9854261971630686 -0.17010352713783738
  outer loop
    vertex 22.000000000000004 19.954792773759955 5.297272197111947
    vertex 20.000000000000007 19.99919870512096 5.040024338652784
    vertex 22.000000000000004 19.99919870512096 5.040024338652784
  endloop
endfacet
facet normal -0.0 -0.9854261971630686 -0.17010352713783738
  outer loop
    vertex 20.000000000000007 19.99919870512096 5.040024338652784
    vertex 22.000000000000004 19.954792773759955 5.297272197111947
    vertex 20.000000000000007 19.954792773759955 5.297272197111947
  endloop
endfacet
facet normal -0.0 -0.9078225812792473 -0.4193544573740507
  outer loop
    vertex 22.000000000000004 19.845319292736875 5.534261446603463
    vertex 20.000000000000007 19.954792773759955 5.297272197111947
    vertex 22.000000000000004 19.954792773759955 5.297272197111947
  endloop
endfacet
facet normal -0.0 -0.9078225812792473 -0.4193544573740507
  outer loop
    vertex 20.000000000000007 19.954792773759955 5.297272197111947
    vertex 22.000000000000004 19.845319292736875 5.534261446603463
    vertex 20.000000000000007 19.845319292736875 5.534261446603463
  endloop
endfacet
facet normal -0.0 -0.7683523567289953 -0.6400270743562329
  outer loop
    vertex 22.000000000000004 19.678238698869958 5.7348416614177395
    vertex 20.000000000000007 19.845319292736875 5.534261446603463
    vertex 22.000000000000004 19.845319292736875 5.534261446603463
  endloop
endfacet
facet normal -0.0 -0.7683523567289953 -0.6400270743562329
  outer loop
    vertex 20.000000000000007 19.845319292736875 5.534261446603463
    vertex 22.000000000000004 19.678238698869958 5.7348416614177395
    vertex 20.000000000000007 19.678238698869958 5.7348416614177395
  endloop
endfacet
facet normal -0.0 -0.5765201888299644 -0.8170829039157913
  outer loop
    vertex 22.000000000000004 19.678238698869958 5.7348416614177395
    vertex 20.000000000000007 19.464937258517498 5.88534363138966
    vertex 20.000000000000007 19.678238698869958 5.7348416614177395
  endloop
endfacet
facet normal -0.0 -0.5765201888299644 -0.8170829039157913
  outer loop
    vertex 20.000000000000007 19.464937258517498 5.88534363138966
    vertex 22.000000000000004 19.678238698869958 5.7348416614177395
    vertex 22.000000000000004 19.464937258517498 5.88534363138966
  endloop
endfacet
facet normal -0.0 -0.3453991228068355 -0.9384558838668275
  outer loop
    vertex 22.000000000000004 19.464937258517498 5.88534363138966
    vertex 20.000000000000007 19.219951112342216 5.9755108959819045
    vertex 20.000000000000007 19.464937258517498 5.88534363138966
  endloop
endfacet
facet normal -0.0 -0.3453991228068355 -0.9384558838668275
  outer loop
    vertex 20.000000000000007 19.219951112342216 5.9755108959819045
    vertex 22.000000000000004 19.464937258517498 5.88534363138966
    vertex 22.000000000000004 19.219951112342216 5.9755108959819045
  endloop
endfacet
facet normal -0.0 -0.09073967736345746 -0.9958746462040169
  outer loop
    vertex 22.000000000000004 19.219951112342216 5.9755108959819045
    vertex 20.000000000000007 18.959975661347215 5.9991987051209605
    vertex 20.000000000000007 19.219951112342216 5.9755108959819045
  endloop
endfacet
facet normal -0.0 -0.09073967736345746 -0.9958746462040169
  outer loop
    vertex 20.000000000000007 18.959975661347215 5.9991987051209605
    vertex 22.000000000000004 19.219951112342216 5.9755108959819045
    vertex 22.000000000000004 18.959975661347215 5.9991987051209605
  endloop
endfacet
facet normal 0.0 0.17010352713783386 -0.9854261971630692
  outer loop
    vertex 22.000000000000004 18.959975661347215 5.9991987051209605
    vertex 20.000000000000007 18.702727802888052 5.954792773759957
    vertex 20.000000000000007 18.959975661347215 5.9991987051209605
  endloop
endfacet
facet normal 0.0 0.17010352713783386 -0.9854261971630692
  outer loop
    vertex 20.000000000000007 18.702727802888052 5.954792773759957
    vertex 22.000000000000004 18.959975661347215 5.9991987051209605
    vertex 22.000000000000004 18.702727802888052 5.954792773759957
  endloop
endfacet
facet normal 0.0 0.41935445737405397 -0.9078225812792459
  outer loop
    vertex 22.000000000000004 18.702727802888052 5.954792773759957
    vertex 20.000000000000007 18.465738553396534 5.845319292736875
    vertex 20.000000000000007 18.702727802888052 5.954792773759957
  endloop
endfacet
facet normal 0.0 0.41935445737405397 -0.9078225812792459
  outer loop
    vertex 20.000000000000007 18.465738553396534 5.845319292736875
    vertex 22.000000000000004 18.702727802888052 5.954792773759957
    vertex 22.000000000000004 18.465738553396534 5.845319292736875
  endloop
endfacet
facet normal 0.0 0.6400270743562317 -0.7683523567289962
  outer loop
    vertex 22.000000000000004 18.465738553396534 5.845319292736875
    vertex 20.000000000000007 18.265158338582257 5.678238698869957
    vertex 20.000000000000007 18.465738553396534 5.845319292736875
  endloop
endfacet
facet normal 0.0 0.6400270743562317 -0.7683523567289962
  outer loop
    vertex 20.000000000000007 18.265158338582257 5.678238698869957
    vertex 22.000000000000004 18.465738553396534 5.845319292736875
    vertex 22.000000000000004 18.265158338582257 5.678238698869957
  endloop
endfacet
facet normal 0.0 0.8170829039157913 -0.5765201888299644
  outer loop
    vertex 20.000000000000007 18.265158338582257 5.678238698869957
    vertex 22.000000000000004 18.114656368610337 5.464937258517496
    vertex 20.000000000000007 18.114656368610337 5.464937258517496
  endloop
endfacet
facet normal 0.0 0.8170829039157913 -0.5765201888299644
  outer loop
    vertex 22.000000000000004 18.114656368610337 5.464937258517496
    vertex 20.000000000000007 18.265158338582257 5.678238698869957
    vertex 22.000000000000004 18.265158338582257 5.678238698869957
  endloop
endfacet
facet normal 0.0 0.938455883866828 -0.34539912280683466
  outer loop
    vertex 20.000000000000007 18.114656368610337 5.464937258517496
    vertex 22.000000000000004 18.02448910401809 5.219951112342216
    vertex 20.000000000000007 18.02448910401809 5.219951112342216
  endloop
endfacet
facet normal 0.0 0.938455883866828 -0.34539912280683466
  outer loop
    vertex 22.000000000000004 18.02448910401809 5.219951112342216
    vertex 20.000000000000007 18.114656368610337 5.464937258517496
    vertex 22.000000000000004 18.114656368610337 5.464937258517496
  endloop
endfacet
facet normal 0.0 0.9958746462040173 -0.0907396773634521
  outer loop
    vertex 20.000000000000007 18.02448910401809 5.219951112342216
    vertex 22.000000000000004 18.000801294879036 4.9599756613472135
    vertex 20.000000000000007 18.000801294879036 4.9599756613472135
  endloop
endfacet
facet normal 0.0 0.9958746462040173 -0.0907396773634521
  outer loop
    vertex 22.000000000000004 18.000801294879036 4.9599756613472135
    vertex 20.000000000000007 18.02448910401809 5.219951112342216
    vertex 22.000000000000004 18.02448910401809 5.219951112342216
  endloop
endfacet
facet normal 0.0 0.9854261971630704 0.1701035271378269
  outer loop
    vertex 20.000000000000007 18.000801294879036 4.9599756613472135
    vertex 22.000000000000004 18.045207226240038 4.7027278028880515
    vertex 20.000000000000007 18.045207226240038 4.7027278028880515
  endloop
endfacet
facet normal 0.0 0.9854261971630704 0.1701035271378269
  outer loop
    vertex 22.000000000000004 18.045207226240038 4.7027278028880515
    vertex 20.000000000000007 18.000801294879036 4.9599756613472135
    vertex 22.000000000000004 18.000801294879036 4.9599756613472135
  endloop
endfacet
facet normal 0.0 0.9078225812792432 0.4193544573740596
  outer loop
    vertex 20.000000000000007 18.045207226240038 4.7027278028880515
    vertex 22.000000000000004 18.15468070726312 4.465738553396535
    vertex 20.000000000000007 18.15468070726312 4.465738553396535
  endloop
endfacet
facet normal 0.0 0.9078225812792432 0.4193544573740596
  outer loop
    vertex 22.000000000000004 18.15468070726312 4.465738553396535
    vertex 20.000000000000007 18.045207226240038 4.7027278028880515
    vertex 22.000000000000004 18.045207226240038 4.7027278028880515
  endloop
endfacet
facet normal 0.0 0.8614755979908577 -0.5077989701311872
  outer loop
    vertex -22.000000000000004 18.212175511157522 5.615899809043714
    vertex -20.000000000000007 18.079613379188547 5.391009550051238
    vertex -22.000000000000004 18.079613379188547 5.391009550051238
  endloop
endfacet
facet normal 0.0 0.8614755979908577 -0.5077989701311872
  outer loop
    vertex -20.000000000000007 18.079613379188547 5.391009550051238
    vertex -22.000000000000004 18.212175511157522 5.615899809043714
    vertex -20.000000000000007 18.212175511157522 5.615899809043714
  endloop
endfacet
facet normal 0.0 0.7006934842637896 -0.7134624314638232
  outer loop
    vertex -20.000000000000007 18.39842658009959 5.798817513872421
    vertex -22.000000000000004 18.212175511157522 5.615899809043714
    vertex -22.000000000000004 18.39842658009959 5.798817513872421
  endloop
endfacet
facet normal 0.0 0.7006934842637896 -0.7134624314638232
  outer loop
    vertex -22.000000000000004 18.212175511157522 5.615899809043714
    vertex -20.000000000000007 18.39842658009959 5.798817513872421
    vertex -20.000000000000007 18.212175511157522 5.615899809043714
  endloop
endfacet
facet normal 0.0 0.4921602675348802 -0.8705046071446121
  outer loop
    vertex -20.000000000000007 18.625673883460784 5.92729712523908
    vertex -22.000000000000004 18.39842658009959 5.798817513872421
    vertex -22.000000000000004 18.625673883460784 5.92729712523908
  endloop
endfacet
facet normal 0.0 0.4921602675348802 -0.8705046071446121
  outer loop
    vertex -22.000000000000004 18.39842658009959 5.798817513872421
    vertex -20.000000000000007 18.625673883460784 5.92729712523908
    vertex -20.000000000000007 18.39842658009959 5.798817513872421
  endloop
endfacet
facet normal 0.0 0.25008714190676123 -0.9682233324253798
  outer loop
    vertex -20.000000000000007 18.878430893060973 5.992582969951651
    vertex -22.000000000000004 18.625673883460784 5.92729712523908
    vertex -22.000000000000004 18.878430893060973 5.992582969951651
  endloop
endfacet
facet normal 0.0 0.25008714190676123 -0.9682233324253798
  outer loop
    vertex -22.000000000000004 18.625673883460784 5.92729712523908
    vertex -20.000000000000007 18.878430893060973 5.992582969951651
    vertex -20.000000000000007 18.625673883460784 5.92729712523908
  endloop
endfacet
facet normal -0.0 -0.009029009153756696 -0.9999592376660669
  outer loop
    vertex -20.000000000000007 19.139472636396608 5.990225925582932
    vertex -22.000000000000004 18.878430893060973 5.992582969951651
    vertex -22.000000000000004 19.139472636396608 5.990225925582932
  endloop
endfacet
facet normal -0.0 -0.009029009153756696 -0.9999592376660669
  outer loop
    vertex -22.000000000000004 18.878430893060973 5.992582969951651
    vertex -20.000000000000007 19.139472636396608 5.990225925582932
    vertex -20.000000000000007 18.878430893060973 5.992582969951651
  endloop
endfacet
facet normal -0.0 -0.2675298481615882 -0.9635495733705858
  outer loop
    vertex -20.000000000000007 19.391009550051244 5.92038662081145
    vertex -22.000000000000004 19.139472636396608 5.990225925582932
    vertex -22.000000000000004 19.391009550051244 5.92038662081145
  endloop
endfacet
facet normal -0.0 -0.2675298481615882 -0.9635495733705858
  outer loop
    vertex -22.000000000000004 19.139472636396608 5.990225925582932
    vertex -20.000000000000007 19.391009550051244 5.92038662081145
    vertex -20.000000000000007 19.139472636396608 5.990225925582932
  endloop
endfacet
facet normal -0.0 -0.5077989701311939 -0.8614755979908536
  outer loop
    vertex -20.000000000000007 19.615899809043718 5.787824488842474
    vertex -22.000000000000004 19.391009550051244 5.92038662081145
    vertex -22.000000000000004 19.615899809043718 5.787824488842474
  endloop
endfacet
facet normal -0.0 -0.5077989701311939 -0.8614755979908536
  outer loop
    vertex -22.000000000000004 19.391009550051244 5.92038662081145
    vertex -20.000000000000007 19.615899809043718 5.787824488842474
    vertex -20.000000000000007 19.391009550051244 5.92038662081145
  endloop
endfacet
facet normal -0.0 -0.7134624314638177 -0.7006934842637951
  outer loop
    vertex -20.000000000000007 19.615899809043718 5.787824488842474
    vertex -22.000000000000004 19.79881751387243 5.60157341990041
    vertex -20.000000000000007 19.79881751387243 5.60157341990041
  endloop
endfacet
facet normal -0.0 -0.7134624314638177 -0.7006934842637951
  outer loop
    vertex -22.000000000000004 19.79881751387243 5.60157341990041
    vertex -20.000000000000007 19.615899809043718 5.787824488842474
    vertex -22.000000000000004 19.615899809043718 5.787824488842474
  endloop
endfacet
facet normal -0.0 -0.8705046071446134 -0.49216026753487785
  outer loop
    vertex -20.000000000000007 19.79881751387243 5.60157341990041
    vertex -22.000000000000004 19.927297125239086 5.374326116539213
    vertex -20.000000000000007 19.927297125239086 5.374326116539213
  endloop
endfacet
facet normal -0.0 -0.8705046071446134 -0.49216026753487785
  outer loop
    vertex -22.000000000000004 19.927297125239086 5.374326116539213
    vertex -20.000000000000007 19.79881751387243 5.60157341990041
    vertex -22.000000000000004 19.79881751387243 5.60157341990041
  endloop
endfacet
facet normal -0.0 -0.9682233324253811 -0.25008714190675624
  outer loop
    vertex -20.000000000000007 19.927297125239086 5.374326116539213
    vertex -22.000000000000004 19.992582969951656 5.121569106939026
    vertex -20.000000000000007 19.992582969951656 5.121569106939026
  endloop
endfacet
facet normal -0.0 -0.9682233324253811 -0.25008714190675624
  outer loop
    vertex -22.000000000000004 19.992582969951656 5.121569106939026
    vertex -20.000000000000007 19.927297125239086 5.374326116539213
    vertex -22.000000000000004 19.927297125239086 5.374326116539213
  endloop
endfacet
facet normal 0.0 -0.9999592376660668 0.00902900915375397
  outer loop
    vertex -20.000000000000007 19.992582969951656 5.121569106939026
    vertex -22.000000000000004 19.990225925582937 4.86052736360339
    vertex -20.000000000000007 19.990225925582937 4.86052736360339
  endloop
endfacet
facet normal 0.0 -0.9999592376660668 0.00902900915375397
  outer loop
    vertex -22.000000000000004 19.990225925582937 4.86052736360339
    vertex -20.000000000000007 19.992582969951656 5.121569106939026
    vertex -22.000000000000004 19.992582969951656 5.121569106939026
  endloop
endfacet
facet normal 0.0 -0.9635495733705852 0.26752984816158953
  outer loop
    vertex -20.000000000000007 19.990225925582937 4.86052736360339
    vertex -22.000000000000004 19.920386620811456 4.608990449948755
    vertex -20.000000000000007 19.920386620811456 4.608990449948755
  endloop
endfacet
facet normal 0.0 -0.9635495733705852 0.26752984816158953
  outer loop
    vertex -22.000000000000004 19.920386620811456 4.608990449948755
    vertex -20.000000000000007 19.990225925582937 4.86052736360339
    vertex -22.000000000000004 19.990225925582937 4.86052736360339
  endloop
endfacet
facet normal 0.0 -0.8614755979908577 0.5077989701311872
  outer loop
    vertex -20.000000000000007 19.920386620811456 4.608990449948755
    vertex -22.000000000000004 19.78782448884248 4.3841001909562785
    vertex -20.000000000000007 19.78782448884248 4.3841001909562785
  endloop
endfacet
facet normal 0.0 -0.8614755979908577 0.5077989701311872
  outer loop
    vertex -22.000000000000004 19.78782448884248 4.3841001909562785
    vertex -20.000000000000007 19.920386620811456 4.608990449948755
    vertex -22.000000000000004 19.920386620811456 4.608990449948755
  endloop
endfacet
facet normal 0.0 -0.7006934842637896 0.7134624314638232
  outer loop
    vertex -20.000000000000007 19.601573419900415 4.201182486127572
    vertex -22.000000000000004 19.78782448884248 4.3841001909562785
    vertex -22.000000000000004 19.601573419900415 4.201182486127572
  endloop
endfacet
facet normal 0.0 -0.7006934842637896 0.7134624314638232
  outer loop
    vertex -22.000000000000004 19.78782448884248 4.3841001909562785
    vertex -20.000000000000007 19.601573419900415 4.201182486127572
    vertex -20.000000000000007 19.78782448884248 4.3841001909562785
  endloop
endfacet
facet normal 0.0 -0.4921602675348802 0.8705046071446121
  outer loop
    vertex -20.000000000000007 19.37432611653922 4.072702874760913
    vertex -22.000000000000004 19.601573419900415 4.201182486127572
    vertex -22.000000000000004 19.37432611653922 4.072702874760913
  endloop
endfacet
facet normal 0.0 -0.4921602675348802 0.8705046071446121
  outer loop
    vertex -22.000000000000004 19.601573419900415 4.201182486127572
    vertex -20.000000000000007 19.37432611653922 4.072702874760913
    vertex -20.000000000000007 19.601573419900415 4.201182486127572
  endloop
endfacet
facet normal 0.0 -0.25008714190676123 0.9682233324253798
  outer loop
    vertex -20.000000000000007 19.12156910693903 4.007417030048342
    vertex -22.000000000000004 19.37432611653922 4.072702874760913
    vertex -22.000000000000004 19.12156910693903 4.007417030048342
  endloop
endfacet
facet normal 0.0 -0.25008714190676123 0.9682233324253798
  outer loop
    vertex -22.000000000000004 19.37432611653922 4.072702874760913
    vertex -20.000000000000007 19.12156910693903 4.007417030048342
    vertex -20.000000000000007 19.37432611653922 4.072702874760913
  endloop
endfacet
facet normal 0.0 0.009029009153756696 0.9999592376660669
  outer loop
    vertex -20.000000000000007 18.860527363603396 4.009774074417061
    vertex -22.000000000000004 19.12156910693903 4.007417030048342
    vertex -22.000000000000004 18.860527363603396 4.009774074417061
  endloop
endfacet
facet normal 0.0 0.009029009153756696 0.9999592376660669
  outer loop
    vertex -22.000000000000004 19.12156910693903 4.007417030048342
    vertex -20.000000000000007 18.860527363603396 4.009774074417061
    vertex -20.000000000000007 19.12156910693903 4.007417030048342
  endloop
endfacet
facet normal 0.0 0.267529848161591 0.9635495733705849
  outer loop
    vertex -20.000000000000007 18.608990449948763 4.079613379188543
    vertex -22.000000000000004 18.860527363603396 4.009774074417061
    vertex -22.000000000000004 18.608990449948763 4.079613379188543
  endloop
endfacet
facet normal 0.0 0.267529848161591 0.9635495733705849
  outer loop
    vertex -22.000000000000004 18.860527363603396 4.009774074417061
    vertex -20.000000000000007 18.608990449948763 4.079613379188543
    vertex -20.000000000000007 18.860527363603396 4.009774074417061
  endloop
endfacet
facet normal 0.0 0.5077989701311872 0.8614755979908577
  outer loop
    vertex -20.000000000000007 18.384100190956286 4.212175511157518
    vertex -22.000000000000004 18.608990449948763 4.079613379188543
    vertex -22.000000000000004 18.384100190956286 4.212175511157518
  endloop
endfacet
facet normal 0.0 0.5077989701311872 0.8614755979908577
  outer loop
    vertex -22.000000000000004 18.608990449948763 4.079613379188543
    vertex -20.000000000000007 18.384100190956286 4.212175511157518
    vertex -20.000000000000007 18.608990449948763 4.079613379188543
  endloop
endfacet
facet normal 0.0 0.713462431463819 0.7006934842637937
  outer loop
    vertex -22.000000000000004 18.201182486127575 4.398426580099583
    vertex -20.000000000000007 18.384100190956286 4.212175511157518
    vertex -22.000000000000004 18.384100190956286 4.212175511157518
  endloop
endfacet
facet normal 0.0 0.713462431463819 0.7006934842637937
  outer loop
    vertex -20.000000000000007 18.384100190956286 4.212175511157518
    vertex -22.000000000000004 18.201182486127575 4.398426580099583
    vertex -20.000000000000007 18.201182486127575 4.398426580099583
  endloop
endfacet
facet normal 0.0 0.8705046071446128 0.492160267534879
  outer loop
    vertex -22.000000000000004 18.072702874760918 4.625673883460779
    vertex -20.000000000000007 18.201182486127575 4.398426580099583
    vertex -22.000000000000004 18.201182486127575 4.398426580099583
  endloop
endfacet
facet normal 0.0 0.8705046071446128 0.492160267534879
  outer loop
    vertex -20.000000000000007 18.201182486127575 4.398426580099583
    vertex -22.000000000000004 18.072702874760918 4.625673883460779
    vertex -20.000000000000007 18.072702874760918 4.625673883460779
  endloop
endfacet
facet normal 0.0 0.9682233324253812 0.2500871419067556
  outer loop
    vertex -22.000000000000004 18.007417030048348 4.878430893060967
    vertex -20.000000000000007 18.072702874760918 4.625673883460779
    vertex -22.000000000000004 18.072702874760918 4.625673883460779
  endloop
endfacet
facet normal 0.0 0.9682233324253812 0.2500871419067556
  outer loop
    vertex -20.000000000000007 18.072702874760918 4.625673883460779
    vertex -22.000000000000004 18.007417030048348 4.878430893060967
    vertex -20.000000000000007 18.007417030048348 4.878430893060967
  endloop
endfacet
facet normal 0.0 0.9999592376660669 -0.009029009153753995
  outer loop
    vertex -22.000000000000004 18.009774074417066 5.139472636396602
    vertex -20.000000000000007 18.007417030048348 4.878430893060967
    vertex -22.000000000000004 18.007417030048348 4.878430893060967
  endloop
endfacet
facet normal 0.0 0.9999592376660669 -0.009029009153753995
  outer loop
    vertex -20.000000000000007 18.007417030048348 4.878430893060967
    vertex -22.000000000000004 18.009774074417066 5.139472636396602
    vertex -20.000000000000007 18.009774074417066 5.139472636396602
  endloop
endfacet
facet normal 0.0 0.9635495733705854 -0.26752984816158887
  outer loop
    vertex -22.000000000000004 18.079613379188547 5.391009550051238
    vertex -20.000000000000007 18.009774074417066 5.139472636396602
    vertex -22.000000000000004 18.009774074417066 5.139472636396602
  endloop
endfacet
facet normal 0.0 0.9635495733705854 -0.26752984816158887
  outer loop
    vertex -20.000000000000007 18.009774074417066 5.139472636396602
    vertex -22.000000000000004 18.079613379188547 5.391009550051238
    vertex -20.000000000000007 18.079613379188547 5.391009550051238
  endloop
endfacet
endsolid Motion_Detection_via_LoRa
