solid Motion_Detection_via_LoRa
facet normal 0.0 -1.0 0.0
  outer loop
    vertex -297.6999999999999 86.79999999999998 1.9999999999999936
    vertex -311.82391834435 86.79999999999998 3.0157428052927533
    vertex -392.29999999999995 86.79999999999998 1.9999999999999936
  endloop
endfacet
facet normal 0.0 -1.0 0.0
  outer loop
    vertex -311.82391834435 86.79999999999998 3.0157428052927533
    vertex -297.6999999999999 86.79999999999998 1.9999999999999936
    vertex -311.127056158246 86.79999999999998 3.129783585170828
  endloop
endfacet
facet normal 0.0 -1.0 0.0
  outer loop
    vertex -311.127056158246 86.79999999999998 3.129783585170828
    vertex -297.6999999999999 86.79999999999998 1.9999999999999936
    vertex -310.45661341042234 86.79999999999998 3.3514335970987332
  endloop
endfacet
facet normal 0.0 -1.0 0.0
  outer loop
    vertex -310.45661341042234 86.79999999999998 3.3514335970987332
    vertex -297.6999999999999 86.79999999999998 1.9999999999999936
    vertex -309.8290986264025 86.79999999999998 3.675235082168588
  endloop
endfacet
facet normal 0.0 -1.0 0.0
  outer loop
    vertex -309.8290986264025 86.79999999999998 3.675235082168588
    vertex -297.6999999999999 86.79999999999998 1.9999999999999936
    vertex -309.25996330277115 86.79999999999998 4.093214973182454
  endloop
endfacet
facet normal 0.0 -1.0 0.0
  outer loop
    vertex -309.25996330277115 86.79999999999998 4.093214973182454
    vertex -297.6999999999999 86.79999999999998 1.9999999999999936
    vertex -308.76322144004797 86.79999999999998 4.595081218027847
  endloop
endfacet
facet normal 0.0 -1.0 0.0
  outer loop
    vertex -308.76322144004797 86.79999999999998 4.595081218027847
    vertex -297.6999999999999 86.79999999999998 1.9999999999999936
    vertex -308.3511044714849 86.79999999999998 5.168476204158095
  endloop
endfacet
facet normal 0.0 -1.0 0.0
  outer loop
    vertex -308.3511044714849 86.79999999999998 5.168476204158095
    vertex -297.6999999999999 86.79999999999998 1.9999999999999936
    vertex -308.03376008458577 86.79999999999998 5.799281044025818
  endloop
endfacet
facet normal 0.0 -1.0 0.0
  outer loop
    vertex -308.03376008458577 86.79999999999998 5.799281044025818
    vertex -297.6999999999999 86.79999999999998 1.9999999999999936
    vertex -297.6999999999999 86.79999999999998 27.499999999999996
  endloop
endfacet
facet normal 0.0 -1.0 0.0
  outer loop
    vertex -392.29999999999995 86.79999999999998 1.9999999999999936
    vertex -311.82391834435 86.79999999999998 3.0157428052927533
    vertex -312.5300409089597 86.79999999999998 3.012119319944755
  endloop
endfacet
facet normal 0.0 -1.0 0.0
  outer loop
    vertex -308.03376008458577 86.79999999999998 5.799281044025818
    vertex -297.6999999999999 86.79999999999998 27.499999999999996
    vertex -307.8190023513617 86.79999999999998 6.4719632289522355
  endloop
endfacet
facet normal 0.0 -1.0 0.0
  outer loop
    vertex -307.8190023513617 86.79999999999998 6.4719632289522355
    vertex -297.6999999999999 86.79999999999998 27.499999999999996
    vertex -307.71211931994463 86.79999999999998 7.16995909104028
  endloop
endfacet
facet normal 0.0 -1.0 0.0
  outer loop
    vertex -307.71211931994463 86.79999999999998 7.16995909104028
    vertex -297.6999999999999 86.79999999999998 27.499999999999996
    vertex -307.71574280529273 86.79999999999998 7.876081655649892
  endloop
endfacet
facet normal 0.0 -1.0 0.0
  outer loop
    vertex -307.71574280529273 86.79999999999998 7.876081655649892
    vertex -297.6999999999999 86.79999999999998 27.499999999999996
    vertex -307.82978358517073 86.79999999999998 8.572943841753945
  endloop
endfacet
facet normal 0.0 -1.0 0.0
  outer loop
    vertex -307.82978358517073 86.79999999999998 8.572943841753945
    vertex -297.6999999999999 86.79999999999998 27.499999999999996
    vertex -308.0514335970987 86.79999999999998 9.243386589577563
  endloop
endfacet
facet normal 0.0 -1.0 0.0
  outer loop
    vertex -308.0514335970987 86.79999999999998 9.243386589577563
    vertex -297.6999999999999 86.79999999999998 27.499999999999996
    vertex -308.37523508216856 86.79999999999998 9.870901373597414
  endloop
endfacet
facet normal 0.0 -1.0 0.0
  outer loop
    vertex -308.37523508216856 86.79999999999998 9.870901373597414
    vertex -297.6999999999999 86.79999999999998 27.499999999999996
    vertex -308.79321497318233 86.79999999999998 10.44003669722876
  endloop
endfacet
facet normal 0.0 -1.0 0.0
  outer loop
    vertex -308.79321497318233 86.79999999999998 10.44003669722876
    vertex -297.6999999999999 86.79999999999998 27.499999999999996
    vertex -309.29508121802775 86.79999999999998 10.936778559951954
  endloop
endfacet
facet normal 0.0 -1.0 0.0
  outer loop
    vertex -309.29508121802775 86.79999999999998 10.936778559951954
    vertex -297.6999999999999 86.79999999999998 27.499999999999996
    vertex -309.868476204158 86.79999999999998 11.348895528515023
  endloop
endfacet
facet normal 0.0 -1.0 0.0
  outer loop
    vertex -309.868476204158 86.79999999999998 11.348895528515023
    vertex -297.6999999999999 86.79999999999998 27.499999999999996
    vertex -310.49928104402574 86.79999999999998 11.666239915414144
  endloop
endfacet
facet normal 0.0 -1.0 0.0
  outer loop
    vertex -310.49928104402574 86.79999999999998 11.666239915414144
    vertex -297.6999999999999 86.79999999999998 27.499999999999996
    vertex -311.1719632289522 86.79999999999998 11.880997648638221
  endloop
endfacet
facet normal 0.0 -1.0 0.0
  outer loop
    vertex -311.1719632289522 86.79999999999998 11.880997648638221
    vertex -297.6999999999999 86.79999999999998 27.499999999999996
    vertex -311.8699590910402 86.79999999999998 11.987880680055229
  endloop
endfacet
facet normal 0.0 -1.0 0.0
  outer loop
    vertex -392.29999999999995 86.79999999999998 1.9999999999999936
    vertex -313.22803677104764 86.79999999999998 3.1190023513617606
    vertex -392.29999999999995 86.79999999999998 27.499999999999996
  endloop
endfacet
facet normal 0.0 -1.0 0.0
  outer loop
    vertex -313.22803677104764 86.79999999999998 3.1190023513617606
    vertex -392.29999999999995 86.79999999999998 1.9999999999999936
    vertex -312.5300409089597 86.79999999999998 3.012119319944755
  endloop
endfacet
facet normal 0.0 -1.0 0.0
  outer loop
    vertex -392.29999999999995 86.79999999999998 27.499999999999996
    vertex -313.22803677104764 86.79999999999998 3.1190023513617606
    vertex -313.90071895597407 86.79999999999998 3.3337600845858404
  endloop
endfacet
facet normal 0.0 -1.0 0.0
  outer loop
    vertex -392.29999999999995 86.79999999999998 27.499999999999996
    vertex -313.90071895597407 86.79999999999998 3.3337600845858404
    vertex -314.53152379584185 86.79999999999998 3.6511044714849614
  endloop
endfacet
facet normal 0.0 -1.0 0.0
  outer loop
    vertex -392.29999999999995 86.79999999999998 27.499999999999996
    vertex -314.53152379584185 86.79999999999998 3.6511044714849614
    vertex -315.1049187819721 86.79999999999998 4.063221440048031
  endloop
endfacet
facet normal 0.0 -1.0 0.0
  outer loop
    vertex -392.29999999999995 86.79999999999998 27.499999999999996
    vertex -315.1049187819721 86.79999999999998 4.063221440048031
    vertex -315.60678502681753 86.79999999999998 4.559963302771223
  endloop
endfacet
facet normal 0.0 -1.0 0.0
  outer loop
    vertex -392.29999999999995 86.79999999999998 27.499999999999996
    vertex -315.60678502681753 86.79999999999998 4.559963302771223
    vertex -316.0247649178313 86.79999999999998 5.129098626402571
  endloop
endfacet
facet normal 0.0 -1.0 0.0
  outer loop
    vertex -392.29999999999995 86.79999999999998 27.499999999999996
    vertex -316.0247649178313 86.79999999999998 5.129098626402571
    vertex -316.34856640290116 86.79999999999998 5.75661341042242
  endloop
endfacet
facet normal 0.0 -1.0 0.0
  outer loop
    vertex -392.29999999999995 86.79999999999998 27.499999999999996
    vertex -316.34856640290116 86.79999999999998 5.75661341042242
    vertex -316.5702164148291 86.79999999999998 6.427056158246038
  endloop
endfacet
facet normal 0.0 -1.0 0.0
  outer loop
    vertex -392.29999999999995 86.79999999999998 27.499999999999996
    vertex -316.5702164148291 86.79999999999998 6.427056158246038
    vertex -316.68425719470713 86.79999999999998 7.123918344350092
  endloop
endfacet
facet normal 0.0 -1.0 0.0
  outer loop
    vertex -392.29999999999995 86.79999999999998 27.499999999999996
    vertex -316.68425719470713 86.79999999999998 7.123918344350092
    vertex -316.6878806800552 86.79999999999998 7.830040908959704
  endloop
endfacet
facet normal 0.0 -1.0 0.0
  outer loop
    vertex -392.29999999999995 86.79999999999998 27.499999999999996
    vertex -316.6878806800552 86.79999999999998 7.830040908959704
    vertex -316.5809976486382 86.79999999999998 8.528036771047748
  endloop
endfacet
facet normal 0.0 -1.0 0.0
  outer loop
    vertex -392.29999999999995 86.79999999999998 27.499999999999996
    vertex -316.5809976486382 86.79999999999998 8.528036771047748
    vertex -316.3662399154141 86.79999999999998 9.200718955974166
  endloop
endfacet
facet normal 0.0 -1.0 0.0
  outer loop
    vertex -392.29999999999995 86.79999999999998 27.499999999999996
    vertex -316.3662399154141 86.79999999999998 9.200718955974166
    vertex -316.04889552851495 86.79999999999998 9.831523795841887
  endloop
endfacet
facet normal 0.0 -1.0 0.0
  outer loop
    vertex -392.29999999999995 86.79999999999998 27.499999999999996
    vertex -316.04889552851495 86.79999999999998 9.831523795841887
    vertex -315.63677855995184 86.79999999999998 10.404918781972137
  endloop
endfacet
facet normal 0.0 -1.0 0.0
  outer loop
    vertex -392.29999999999995 86.79999999999998 27.499999999999996
    vertex -315.63677855995184 86.79999999999998 10.404918781972137
    vertex -315.1400366972287 86.79999999999998 10.906785026817529
  endloop
endfacet
facet normal 0.0 -1.0 0.0
  outer loop
    vertex -392.29999999999995 86.79999999999998 27.499999999999996
    vertex -315.1400366972287 86.79999999999998 10.906785026817529
    vertex -314.57090137359734 86.79999999999998 11.324764917831395
  endloop
endfacet
facet normal 0.0 -1.0 0.0
  outer loop
    vertex -392.29999999999995 86.79999999999998 27.499999999999996
    vertex -314.57090137359734 86.79999999999998 11.324764917831395
    vertex -313.9433865895775 86.79999999999998 11.64856640290125
  endloop
endfacet
facet normal 0.0 -1.0 0.0
  outer loop
    vertex -392.29999999999995 86.79999999999998 27.499999999999996
    vertex -313.9433865895775 86.79999999999998 11.64856640290125
    vertex -313.2729438417539 86.79999999999998 11.870216414829157
  endloop
endfacet
facet normal 0.0 -1.0 0.0
  outer loop
    vertex -392.29999999999995 86.79999999999998 27.499999999999996
    vertex -313.2729438417539 86.79999999999998 11.870216414829157
    vertex -312.5760816556498 86.79999999999998 11.984257194707231
  endloop
endfacet
facet normal 0.0 -1.0 0.0
  outer loop
    vertex -392.29999999999995 86.79999999999998 27.499999999999996
    vertex -312.5760816556498 86.79999999999998 11.984257194707231
    vertex -311.8699590910402 86.79999999999998 11.987880680055229
  endloop
endfacet
facet normal 0.0 -1.0 0.0
  outer loop
    vertex -392.29999999999995 86.79999999999998 27.499999999999996
    vertex -311.8699590910402 86.79999999999998 11.987880680055229
    vertex -297.6999999999999 86.79999999999998 27.499999999999996
  endloop
endfacet
facet normal 0.0 1.1102230246251563e-16 1.0
  outer loop
    vertex -297.6999999999999 86.79999999999998 27.499999999999996
    vertex -392.29999999999995 88.29999999999998 27.499999999999996
    vertex -392.29999999999995 86.79999999999998 27.499999999999996
  endloop
endfacet
facet normal 0.0 1.1102230246251563e-16 1.0
  outer loop
    vertex -392.29999999999995 88.29999999999998 27.499999999999996
    vertex -297.6999999999999 86.79999999999998 27.499999999999996
    vertex -297.6999999999999 88.29999999999998 27.499999999999996
  endloop
endfacet
facet normal 0.0 -1.1102230246251563e-16 -1.0
  outer loop
    vertex -297.6999999999999 88.29999999999998 1.9999999999999936
    vertex -392.29999999999995 86.79999999999998 1.9999999999999936
    vertex -392.29999999999995 88.29999999999998 1.9999999999999936
  endloop
endfacet
facet normal 0.0 -1.1102230246251563e-16 -1.0
  outer loop
    vertex -392.29999999999995 86.79999999999998 1.9999999999999936
    vertex -297.6999999999999 88.29999999999998 1.9999999999999936
    vertex -297.6999999999999 86.79999999999998 1.9999999999999936
  endloop
endfacet
facet normal 0.0 1.0 0.0
  outer loop
    vertex -392.29999999999995 88.29999999999998 1.9999999999999936
    vertex -312.5300409089597 88.29999999999998 3.012119319944757
    vertex -297.6999999999999 88.29999999999998 1.9999999999999936
  endloop
endfacet
facet normal 0.0 1.0 0.0
  outer loop
    vertex -312.5300409089597 88.29999999999998 3.012119319944757
    vertex -392.29999999999995 88.29999999999998 1.9999999999999936
    vertex -313.2280367710477 88.29999999999998 3.1190023513617655
  endloop
endfacet
facet normal 0.0 1.0 0.0
  outer loop
    vertex -313.2280367710477 88.29999999999998 3.1190023513617655
    vertex -392.29999999999995 88.29999999999998 1.9999999999999936
    vertex -392.29999999999995 88.29999999999998 27.499999999999996
  endloop
endfacet
facet normal 0.0 1.0 0.0
  outer loop
    vertex -313.2280367710477 88.29999999999998 3.1190023513617655
    vertex -392.29999999999995 88.29999999999998 27.499999999999996
    vertex -313.90071895597407 88.29999999999998 3.3337600845858475
  endloop
endfacet
facet normal 0.0 1.0 0.0
  outer loop
    vertex -313.90071895597407 88.29999999999998 3.3337600845858475
    vertex -392.29999999999995 88.29999999999998 27.499999999999996
    vertex -314.53152379584185 88.29999999999998 3.6511044714849703
  endloop
endfacet
facet normal 0.0 1.0 0.0
  outer loop
    vertex -314.53152379584185 88.29999999999998 3.6511044714849703
    vertex -392.29999999999995 88.29999999999998 27.499999999999996
    vertex -315.1049187819721 88.29999999999998 4.063221440048043
  endloop
endfacet
facet normal 0.0 1.0 0.0
  outer loop
    vertex -315.1049187819721 88.29999999999998 4.063221440048043
    vertex -392.29999999999995 88.29999999999998 27.499999999999996
    vertex -315.60678502681753 88.29999999999998 4.559963302771237
  endloop
endfacet
facet normal 0.0 1.0 0.0
  outer loop
    vertex -315.60678502681753 88.29999999999998 4.559963302771237
    vertex -392.29999999999995 88.29999999999998 27.499999999999996
    vertex -316.0247649178313 88.29999999999998 5.129098626402587
  endloop
endfacet
facet normal 0.0 1.0 0.0
  outer loop
    vertex -316.0247649178313 88.29999999999998 5.129098626402587
    vertex -392.29999999999995 88.29999999999998 27.499999999999996
    vertex -316.34856640290127 88.29999999999998 5.756613410422437
  endloop
endfacet
facet normal 0.0 1.0 0.0
  outer loop
    vertex -316.34856640290127 88.29999999999998 5.756613410422437
    vertex -392.29999999999995 88.29999999999998 27.499999999999996
    vertex -316.5702164148291 88.29999999999998 6.427056158246055
  endloop
endfacet
facet normal 0.0 1.0 0.0
  outer loop
    vertex -316.5702164148291 88.29999999999998 6.427056158246055
    vertex -392.29999999999995 88.29999999999998 27.499999999999996
    vertex -316.68425719470713 88.29999999999998 7.12391834435011
  endloop
endfacet
facet normal 0.0 1.0 0.0
  outer loop
    vertex -316.68425719470713 88.29999999999998 7.12391834435011
    vertex -392.29999999999995 88.29999999999998 27.499999999999996
    vertex -316.6878806800552 88.29999999999998 7.830040908959722
  endloop
endfacet
facet normal 0.0 1.0 0.0
  outer loop
    vertex -316.6878806800552 88.29999999999998 7.830040908959722
    vertex -392.29999999999995 88.29999999999998 27.499999999999996
    vertex -316.5809976486382 88.29999999999998 8.528036771047766
  endloop
endfacet
facet normal 0.0 1.0 0.0
  outer loop
    vertex -316.5809976486382 88.29999999999998 8.528036771047766
    vertex -392.29999999999995 88.29999999999998 27.499999999999996
    vertex -316.3662399154141 88.29999999999998 9.200718955974182
  endloop
endfacet
facet normal 0.0 1.0 0.0
  outer loop
    vertex -316.3662399154141 88.29999999999998 9.200718955974182
    vertex -392.29999999999995 88.29999999999998 27.499999999999996
    vertex -316.04889552851495 88.29999999999998 9.831523795841902
  endloop
endfacet
facet normal 0.0 1.0 0.0
  outer loop
    vertex -316.04889552851495 88.29999999999998 9.831523795841902
    vertex -392.29999999999995 88.29999999999998 27.499999999999996
    vertex -315.63677855995184 88.29999999999998 10.404918781972151
  endloop
endfacet
facet normal 0.0 1.0 0.0
  outer loop
    vertex -315.63677855995184 88.29999999999998 10.404918781972151
    vertex -392.29999999999995 88.29999999999998 27.499999999999996
    vertex -315.1400366972287 88.29999999999998 10.906785026817541
  endloop
endfacet
facet normal 0.0 1.0 0.0
  outer loop
    vertex -315.1400366972287 88.29999999999998 10.906785026817541
    vertex -392.29999999999995 88.29999999999998 27.499999999999996
    vertex -314.57090137359734 88.29999999999998 11.324764917831406
  endloop
endfacet
facet normal 0.0 1.0 0.0
  outer loop
    vertex -314.57090137359734 88.29999999999998 11.324764917831406
    vertex -392.29999999999995 88.29999999999998 27.499999999999996
    vertex -313.9433865895774 88.29999999999998 11.648566402901256
  endloop
endfacet
facet normal 0.0 1.0 0.0
  outer loop
    vertex -313.9433865895774 88.29999999999998 11.648566402901256
    vertex -392.29999999999995 88.29999999999998 27.499999999999996
    vertex -313.2729438417538 88.29999999999998 11.870216414829159
  endloop
endfacet
facet normal 0.0 1.0 0.0
  outer loop
    vertex -313.2729438417538 88.29999999999998 11.870216414829159
    vertex -392.29999999999995 88.29999999999998 27.499999999999996
    vertex -312.5760816556498 88.29999999999998 11.984257194707231
  endloop
endfacet
facet normal 0.0 1.0 0.0
  outer loop
    vertex -312.5760816556498 88.29999999999998 11.984257194707231
    vertex -392.29999999999995 88.29999999999998 27.499999999999996
    vertex -311.8699590910402 88.29999999999998 11.987880680055227
  endloop
endfacet
facet normal 0.0 1.0 0.0
  outer loop
    vertex -297.6999999999999 88.29999999999998 1.9999999999999936
    vertex -308.03376008458577 88.29999999999998 5.799281044025801
    vertex -297.6999999999999 88.29999999999998 27.499999999999996
  endloop
endfacet
facet normal 0.0 1.0 0.0
  outer loop
    vertex -308.03376008458577 88.29999999999998 5.799281044025801
    vertex -297.6999999999999 88.29999999999998 1.9999999999999936
    vertex -308.3511044714849 88.29999999999998 5.16847620415808
  endloop
endfacet
facet normal 0.0 1.0 0.0
  outer loop
    vertex -308.3511044714849 88.29999999999998 5.16847620415808
    vertex -297.6999999999999 88.29999999999998 1.9999999999999936
    vertex -308.76322144004797 88.29999999999998 4.595081218027833
  endloop
endfacet
facet normal 0.0 1.0 0.0
  outer loop
    vertex -308.76322144004797 88.29999999999998 4.595081218027833
    vertex -297.6999999999999 88.29999999999998 1.9999999999999936
    vertex -309.25996330277115 88.29999999999998 4.093214973182444
  endloop
endfacet
facet normal 0.0 1.0 0.0
  outer loop
    vertex -309.25996330277115 88.29999999999998 4.093214973182444
    vertex -297.6999999999999 88.29999999999998 1.9999999999999936
    vertex -309.8290986264025 88.29999999999998 3.6752350821685784
  endloop
endfacet
facet normal 0.0 1.0 0.0
  outer loop
    vertex -309.8290986264025 88.29999999999998 3.6752350821685784
    vertex -297.6999999999999 88.29999999999998 1.9999999999999936
    vertex -310.4566134104224 88.29999999999998 3.351433597098727
  endloop
endfacet
facet normal 0.0 1.0 0.0
  outer loop
    vertex -310.4566134104224 88.29999999999998 3.351433597098727
    vertex -297.6999999999999 88.29999999999998 1.9999999999999936
    vertex -311.12705615824603 88.29999999999998 3.129783585170824
  endloop
endfacet
facet normal 0.0 1.0 0.0
  outer loop
    vertex -311.12705615824603 88.29999999999998 3.129783585170824
    vertex -297.6999999999999 88.29999999999998 1.9999999999999936
    vertex -311.82391834435003 88.29999999999998 3.0157428052927524
  endloop
endfacet
facet normal 0.0 1.0 0.0
  outer loop
    vertex -311.82391834435003 88.29999999999998 3.0157428052927524
    vertex -297.6999999999999 88.29999999999998 1.9999999999999936
    vertex -312.5300409089597 88.29999999999998 3.012119319944757
  endloop
endfacet
facet normal 0.0 1.0 0.0
  outer loop
    vertex -297.6999999999999 88.29999999999998 27.499999999999996
    vertex -308.03376008458577 88.29999999999998 5.799281044025801
    vertex -307.8190023513617 88.29999999999998 6.471963228952217
  endloop
endfacet
facet normal 0.0 1.0 0.0
  outer loop
    vertex -297.6999999999999 88.29999999999998 27.499999999999996
    vertex -307.8190023513617 88.29999999999998 6.471963228952217
    vertex -307.71211931994463 88.29999999999998 7.169959091040262
  endloop
endfacet
facet normal 0.0 1.0 0.0
  outer loop
    vertex -297.6999999999999 88.29999999999998 27.499999999999996
    vertex -307.71211931994463 88.29999999999998 7.169959091040262
    vertex -307.71574280529273 88.29999999999998 7.876081655649873
  endloop
endfacet
facet normal 0.0 1.0 0.0
  outer loop
    vertex -297.6999999999999 88.29999999999998 27.499999999999996
    vertex -307.71574280529273 88.29999999999998 7.876081655649873
    vertex -307.82978358517073 88.29999999999998 8.57294384175393
  endloop
endfacet
facet normal 0.0 1.0 0.0
  outer loop
    vertex -297.6999999999999 88.29999999999998 27.499999999999996
    vertex -307.82978358517073 88.29999999999998 8.57294384175393
    vertex -308.0514335970986 88.29999999999998 9.243386589577545
  endloop
endfacet
facet normal 0.0 1.0 0.0
  outer loop
    vertex -297.6999999999999 88.29999999999998 27.499999999999996
    vertex -308.0514335970986 88.29999999999998 9.243386589577545
    vertex -308.37523508216856 88.29999999999998 9.870901373597396
  endloop
endfacet
facet normal 0.0 1.0 0.0
  outer loop
    vertex -297.6999999999999 88.29999999999998 27.499999999999996
    vertex -308.37523508216856 88.29999999999998 9.870901373597396
    vertex -308.79321497318233 88.29999999999998 10.440036697228745
  endloop
endfacet
facet normal 0.0 1.0 0.0
  outer loop
    vertex -297.6999999999999 88.29999999999998 27.499999999999996
    vertex -308.79321497318233 88.29999999999998 10.440036697228745
    vertex -309.29508121802775 88.29999999999998 10.936778559951941
  endloop
endfacet
facet normal 0.0 1.0 0.0
  outer loop
    vertex -297.6999999999999 88.29999999999998 27.499999999999996
    vertex -309.29508121802775 88.29999999999998 10.936778559951941
    vertex -309.868476204158 88.29999999999998 11.348895528515014
  endloop
endfacet
facet normal 0.0 1.0 0.0
  outer loop
    vertex -297.6999999999999 88.29999999999998 27.499999999999996
    vertex -309.868476204158 88.29999999999998 11.348895528515014
    vertex -310.49928104402574 88.29999999999998 11.666239915414137
  endloop
endfacet
facet normal 0.0 1.0 0.0
  outer loop
    vertex -297.6999999999999 88.29999999999998 27.499999999999996
    vertex -310.49928104402574 88.29999999999998 11.666239915414137
    vertex -311.1719632289521 88.29999999999998 11.880997648638218
  endloop
endfacet
facet normal 0.0 1.0 0.0
  outer loop
    vertex -297.6999999999999 88.29999999999998 27.499999999999996
    vertex -311.1719632289521 88.29999999999998 11.880997648638218
    vertex -311.8699590910402 88.29999999999998 11.987880680055227
  endloop
endfacet
facet normal 0.0 1.0 0.0
  outer loop
    vertex -297.6999999999999 88.29999999999998 27.499999999999996
    vertex -311.8699590910402 88.29999999999998 11.987880680055227
    vertex -392.29999999999995 88.29999999999998 27.499999999999996
  endloop
endfacet
facet normal -1.0 0.0 0.0
  outer loop
    vertex -392.29999999999995 88.29999999999998 27.499999999999996
    vertex -392.29999999999995 86.79999999999998 1.9999999999999936
    vertex -392.29999999999995 86.79999999999998 27.499999999999996
  endloop
endfacet
facet normal -1.0 0.0 0.0
  outer loop
    vertex -392.29999999999995 86.79999999999998 1.9999999999999936
    vertex -392.29999999999995 88.29999999999998 27.499999999999996
    vertex -392.29999999999995 88.29999999999998 1.9999999999999936
  endloop
endfacet
facet normal 1.0 0.0 0.0
  outer loop
    vertex -297.6999999999999 88.29999999999998 1.9999999999999936
    vertex -297.6999999999999 86.79999999999998 27.499999999999996
    vertex -297.6999999999999 86.79999999999998 1.9999999999999936
  endloop
endfacet
facet normal 1.0 0.0 0.0
  outer loop
    vertex -297.6999999999999 86.79999999999998 27.499999999999996
    vertex -297.6999999999999 88.29999999999998 1.9999999999999936
    vertex -297.6999999999999 88.29999999999998 27.499999999999996
  endloop
endfacet
facet normal 0.591928949496795 5.687884629357861e-15 -0.8059901480462531
  outer loop
    vertex -314.57090137359734 88.29999999999998 11.324764917831406
    vertex -315.1400366972287 86.79999999999998 10.906785026817529
    vertex -315.1400366972287 88.29999999999998 10.906785026817541
  endloop
endfacet
facet normal 0.591928949496795 5.687884629357861e-15 -0.8059901480462531
  outer loop
    vertex -315.1400366972287 86.79999999999998 10.906785026817529
    vertex -314.57090137359734 88.29999999999998 11.324764917831406
    vertex -314.57090137359734 86.79999999999998 11.324764917831395
  endloop
endfacet
facet normal 0.45855668424138674 -9.199394570807752e-15 -0.888665160416197
  outer loop
    vertex -313.9433865895774 88.29999999999998 11.648566402901256
    vertex -314.57090137359734 86.79999999999998 11.324764917831395
    vertex -314.57090137359734 88.29999999999998 11.324764917831406
  endloop
endfacet
facet normal 0.45855668424138674 -9.199394570807752e-15 -0.888665160416197
  outer loop
    vertex -314.57090137359734 86.79999999999998 11.324764917831395
    vertex -313.9433865895774 88.29999999999998 11.648566402901256
    vertex -313.9433865895775 86.79999999999998 11.64856640290125
  endloop
endfacet
facet normal 0.31389323155759113 -1.664653290767545e-14 -0.9494582872261069
  outer loop
    vertex -313.9433865895774 88.29999999999998 11.648566402901256
    vertex -313.2729438417539 86.79999999999998 11.870216414829157
    vertex -313.9433865895775 86.79999999999998 11.64856640290125
  endloop
endfacet
facet normal 0.31389323155759113 -1.664653290767545e-14 -0.9494582872261069
  outer loop
    vertex -313.2729438417539 86.79999999999998 11.870216414829157
    vertex -313.9433865895774 88.29999999999998 11.648566402901256
    vertex -313.2729438417538 88.29999999999998 11.870216414829159
  endloop
endfacet
facet normal 0.16150068576094548 -4.393550398943532e-15 -0.9868725999331142
  outer loop
    vertex -313.2729438417538 88.29999999999998 11.870216414829159
    vertex -312.5760816556498 86.79999999999998 11.984257194707231
    vertex -313.2729438417539 86.79999999999998 11.870216414829157
  endloop
endfacet
facet normal 0.16150068576094548 -4.393550398943532e-15 -0.9868725999331142
  outer loop
    vertex -312.5760816556498 86.79999999999998 11.984257194707231
    vertex -313.2729438417538 88.29999999999998 11.870216414829159
    vertex -312.5760816556498 88.29999999999998 11.984257194707231
  endloop
endfacet
facet normal 0.005131457090804204 -9.39919080001618e-16 -0.9999868339873906
  outer loop
    vertex -311.8699590910402 88.29999999999998 11.987880680055227
    vertex -312.5760816556498 86.79999999999998 11.984257194707231
    vertex -312.5760816556498 88.29999999999998 11.984257194707231
  endloop
endfacet
facet normal 0.005131457090804204 -9.39919080001618e-16 -0.9999868339873906
  outer loop
    vertex -312.5760816556498 86.79999999999998 11.984257194707231
    vertex -311.8699590910402 88.29999999999998 11.987880680055227
    vertex -311.8699590910402 86.79999999999998 11.987880680055229
  endloop
endfacet
facet normal -0.15136412508325145 2.2287464005581333e-15 -0.9884780734228665
  outer loop
    vertex -311.1719632289521 88.29999999999998 11.880997648638218
    vertex -311.8699590910402 86.79999999999998 11.987880680055229
    vertex -311.8699590910402 88.29999999999998 11.987880680055227
  endloop
endfacet
facet normal -0.15136412508325145 2.2287464005581333e-15 -0.9884780734228665
  outer loop
    vertex -311.8699590910402 86.79999999999998 11.987880680055229
    vertex -311.1719632289521 88.29999999999998 11.880997648638218
    vertex -311.1719632289522 86.79999999999998 11.880997648638221
  endloop
endfacet
facet normal -0.304132620149003 5.56416466060079e-15 -0.9526297021200327
  outer loop
    vertex -311.1719632289521 88.29999999999998 11.880997648638218
    vertex -310.49928104402574 86.79999999999998 11.666239915414144
    vertex -311.1719632289522 86.79999999999998 11.880997648638221
  endloop
endfacet
facet normal -0.304132620149003 5.56416466060079e-15 -0.9526297021200327
  outer loop
    vertex -310.49928104402574 86.79999999999998 11.666239915414144
    vertex -311.1719632289521 88.29999999999998 11.880997648638218
    vertex -310.49928104402574 88.29999999999998 11.666239915414137
  endloop
endfacet
facet normal -0.44941236074838126 -4.6170656649929924e-15 -0.893324425954293
  outer loop
    vertex -309.868476204158 88.29999999999998 11.348895528515014
    vertex -310.49928104402574 86.79999999999998 11.666239915414144
    vertex -310.49928104402574 88.29999999999998 11.666239915414137
  endloop
endfacet
facet normal -0.44941236074838126 -4.6170656649929924e-15 -0.893324425954293
  outer loop
    vertex -310.49928104402574 86.79999999999998 11.666239915414144
    vertex -309.868476204158 88.29999999999998 11.348895528515014
    vertex -309.868476204158 86.79999999999998 11.348895528515023
  endloop
endfacet
facet normal -0.5836260775120501 -5.724144219634012e-15 -0.8120225376477544
  outer loop
    vertex -309.29508121802775 88.29999999999998 10.936778559951941
    vertex -309.868476204158 86.79999999999998 11.348895528515023
    vertex -309.868476204158 88.29999999999998 11.348895528515014
  endloop
endfacet
facet normal -0.5836260775120501 -5.724144219634012e-15 -0.8120225376477544
  outer loop
    vertex -309.868476204158 86.79999999999998 11.348895528515023
    vertex -309.29508121802775 88.29999999999998 10.936778559951941
    vertex -309.29508121802775 86.79999999999998 10.936778559951954
  endloop
endfacet
facet normal -0.7034689833034693 -6.363409244555311e-15 -0.7107259595160311
  outer loop
    vertex -308.79321497318233 88.29999999999998 10.440036697228745
    vertex -309.29508121802775 86.79999999999998 10.936778559951954
    vertex -309.29508121802775 88.29999999999998 10.936778559951941
  endloop
endfacet
facet normal -0.7034689833034693 -6.363409244555311e-15 -0.7107259595160311
  outer loop
    vertex -309.29508121802775 86.79999999999998 10.936778559951954
    vertex -308.79321497318233 88.29999999999998 10.440036697228745
    vertex -308.79321497318233 86.79999999999998 10.44003669722876
  endloop
endfacet
facet normal -0.8059901480463127 -6.109460377369226e-15 -0.5919289494967135
  outer loop
    vertex -308.79321497318233 88.29999999999998 10.440036697228745
    vertex -308.37523508216856 86.79999999999998 9.870901373597414
    vertex -308.79321497318233 86.79999999999998 10.44003669722876
  endloop
endfacet
facet normal -0.8059901480463127 -6.109460377369226e-15 -0.5919289494967135
  outer loop
    vertex -308.37523508216856 86.79999999999998 9.870901373597414
    vertex -308.79321497318233 88.29999999999998 10.440036697228745
    vertex -308.37523508216856 88.29999999999998 9.870901373597396
  endloop
endfacet
facet normal -0.8886651604161508 2.1554283636328224e-14 -0.4585566842414762
  outer loop
    vertex -308.37523508216856 88.29999999999998 9.870901373597396
    vertex -308.0514335970987 86.79999999999998 9.243386589577563
    vertex -308.37523508216856 86.79999999999998 9.870901373597414
  endloop
endfacet
facet normal -0.8886651604161508 2.1554283636328224e-14 -0.4585566842414762
  outer loop
    vertex -308.0514335970987 86.79999999999998 9.243386589577563
    vertex -308.37523508216856 88.29999999999998 9.870901373597396
    vertex -308.0514335970986 88.29999999999998 9.243386589577545
  endloop
endfacet
facet normal -0.9494582872261114 2.5027593962069396e-14 -0.3138932315575775
  outer loop
    vertex -308.0514335970986 88.29999999999998 9.243386589577545
    vertex -307.82978358517073 86.79999999999998 8.572943841753945
    vertex -308.0514335970987 86.79999999999998 9.243386589577563
  endloop
endfacet
facet normal -0.9494582872261114 2.5027593962069396e-14 -0.3138932315575775
  outer loop
    vertex -307.82978358517073 86.79999999999998 8.572943841753945
    vertex -308.0514335970986 88.29999999999998 9.243386589577545
    vertex -307.82978358517073 88.29999999999998 8.57294384175393
  endloop
endfacet
facet normal -0.9868725999331243 -1.8953373238939206e-15 -0.1615006857608838
  outer loop
    vertex -307.82978358517073 88.29999999999998 8.57294384175393
    vertex -307.71574280529273 86.79999999999998 7.876081655649892
    vertex -307.82978358517073 86.79999999999998 8.572943841753945
  endloop
endfacet
facet normal -0.9868725999331243 -1.8953373238939206e-15 -0.1615006857608838
  outer loop
    vertex -307.71574280529273 86.79999999999998 7.876081655649892
    vertex -307.82978358517073 88.29999999999998 8.57294384175393
    vertex -307.71574280529273 88.29999999999998 7.876081655649873
  endloop
endfacet
facet normal -0.9999868339873902 -6.269435523914901e-17 -0.005131457090898021
  outer loop
    vertex -307.71574280529273 88.29999999999998 7.876081655649873
    vertex -307.71211931994463 86.79999999999998 7.16995909104028
    vertex -307.71574280529273 86.79999999999998 7.876081655649892
  endloop
endfacet
facet normal -0.9999868339873902 -6.269435523914901e-17 -0.005131457090898021
  outer loop
    vertex -307.71211931994463 86.79999999999998 7.16995909104028
    vertex -307.71574280529273 88.29999999999998 7.876081655649873
    vertex -307.71211931994463 88.29999999999998 7.169959091040262
  endloop
endfacet
facet normal -0.9884780734228613 1.8493141539207114e-15 0.1513641250832858
  outer loop
    vertex -307.71211931994463 88.29999999999998 7.169959091040262
    vertex -307.8190023513617 86.79999999999998 6.4719632289522355
    vertex -307.71211931994463 86.79999999999998 7.16995909104028
  endloop
endfacet
facet normal -0.9884780734228613 1.8493141539207114e-15 0.1513641250832858
  outer loop
    vertex -307.8190023513617 86.79999999999998 6.4719632289522355
    vertex -307.71211931994463 88.29999999999998 7.169959091040262
    vertex -307.8190023513617 88.29999999999998 6.471963228952217
  endloop
endfacet
facet normal -0.9526297021200327 3.573962502266863e-15 0.3041326201490032
  outer loop
    vertex -307.8190023513617 88.29999999999998 6.471963228952217
    vertex -308.03376008458577 86.79999999999998 5.799281044025818
    vertex -307.8190023513617 86.79999999999998 6.4719632289522355
  endloop
endfacet
facet normal -0.9526297021200327 3.573962502266863e-15 0.3041326201490032
  outer loop
    vertex -308.03376008458577 86.79999999999998 5.799281044025818
    vertex -307.8190023513617 88.29999999999998 6.471963228952217
    vertex -308.03376008458577 88.29999999999998 5.799281044025801
  endloop
endfacet
facet normal -0.8933244259542639 4.757264710631022e-15 0.4494123607484388
  outer loop
    vertex -308.03376008458577 88.29999999999998 5.799281044025801
    vertex -308.3511044714849 86.79999999999998 5.168476204158095
    vertex -308.03376008458577 86.79999999999998 5.799281044025818
  endloop
endfacet
facet normal -0.8933244259542639 4.757264710631022e-15 0.4494123607484388
  outer loop
    vertex -308.3511044714849 86.79999999999998 5.168476204158095
    vertex -308.03376008458577 88.29999999999998 5.799281044025801
    vertex -308.3511044714849 88.29999999999998 5.16847620415808
  endloop
endfacet
facet normal -0.8120225376477459 5.6245990721817874e-15 0.583626077512062
  outer loop
    vertex -308.3511044714849 88.29999999999998 5.16847620415808
    vertex -308.76322144004797 86.79999999999998 4.595081218027847
    vertex -308.3511044714849 86.79999999999998 5.168476204158095
  endloop
endfacet
facet normal -0.8120225376477459 5.6245990721817874e-15 0.583626077512062
  outer loop
    vertex -308.76322144004797 86.79999999999998 4.595081218027847
    vertex -308.3511044714849 88.29999999999998 5.16847620415808
    vertex -308.76322144004797 88.29999999999998 4.595081218027833
  endloop
endfacet
facet normal -0.7107259595160537 5.948521642513281e-15 0.7034689833034466
  outer loop
    vertex -308.76322144004797 88.29999999999998 4.595081218027833
    vertex -309.25996330277115 86.79999999999998 4.093214973182454
    vertex -308.76322144004797 86.79999999999998 4.595081218027847
  endloop
endfacet
facet normal -0.7107259595160537 5.948521642513281e-15 0.7034689833034466
  outer loop
    vertex -309.25996330277115 86.79999999999998 4.093214973182454
    vertex -308.76322144004797 88.29999999999998 4.595081218027833
    vertex -309.25996330277115 88.29999999999998 4.093214973182444
  endloop
endfacet
facet normal -0.591928949496795 5.6816204392374225e-15 0.8059901480462531
  outer loop
    vertex -309.25996330277115 86.79999999999998 4.093214973182454
    vertex -309.8290986264025 88.29999999999998 3.6752350821685784
    vertex -309.8290986264025 86.79999999999998 3.675235082168588
  endloop
endfacet
facet normal -0.591928949496795 5.6816204392374225e-15 0.8059901480462531
  outer loop
    vertex -309.8290986264025 88.29999999999998 3.6752350821685784
    vertex -309.25996330277115 86.79999999999998 4.093214973182454
    vertex -309.25996330277115 88.29999999999998 4.093214973182444
  endloop
endfacet
facet normal -0.4585566842413872 -8.992192254560449e-15 0.8886651604161968
  outer loop
    vertex -310.45661341042234 86.79999999999998 3.3514335970987332
    vertex -309.8290986264025 88.29999999999998 3.6752350821685784
    vertex -310.4566134104224 88.29999999999998 3.351433597098727
  endloop
endfacet
facet normal -0.4585566842413872 -8.992192254560449e-15 0.8886651604161968
  outer loop
    vertex -309.8290986264025 88.29999999999998 3.6752350821685784
    vertex -310.45661341042234 86.79999999999998 3.3514335970987332
    vertex -309.8290986264025 86.79999999999998 3.675235082168588
  endloop
endfacet
facet normal -0.31389323155759086 -1.564295753614554e-14 0.9494582872261069
  outer loop
    vertex -311.127056158246 86.79999999999998 3.129783585170828
    vertex -310.4566134104224 88.29999999999998 3.351433597098727
    vertex -311.12705615824603 88.29999999999998 3.129783585170824
  endloop
endfacet
facet normal -0.31389323155759086 -1.564295753614554e-14 0.9494582872261069
  outer loop
    vertex -310.4566134104224 88.29999999999998 3.351433597098727
    vertex -311.127056158246 86.79999999999998 3.129783585170828
    vertex -310.45661341042234 86.79999999999998 3.3514335970987332
  endloop
endfacet
facet normal -0.16150068576095494 -8.20801456560041e-15 0.9868725999331126
  outer loop
    vertex -311.82391834435 86.79999999999998 3.0157428052927533
    vertex -311.12705615824603 88.29999999999998 3.129783585170824
    vertex -311.82391834435003 88.29999999999998 3.0157428052927524
  endloop
endfacet
facet normal -0.16150068576095494 -8.20801456560041e-15 0.9868725999331126
  outer loop
    vertex -311.12705615824603 88.29999999999998 3.129783585170824
    vertex -311.82391834435 86.79999999999998 3.0157428052927533
    vertex -311.127056158246 86.79999999999998 3.129783585170828
  endloop
endfacet
facet normal -0.005131457090803875 -6.243025137737449e-16 0.9999868339873906
  outer loop
    vertex -311.82391834435 86.79999999999998 3.0157428052927533
    vertex -312.5300409089597 88.29999999999998 3.012119319944757
    vertex -312.5300409089597 86.79999999999998 3.012119319944755
  endloop
endfacet
facet normal -0.005131457090803875 -6.243025137737449e-16 0.9999868339873906
  outer loop
    vertex -312.5300409089597 88.29999999999998 3.012119319944757
    vertex -311.82391834435 86.79999999999998 3.0157428052927533
    vertex -311.82391834435003 88.29999999999998 3.0157428052927524
  endloop
endfacet
facet normal 0.15136412508324998 2.2325876476234625e-15 0.9884780734228668
  outer loop
    vertex -313.22803677104764 86.79999999999998 3.1190023513617606
    vertex -312.5300409089597 88.29999999999998 3.012119319944757
    vertex -313.2280367710477 88.29999999999998 3.1190023513617655
  endloop
endfacet
facet normal 0.15136412508324998 2.2325876476234625e-15 0.9884780734228668
  outer loop
    vertex -312.5300409089597 88.29999999999998 3.012119319944757
    vertex -313.22803677104764 86.79999999999998 3.1190023513617606
    vertex -312.5300409089597 86.79999999999998 3.012119319944755
  endloop
endfacet
facet normal 0.3041326201490039 5.342048289218801e-15 0.9526297021200324
  outer loop
    vertex -313.22803677104764 86.79999999999998 3.1190023513617606
    vertex -313.90071895597407 88.29999999999998 3.3337600845858475
    vertex -313.90071895597407 86.79999999999998 3.3337600845858404
  endloop
endfacet
facet normal 0.3041326201490039 5.342048289218801e-15 0.9526297021200324
  outer loop
    vertex -313.90071895597407 88.29999999999998 3.3337600845858475
    vertex -313.22803677104764 86.79999999999998 3.1190023513617606
    vertex -313.2280367710477 88.29999999999998 3.1190023513617655
  endloop
endfacet
facet normal 0.44941236074838165 -4.832297297496424e-15 0.8933244259542927
  outer loop
    vertex -313.90071895597407 86.79999999999998 3.3337600845858404
    vertex -314.53152379584185 88.29999999999998 3.6511044714849703
    vertex -314.53152379584185 86.79999999999998 3.6511044714849614
  endloop
endfacet
facet normal 0.44941236074838165 -4.832297297496424e-15 0.8933244259542927
  outer loop
    vertex -314.53152379584185 88.29999999999998 3.6511044714849703
    vertex -313.90071895597407 86.79999999999998 3.3337600845858404
    vertex -313.90071895597407 88.29999999999998 3.3337600845858475
  endloop
endfacet
facet normal 0.5836260775120501 -5.724144219634012e-15 0.8120225376477544
  outer loop
    vertex -314.53152379584185 86.79999999999998 3.6511044714849614
    vertex -315.1049187819721 88.29999999999998 4.063221440048043
    vertex -315.1049187819721 86.79999999999998 4.063221440048031
  endloop
endfacet
facet normal 0.5836260775120501 -5.724144219634012e-15 0.8120225376477544
  outer loop
    vertex -315.1049187819721 88.29999999999998 4.063221440048043
    vertex -314.53152379584185 86.79999999999998 3.6511044714849614
    vertex -314.53152379584185 88.29999999999998 3.6511044714849703
  endloop
endfacet
facet normal 0.7034689833034684 -6.352361659061301e-15 0.7107259595160321
  outer loop
    vertex -315.1049187819721 86.79999999999998 4.063221440048031
    vertex -315.60678502681753 88.29999999999998 4.559963302771237
    vertex -315.60678502681753 86.79999999999998 4.559963302771223
  endloop
endfacet
facet normal 0.7034689833034684 -6.352361659061301e-15 0.7107259595160321
  outer loop
    vertex -315.60678502681753 88.29999999999998 4.559963302771237
    vertex -315.1049187819721 86.79999999999998 4.063221440048031
    vertex -315.1049187819721 88.29999999999998 4.063221440048043
  endloop
endfacet
facet normal 0.8059901480463134 -6.109460377369215e-15 0.5919289494967126
  outer loop
    vertex -315.60678502681753 88.29999999999998 4.559963302771237
    vertex -316.0247649178313 86.79999999999998 5.129098626402571
    vertex -315.60678502681753 86.79999999999998 4.559963302771223
  endloop
endfacet
facet normal 0.8059901480463134 -6.109460377369215e-15 0.5919289494967126
  outer loop
    vertex -316.0247649178313 86.79999999999998 5.129098626402571
    vertex -315.60678502681753 88.29999999999998 4.559963302771237
    vertex -316.0247649178313 88.29999999999998 5.129098626402587
  endloop
endfacet
facet normal 0.8886651604161503 2.1675456994059277e-14 0.4585566842414772
  outer loop
    vertex -316.0247649178313 88.29999999999998 5.129098626402587
    vertex -316.34856640290116 86.79999999999998 5.75661341042242
    vertex -316.0247649178313 86.79999999999998 5.129098626402571
  endloop
endfacet
facet normal 0.8886651604161503 2.1675456994059277e-14 0.4585566842414772
  outer loop
    vertex -316.34856640290116 86.79999999999998 5.75661341042242
    vertex -316.0247649178313 88.29999999999998 5.129098626402587
    vertex -316.34856640290127 88.29999999999998 5.756613410422437
  endloop
endfacet
facet normal 0.9494582872261116 2.5027593962069415e-14 0.313893231557577
  outer loop
    vertex -316.34856640290127 88.29999999999998 5.756613410422437
    vertex -316.5702164148291 86.79999999999998 6.427056158246038
    vertex -316.34856640290116 86.79999999999998 5.75661341042242
  endloop
endfacet
facet normal 0.9494582872261116 2.5027593962069415e-14 0.313893231557577
  outer loop
    vertex -316.5702164148291 86.79999999999998 6.427056158246038
    vertex -316.34856640290127 88.29999999999998 5.756613410422437
    vertex -316.5702164148291 88.29999999999998 6.427056158246055
  endloop
endfacet
facet normal 0.9868725999331243 -1.8953373238939206e-15 0.1615006857608838
  outer loop
    vertex -316.5702164148291 88.29999999999998 6.427056158246055
    vertex -316.68425719470713 86.79999999999998 7.123918344350092
    vertex -316.5702164148291 86.79999999999998 6.427056158246038
  endloop
endfacet
facet normal 0.9868725999331243 -1.8953373238939206e-15 0.1615006857608838
  outer loop
    vertex -316.68425719470713 86.79999999999998 7.123918344350092
    vertex -316.5702164148291 88.29999999999998 6.427056158246055
    vertex -316.68425719470713 88.29999999999998 7.12391834435011
  endloop
endfacet
facet normal 0.9999868339873902 -6.269435523914901e-17 0.005131457090898021
  outer loop
    vertex -316.68425719470713 88.29999999999998 7.12391834435011
    vertex -316.6878806800552 86.79999999999998 7.830040908959704
    vertex -316.68425719470713 86.79999999999998 7.123918344350092
  endloop
endfacet
facet normal 0.9999868339873902 -6.269435523914901e-17 0.005131457090898021
  outer loop
    vertex -316.6878806800552 86.79999999999998 7.830040908959704
    vertex -316.68425719470713 88.29999999999998 7.12391834435011
    vertex -316.6878806800552 88.29999999999998 7.830040908959722
  endloop
endfacet
facet normal 0.9884780734228613 1.8493141539207114e-15 -0.1513641250832858
  outer loop
    vertex -316.6878806800552 88.29999999999998 7.830040908959722
    vertex -316.5809976486382 86.79999999999998 8.528036771047748
    vertex -316.6878806800552 86.79999999999998 7.830040908959704
  endloop
endfacet
facet normal 0.9884780734228613 1.8493141539207114e-15 -0.1513641250832858
  outer loop
    vertex -316.5809976486382 86.79999999999998 8.528036771047748
    vertex -316.6878806800552 88.29999999999998 7.830040908959722
    vertex -316.5809976486382 88.29999999999998 8.528036771047766
  endloop
endfacet
facet normal 0.9526297021200327 3.573962502266863e-15 -0.3041326201490032
  outer loop
    vertex -316.5809976486382 88.29999999999998 8.528036771047766
    vertex -316.3662399154141 86.79999999999998 9.200718955974166
    vertex -316.5809976486382 86.79999999999998 8.528036771047748
  endloop
endfacet
facet normal 0.9526297021200327 3.573962502266863e-15 -0.3041326201490032
  outer loop
    vertex -316.3662399154141 86.79999999999998 9.200718955974166
    vertex -316.5809976486382 88.29999999999998 8.528036771047766
    vertex -316.3662399154141 88.29999999999998 9.200718955974182
  endloop
endfacet
facet normal 0.8933244259542635 4.645493439896672e-15 -0.44941236074843943
  outer loop
    vertex -316.3662399154141 88.29999999999998 9.200718955974182
    vertex -316.04889552851495 86.79999999999998 9.831523795841887
    vertex -316.3662399154141 86.79999999999998 9.200718955974166
  endloop
endfacet
facet normal 0.8933244259542635 4.645493439896672e-15 -0.44941236074843943
  outer loop
    vertex -316.04889552851495 86.79999999999998 9.831523795841887
    vertex -316.3662399154141 88.29999999999998 9.200718955974182
    vertex -316.04889552851495 88.29999999999998 9.831523795841902
  endloop
endfacet
facet normal 0.8120225376477461 5.4794481283835395e-15 -0.5836260775120613
  outer loop
    vertex -316.04889552851495 88.29999999999998 9.831523795841902
    vertex -315.63677855995184 86.79999999999998 10.404918781972137
    vertex -316.04889552851495 86.79999999999998 9.831523795841887
  endloop
endfacet
facet normal 0.8120225376477461 5.4794481283835395e-15 -0.5836260775120613
  outer loop
    vertex -315.63677855995184 86.79999999999998 10.404918781972137
    vertex -316.04889552851495 88.29999999999998 9.831523795841902
    vertex -315.63677855995184 88.29999999999998 10.404918781972151
  endloop
endfacet
facet normal 0.7107259595160537 5.948521642513281e-15 -0.7034689833034466
  outer loop
    vertex -315.63677855995184 88.29999999999998 10.404918781972151
    vertex -315.1400366972287 86.79999999999998 10.906785026817529
    vertex -315.63677855995184 86.79999999999998 10.404918781972137
  endloop
endfacet
facet normal 0.7107259595160537 5.948521642513281e-15 -0.7034689833034466
  outer loop
    vertex -315.1400366972287 86.79999999999998 10.906785026817529
    vertex -315.63677855995184 88.29999999999998 10.404918781972151
    vertex -315.1400366972287 88.29999999999998 10.906785026817541
  endloop
endfacet
endsolid Motion_Detection_via_LoRa
