solid Motion_Detection_via_LoRa
facet normal 0.9914448613738105 0.13052619222005202 1.8260193308087075e-16
  outer loop
    vertex -9.043795264506471 -5.017638090205034 -0.8880563880716643
    vertex -9.111943611928334 -4.499999999999998 2.111943611928375
    vertex -9.043795264506471 -5.017638090205039 2.111943611928375
  endloop
endfacet
facet normal 0.9914448613738105 0.13052619222005202 1.8260193308087075e-16
  outer loop
    vertex -9.111943611928334 -4.499999999999998 2.111943611928375
    vertex -9.043795264506471 -5.017638090205034 -0.8880563880716643
    vertex -9.111943611928334 -4.499999999999994 -0.8880563880716643
  endloop
endfacet
facet normal 0.0 -0.46879702519404703 0.8833059204880335
  outer loop
    vertex 0.8880563880716629 -7.708146373569385 14.193537613378409
    vertex -2.1119436119283375 -6.9622144504490215 14.589426125438754
    vertex -2.1119436119283375 -7.708146373569385 14.193537613378409
  endloop
endfacet
facet normal 0.0 -0.46879702519404703 0.8833059204880335
  outer loop
    vertex -2.1119436119283375 -6.9622144504490215 14.589426125438754
    vertex 0.8880563880716629 -7.708146373569385 14.193537613378409
    vertex 0.8880563880716629 -6.9622144504490215 14.589426125438754
  endloop
endfacet
facet normal 0.0 -0.06964762397815635 0.9975716558093446
  outer loop
    vertex 0.8880563880716629 -5.342426758848276 15.053127764678056
    vertex -2.1119436119283375 -4.499999999999992 15.111943611928448
    vertex -2.1119436119283375 -5.342426758848276 15.053127764678056
  endloop
endfacet
facet normal 0.0 -0.06964762397815635 0.9975716558093446
  outer loop
    vertex -2.1119436119283375 -4.499999999999992 15.111943611928448
    vertex 0.8880563880716629 -5.342426758848276 15.053127764678056
    vertex 0.8880563880716629 -4.499999999999992 15.111943611928448
  endloop
endfacet
facet normal 0.0 0.0 -1.0
  outer loop
    vertex -9.111943611928337 0.0 -0.8880563880716643
    vertex -9.043795264506471 -3.9823619097949527 -0.8880563880716643
    vertex -9.111943611928334 -4.499999999999994 -0.8880563880716643
  endloop
endfacet
facet normal 0.0 0.0 -1.0
  outer loop
    vertex -9.043795264506471 -3.9823619097949527 -0.8880563880716643
    vertex -9.111943611928337 0.0 -0.8880563880716643
    vertex -8.843994419497214 -3.499999999999995 -0.8880563880716643
  endloop
endfacet
facet normal 0.0 0.0 -1.0
  outer loop
    vertex -8.843994419497214 -3.499999999999995 -0.8880563880716643
    vertex -9.111943611928337 0.0 -0.8880563880716643
    vertex -8.526157174301428 -3.0857864376268966 -0.8880563880716643
  endloop
endfacet
facet normal 0.0 0.0 -1.0
  outer loop
    vertex -8.526157174301428 -3.0857864376268966 -0.8880563880716643
    vertex -9.111943611928337 0.0 -0.8880563880716643
    vertex -8.111943611928334 -2.767949192431115 -0.8880563880716643
  endloop
endfacet
facet normal 0.0 0.0 -1.0
  outer loop
    vertex -8.111943611928334 -2.767949192431115 -0.8880563880716643
    vertex -9.111943611928337 0.0 -0.8880563880716643
    vertex -7.629581702133375 -2.568148347421856 -0.8880563880716643
  endloop
endfacet
facet normal 0.0 0.0 -1.0
  outer loop
    vertex -7.629581702133375 -2.568148347421856 -0.8880563880716643
    vertex -9.111943611928337 0.0 -0.8880563880716643
    vertex 0.8880563880716629 0.0 -0.8880563880716643
  endloop
endfacet
facet normal 0.0 0.0 -1.0
  outer loop
    vertex -7.629581702133375 -2.568148347421856 -0.8880563880716643
    vertex 0.8880563880716629 0.0 -0.8880563880716643
    vertex -7.111943611928335 -2.4999999999999925 -0.8880563880716643
  endloop
endfacet
facet normal 0.0 0.0 -1.0
  outer loop
    vertex -7.111943611928335 -2.4999999999999925 -0.8880563880716643
    vertex 0.8880563880716629 0.0 -0.8880563880716643
    vertex -6.594305521723292 -2.568148347421856 -0.8880563880716643
  endloop
endfacet
facet normal 0.0 0.0 -1.0
  outer loop
    vertex -6.594305521723292 -2.568148347421856 -0.8880563880716643
    vertex 0.8880563880716629 0.0 -0.8880563880716643
    vertex -6.111943611928333 -2.767949192431115 -0.8880563880716643
  endloop
endfacet
facet normal 0.0 0.0 -1.0
  outer loop
    vertex -6.111943611928333 -2.767949192431115 -0.8880563880716643
    vertex 0.8880563880716629 0.0 -0.8880563880716643
    vertex -5.697730049555239 -3.0857864376268975 -0.8880563880716643
  endloop
endfacet
facet normal 0.0 0.0 -1.0
  outer loop
    vertex -5.697730049555239 -3.0857864376268975 -0.8880563880716643
    vertex 0.8880563880716629 0.0 -0.8880563880716643
    vertex -5.379892804359457 -3.499999999999992 -0.8880563880716643
  endloop
endfacet
facet normal 0.0 0.0 -1.0
  outer loop
    vertex -5.379892804359457 -3.499999999999992 -0.8880563880716643
    vertex 0.8880563880716629 0.0 -0.8880563880716643
    vertex -5.1800919593501975 -3.982361909794951 -0.8880563880716643
  endloop
endfacet
facet normal 0.0 0.0 -1.0
  outer loop
    vertex -5.1800919593501975 -3.982361909794951 -0.8880563880716643
    vertex 0.8880563880716629 0.0 -0.8880563880716643
    vertex -5.111943611928334 -4.499999999999993 -0.8880563880716643
  endloop
endfacet
facet normal 0.0 0.0 -1.0
  outer loop
    vertex -11.053127764677908 -3.657573241151718 -0.8880563880716643
    vertex -11.053127764677908 -5.342426758848276 -0.8880563880716643
    vertex -11.111943611928334 -4.499999999999992 -0.8880563880716643
  endloop
endfacet
facet normal 0.0 0.0 -1.0
  outer loop
    vertex -11.053127764677908 -5.342426758848276 -0.8880563880716643
    vertex -11.053127764677908 -3.657573241151718 -0.8880563880716643
    vertex -10.877821436580337 -2.8314922286351862 -0.8880563880716643
  endloop
endfacet
facet normal 0.0 0.0 -1.0
  outer loop
    vertex -11.053127764677908 -5.342426758848276 -0.8880563880716643
    vertex -10.877821436580337 -2.8314922286351862 -0.8880563880716643
    vertex -10.877821436580334 -6.168507771364808 -0.8880563880716643
  endloop
endfacet
facet normal 0.0 0.0 -1.0
  outer loop
    vertex -10.877821436580334 -6.168507771364808 -0.8880563880716643
    vertex -10.877821436580337 -2.8314922286351862 -0.8880563880716643
    vertex -10.589426125438642 -2.0377855495509727 -0.8880563880716643
  endloop
endfacet
facet normal 0.0 0.0 -1.0
  outer loop
    vertex -10.877821436580334 -6.168507771364808 -0.8880563880716643
    vertex -10.589426125438642 -2.0377855495509727 -0.8880563880716643
    vertex -10.58942612543864 -6.9622144504490215 -0.8880563880716643
  endloop
endfacet
facet normal 0.0 0.0 -1.0
  outer loop
    vertex -10.58942612543864 -6.9622144504490215 -0.8880563880716643
    vertex -10.589426125438642 -2.0377855495509727 -0.8880563880716643
    vertex -10.193537613378304 -1.291853626430609 -0.8880563880716643
  endloop
endfacet
facet normal 0.0 0.0 -1.0
  outer loop
    vertex -10.58942612543864 -6.9622144504490215 -0.8880563880716643
    vertex -10.193537613378304 -1.291853626430609 -0.8880563880716643
    vertex -10.1935376133783 -7.708146373569385 -0.8880563880716643
  endloop
endfacet
facet normal 0.0 0.0 -1.0
  outer loop
    vertex -10.1935376133783 -7.708146373569385 -0.8880563880716643
    vertex -10.193537613378304 -1.291853626430609 -0.8880563880716643
    vertex -9.697837390957186 -0.6081699002800836 -0.8880563880716643
  endloop
endfacet
facet normal 0.0 0.0 -1.0
  outer loop
    vertex -10.1935376133783 -7.708146373569385 -0.8880563880716643
    vertex -9.697837390957186 -0.6081699002800836 -0.8880563880716643
    vertex -9.697837390957181 -8.3918300997199 -0.8880563880716643
  endloop
endfacet
facet normal 0.0 0.0 -1.0
  outer loop
    vertex -9.697837390957181 -8.3918300997199 -0.8880563880716643
    vertex -9.697837390957186 -0.6081699002800836 -0.8880563880716643
    vertex -9.111943611928337 0.0 -0.8880563880716643
  endloop
endfacet
facet normal 0.0 0.0 -1.0
  outer loop
    vertex -9.697837390957181 -8.3918300997199 -0.8880563880716643
    vertex -9.111943611928337 0.0 -0.8880563880716643
    vertex -9.111943611928332 -8.999999999999995 -0.8880563880716643
  endloop
endfacet
facet normal 0.0 0.0 -1.0
  outer loop
    vertex -9.111943611928332 -8.999999999999995 -0.8880563880716643
    vertex -9.111943611928337 0.0 -0.8880563880716643
    vertex -9.111943611928334 -4.499999999999994 -0.8880563880716643
  endloop
endfacet
facet normal 0.0 0.0 -1.0
  outer loop
    vertex -9.111943611928332 -8.999999999999995 -0.8880563880716643
    vertex -9.111943611928334 -4.499999999999994 -0.8880563880716643
    vertex -9.043795264506471 -5.017638090205034 -0.8880563880716643
  endloop
endfacet
facet normal 0.0 0.0 -1.0
  outer loop
    vertex -9.111943611928332 -8.999999999999995 -0.8880563880716643
    vertex -9.043795264506471 -5.017638090205034 -0.8880563880716643
    vertex -8.84399441949721 -5.499999999999992 -0.8880563880716643
  endloop
endfacet
facet normal 0.0 0.0 -1.0
  outer loop
    vertex -9.111943611928332 -8.999999999999995 -0.8880563880716643
    vertex -8.84399441949721 -5.499999999999992 -0.8880563880716643
    vertex -8.526157174301428 -5.914213562373086 -0.8880563880716643
  endloop
endfacet
facet normal 0.0 0.0 -1.0
  outer loop
    vertex -9.111943611928332 -8.999999999999995 -0.8880563880716643
    vertex -8.526157174301428 -5.914213562373086 -0.8880563880716643
    vertex -8.111943611928336 -6.232050807568869 -0.8880563880716643
  endloop
endfacet
facet normal 0.0 0.0 -1.0
  outer loop
    vertex -9.111943611928332 -8.999999999999995 -0.8880563880716643
    vertex -8.111943611928336 -6.232050807568869 -0.8880563880716643
    vertex -7.629581702133378 -6.4318516525781275 -0.8880563880716643
  endloop
endfacet
facet normal 0.0 0.0 -1.0
  outer loop
    vertex -9.111943611928332 -8.999999999999995 -0.8880563880716643
    vertex -7.629581702133378 -6.4318516525781275 -0.8880563880716643
    vertex 0.8880563880716629 -8.999999999999995 -0.8880563880716643
  endloop
endfacet
facet normal 0.0 0.0 -1.0
  outer loop
    vertex 0.8880563880716629 -8.999999999999995 -0.8880563880716643
    vertex -7.629581702133378 -6.4318516525781275 -0.8880563880716643
    vertex -7.111943611928335 -6.499999999999991 -0.8880563880716643
  endloop
endfacet
facet normal 0.0 0.0 -1.0
  outer loop
    vertex 0.8880563880716629 -8.999999999999995 -0.8880563880716643
    vertex -7.111943611928335 -6.499999999999991 -0.8880563880716643
    vertex -6.594305521723295 -6.431851652578128 -0.8880563880716643
  endloop
endfacet
facet normal 0.0 0.0 -1.0
  outer loop
    vertex 0.8880563880716629 -8.999999999999995 -0.8880563880716643
    vertex -6.594305521723295 -6.431851652578128 -0.8880563880716643
    vertex -6.111943611928337 -6.2320508075688705 -0.8880563880716643
  endloop
endfacet
facet normal 0.0 0.0 -1.0
  outer loop
    vertex 0.8880563880716629 -8.999999999999995 -0.8880563880716643
    vertex -6.111943611928337 -6.2320508075688705 -0.8880563880716643
    vertex -5.69773004955524 -5.914213562373088 -0.8880563880716643
  endloop
endfacet
facet normal 0.0 0.0 -1.0
  outer loop
    vertex 0.8880563880716629 -8.999999999999995 -0.8880563880716643
    vertex -5.69773004955524 -5.914213562373088 -0.8880563880716643
    vertex -5.379892804359457 -5.499999999999993 -0.8880563880716643
  endloop
endfacet
facet normal 0.0 0.0 -1.0
  outer loop
    vertex 0.8880563880716629 -8.999999999999995 -0.8880563880716643
    vertex -5.379892804359457 -5.499999999999993 -0.8880563880716643
    vertex -5.1800919593501975 -5.0176380902050335 -0.8880563880716643
  endloop
endfacet
facet normal 0.0 0.0 -1.0
  outer loop
    vertex 0.8880563880716629 -8.999999999999995 -0.8880563880716643
    vertex -5.1800919593501975 -5.0176380902050335 -0.8880563880716643
    vertex -5.111943611928334 -4.499999999999993 -0.8880563880716643
  endloop
endfacet
facet normal 0.0 0.0 -1.0
  outer loop
    vertex 0.8880563880716629 -8.999999999999995 -0.8880563880716643
    vertex -5.111943611928334 -4.499999999999993 -0.8880563880716643
    vertex 0.8880563880716629 0.0 -0.8880563880716643
  endloop
endfacet
facet normal -0.13052619222005082 0.9914448613738105 -1.1135833001144906e-16
  outer loop
    vertex -7.111943611928332 -6.499999999999991 2.111943611928375
    vertex -6.594305521723295 -6.431851652578128 -0.8880563880716643
    vertex -7.111943611928335 -6.499999999999991 -0.8880563880716643
  endloop
endfacet
facet normal -0.13052619222005082 0.9914448613738105 -1.1135833001144906e-16
  outer loop
    vertex -6.594305521723295 -6.431851652578128 -0.8880563880716643
    vertex -7.111943611928332 -6.499999999999991 2.111943611928375
    vertex -6.594305521723292 -6.4318516525781275 2.111943611928375
  endloop
endfacet
facet normal 0.0 0.20759148751788387 0.9782156072717877
  outer loop
    vertex 0.8880563880716629 -3.657573241151718 15.053127764678056
    vertex -2.1119436119283375 -2.831492228635175 14.877821436580447
    vertex -2.1119436119283375 -3.657573241151718 15.053127764678056
  endloop
endfacet
facet normal 0.0 0.20759148751788387 0.9782156072717877
  outer loop
    vertex -2.1119436119283375 -2.831492228635175 14.877821436580447
    vertex 0.8880563880716629 -3.657573241151718 15.053127764678056
    vertex 0.8880563880716629 -2.831492228635175 14.877821436580447
  endloop
endfacet
facet normal 0.0 0.46879702519399974 0.8833059204880586
  outer loop
    vertex 0.8880563880716629 -2.0377855495509727 14.589426125438754
    vertex -2.1119436119283375 -1.2918536264305978 14.193537613378455
    vertex -2.1119436119283375 -2.0377855495509727 14.589426125438754
  endloop
endfacet
facet normal 0.0 0.46879702519399974 0.8833059204880586
  outer loop
    vertex -2.1119436119283375 -1.2918536264305978 14.193537613378455
    vertex 0.8880563880716629 -2.0377855495509727 14.589426125438754
    vertex 0.8880563880716629 -1.2918536264305978 14.193537613378455
  endloop
endfacet
facet normal 0.608761429008721 0.7933533402912349 -1.1265145185650148e-16
  outer loop
    vertex -8.526157174301424 -5.9142135623730905 2.111943611928375
    vertex -8.111943611928336 -6.232050807568869 -0.8880563880716643
    vertex -8.526157174301428 -5.914213562373086 -0.8880563880716643
  endloop
endfacet
facet normal 0.608761429008721 0.7933533402912349 -1.1265145185650148e-16
  outer loop
    vertex -8.111943611928336 -6.232050807568869 -0.8880563880716643
    vertex -8.526157174301424 -5.9142135623730905 2.111943611928375
    vertex -8.11194361192833 -6.2320508075688705 2.111943611928375
  endloop
endfacet
facet normal 0.793353340291236 -0.6087614290087194 -2.704179571659546e-16
  outer loop
    vertex -8.843994419497214 -3.499999999999995 -0.8880563880716643
    vertex -8.526157174301431 -3.0857864376268993 2.111943611928375
    vertex -8.843994419497214 -3.4999999999999987 2.111943611928375
  endloop
endfacet
facet normal 0.793353340291236 -0.6087614290087194 -2.704179571659546e-16
  outer loop
    vertex -8.526157174301431 -3.0857864376268993 2.111943611928375
    vertex -8.843994419497214 -3.499999999999995 -0.8880563880716643
    vertex -8.526157174301428 -3.0857864376268966 -0.8880563880716643
  endloop
endfacet
facet normal 0.0 0.34150741894357023 0.9398790788215796
  outer loop
    vertex 0.8880563880716629 -2.831492228635175 14.877821436580447
    vertex -2.1119436119283375 -2.0377855495509727 14.589426125438754
    vertex -2.1119436119283375 -2.831492228635175 14.877821436580447
  endloop
endfacet
facet normal 0.0 0.34150741894357023 0.9398790788215796
  outer loop
    vertex -2.1119436119283375 -2.0377855495509727 14.589426125438754
    vertex 0.8880563880716629 -2.831492228635175 14.877821436580447
    vertex 0.8880563880716629 -2.0377855495509727 14.589426125438754
  endloop
endfacet
facet normal 0.0 0.5869904848959947 0.8095938306592789
  outer loop
    vertex 0.8880563880716629 -1.2918536264305978 14.193537613378455
    vertex -2.1119436119283375 -0.6081699002800836 13.697837390957309
    vertex -2.1119436119283375 -1.2918536264305978 14.193537613378455
  endloop
endfacet
facet normal 0.0 0.5869904848959947 0.8095938306592789
  outer loop
    vertex -2.1119436119283375 -0.6081699002800836 13.697837390957309
    vertex 0.8880563880716629 -1.2918536264305978 14.193537613378455
    vertex 0.8880563880716629 -0.6081699002800836 13.697837390957309
  endloop
endfacet
facet normal 0.0 -1.0 0.0
  outer loop
    vertex 0.8880563880716629 -8.999999999999995 -0.8880563880716643
    vertex -2.1119436119283357 -8.999999999999995 2.1119436119283765
    vertex -9.111943611928332 -8.999999999999995 -0.8880563880716643
  endloop
endfacet
facet normal 0.0 -1.0 0.0
  outer loop
    vertex -2.1119436119283357 -8.999999999999995 2.1119436119283765
    vertex 0.8880563880716629 -8.999999999999995 -0.8880563880716643
    vertex 0.8880563880716629 -8.999999999999995 13.111943611928451
  endloop
endfacet
facet normal 0.0 -1.0 0.0
  outer loop
    vertex -9.111943611928332 -8.999999999999995 -0.8880563880716643
    vertex -2.1119436119283357 -8.999999999999995 2.1119436119283765
    vertex -9.111943611928332 -8.999999999999995 2.111943611928375
  endloop
endfacet
facet normal 0.0 -1.0 0.0
  outer loop
    vertex -2.1119436119283357 -8.999999999999995 2.1119436119283765
    vertex 0.8880563880716629 -8.999999999999995 13.111943611928451
    vertex -2.1119436119283375 -8.999999999999995 13.111943611928451
  endloop
endfacet
facet normal 0.0 -0.34150741894356584 0.9398790788215811
  outer loop
    vertex 0.8880563880716629 -6.9622144504490215 14.589426125438754
    vertex -2.1119436119283375 -6.168507771364808 14.877821436580447
    vertex -2.1119436119283375 -6.9622144504490215 14.589426125438754
  endloop
endfacet
facet normal 0.0 -0.34150741894356584 0.9398790788215811
  outer loop
    vertex -2.1119436119283375 -6.168507771364808 14.877821436580447
    vertex 0.8880563880716629 -6.9622144504490215 14.589426125438754
    vertex 0.8880563880716629 -6.168507771364808 14.877821436580447
  endloop
endfacet
facet normal 0.1305261922200528 -0.9914448613738103 -1.0823139882544716e-16
  outer loop
    vertex -7.111943611928338 -2.4999999999999925 2.111943611928375
    vertex -7.629581702133375 -2.568148347421856 -0.8880563880716643
    vertex -7.111943611928335 -2.4999999999999925 -0.8880563880716643
  endloop
endfacet
facet normal 0.1305261922200528 -0.9914448613738103 -1.0823139882544716e-16
  outer loop
    vertex -7.629581702133375 -2.568148347421856 -0.8880563880716643
    vertex -7.111943611928338 -2.4999999999999925 2.111943611928375
    vertex -7.629581702133381 -2.568148347421856 2.111943611928375
  endloop
endfacet
facet normal 8.828748183278612e-33 1.0 4.1190814936724384e-33
  outer loop
    vertex -9.111943611928337 0.0 2.111943611928375
    vertex 0.8880563880716629 0.0 -0.8880563880716643
    vertex -9.111943611928337 0.0 -0.8880563880716643
  endloop
endfacet
facet normal 8.828748183278612e-33 1.0 4.1190814936724384e-33
  outer loop
    vertex 0.8880563880716629 0.0 -0.8880563880716643
    vertex -9.111943611928337 0.0 2.111943611928375
    vertex -2.1119436119283357 0.0 2.1119436119283765
  endloop
endfacet
facet normal 8.828748183278612e-33 1.0 4.1190814936724384e-33
  outer loop
    vertex 0.8880563880716629 0.0 -0.8880563880716643
    vertex -2.1119436119283357 0.0 2.1119436119283765
    vertex 0.8880563880716629 0.0 13.111943611928451
  endloop
endfacet
facet normal 8.828748183278612e-33 1.0 4.1190814936724384e-33
  outer loop
    vertex 0.8880563880716629 0.0 13.111943611928451
    vertex -2.1119436119283357 0.0 2.1119436119283765
    vertex -2.1119436119283375 0.0 13.111943611928451
  endloop
endfacet
facet normal 0.0 -0.6937944707184609 0.7201730572581084
  outer loop
    vertex 0.8880563880716629 -8.999999999999995 13.111943611928451
    vertex -2.1119436119283375 -8.391830099719911 13.697837390957309
    vertex -2.1119436119283375 -8.999999999999995 13.111943611928451
  endloop
endfacet
facet normal 0.0 -0.6937944707184609 0.7201730572581084
  outer loop
    vertex -2.1119436119283375 -8.391830099719911 13.697837390957309
    vertex 0.8880563880716629 -8.999999999999995 13.111943611928451
    vertex 0.8880563880716629 -8.391830099719911 13.697837390957309
  endloop
endfacet
facet normal -0.9398790788215811 0.34150741894356584 0.0
  outer loop
    vertex -10.589426125438642 -2.0377855495509727 2.111943611928375
    vertex -10.877821436580337 -2.8314922286351862 -0.8880563880716643
    vertex -10.877821436580337 -2.8314922286351862 2.111943611928375
  endloop
endfacet
facet normal -0.9398790788215811 0.34150741894356584 0.0
  outer loop
    vertex -10.877821436580337 -2.8314922286351862 -0.8880563880716643
    vertex -10.589426125438642 -2.0377855495509727 2.111943611928375
    vertex -10.589426125438642 -2.0377855495509727 -0.8880563880716643
  endloop
endfacet
facet normal -1.6312812471681885e-16 -6.645705885761857e-32 1.0
  outer loop
    vertex -11.053127764677908 -5.342426758848276 2.111943611928375
    vertex -11.053127764677908 -3.657573241151718 2.111943611928375
    vertex -11.111943611928334 -4.499999999999992 2.111943611928375
  endloop
endfacet
facet normal -1.6312812471681885e-16 -6.645705885761857e-32 1.0
  outer loop
    vertex -11.053127764677908 -3.657573241151718 2.111943611928375
    vertex -11.053127764677908 -5.342426758848276 2.111943611928375
    vertex -10.877821436580334 -6.168507771364808 2.111943611928375
  endloop
endfacet
facet normal -1.6312812471681885e-16 -6.645705885761857e-32 1.0
  outer loop
    vertex -11.053127764677908 -3.657573241151718 2.111943611928375
    vertex -10.877821436580334 -6.168507771364808 2.111943611928375
    vertex -10.877821436580337 -2.8314922286351862 2.111943611928375
  endloop
endfacet
facet normal -1.6312812471681885e-16 -6.645705885761857e-32 1.0
  outer loop
    vertex -10.877821436580337 -2.8314922286351862 2.111943611928375
    vertex -10.877821436580334 -6.168507771364808 2.111943611928375
    vertex -10.589426125438642 -2.0377855495509727 2.111943611928375
  endloop
endfacet
facet normal -1.6312812471681885e-16 -6.645705885761857e-32 1.0
  outer loop
    vertex -10.589426125438642 -2.0377855495509727 2.111943611928375
    vertex -10.877821436580334 -6.168507771364808 2.111943611928375
    vertex -10.58942612543864 -6.9622144504490215 2.111943611928375
  endloop
endfacet
facet normal -1.6312812471681885e-16 -6.645705885761857e-32 1.0
  outer loop
    vertex -10.589426125438642 -2.0377855495509727 2.111943611928375
    vertex -10.58942612543864 -6.9622144504490215 2.111943611928375
    vertex -10.193537613378304 -1.291853626430609 2.111943611928375
  endloop
endfacet
facet normal -1.6312812471681885e-16 -6.645705885761857e-32 1.0
  outer loop
    vertex -10.193537613378304 -1.291853626430609 2.111943611928375
    vertex -10.58942612543864 -6.9622144504490215 2.111943611928375
    vertex -10.193537613378298 -7.708146373569385 2.111943611928375
  endloop
endfacet
facet normal -1.6312812471681885e-16 -6.645705885761857e-32 1.0
  outer loop
    vertex -10.193537613378304 -1.291853626430609 2.111943611928375
    vertex -10.193537613378298 -7.708146373569385 2.111943611928375
    vertex -9.697837390957185 -0.6081699002800836 2.111943611928375
  endloop
endfacet
facet normal -1.6312812471681885e-16 -6.645705885761857e-32 1.0
  outer loop
    vertex -9.697837390957185 -0.6081699002800836 2.111943611928375
    vertex -10.193537613378298 -7.708146373569385 2.111943611928375
    vertex -9.69783739095718 -8.3918300997199 2.111943611928375
  endloop
endfacet
facet normal -1.6312812471681885e-16 -6.645705885761857e-32 1.0
  outer loop
    vertex -9.697837390957185 -0.6081699002800836 2.111943611928375
    vertex -9.69783739095718 -8.3918300997199 2.111943611928375
    vertex -9.111943611928337 0.0 2.111943611928375
  endloop
endfacet
facet normal -1.6312812471681885e-16 -6.645705885761857e-32 1.0
  outer loop
    vertex -9.111943611928337 0.0 2.111943611928375
    vertex -9.69783739095718 -8.3918300997199 2.111943611928375
    vertex -9.111943611928334 -4.499999999999998 2.111943611928375
  endloop
endfacet
facet normal -1.6312812471681885e-16 -6.645705885761857e-32 1.0
  outer loop
    vertex -9.111943611928334 -4.499999999999998 2.111943611928375
    vertex -9.69783739095718 -8.3918300997199 2.111943611928375
    vertex -9.111943611928332 -8.999999999999995 2.111943611928375
  endloop
endfacet
facet normal -1.6312812471681885e-16 -6.645705885761857e-32 1.0
  outer loop
    vertex -9.111943611928334 -4.499999999999998 2.111943611928375
    vertex -9.111943611928332 -8.999999999999995 2.111943611928375
    vertex -9.043795264506471 -5.017638090205039 2.111943611928375
  endloop
endfacet
facet normal -1.6312812471681885e-16 -6.645705885761857e-32 1.0
  outer loop
    vertex -9.043795264506471 -5.017638090205039 2.111943611928375
    vertex -9.111943611928332 -8.999999999999995 2.111943611928375
    vertex -8.843994419497207 -5.499999999999996 2.111943611928375
  endloop
endfacet
facet normal -1.6312812471681885e-16 -6.645705885761857e-32 1.0
  outer loop
    vertex -8.843994419497207 -5.499999999999996 2.111943611928375
    vertex -9.111943611928332 -8.999999999999995 2.111943611928375
    vertex -8.526157174301424 -5.9142135623730905 2.111943611928375
  endloop
endfacet
facet normal -1.6312812471681885e-16 -6.645705885761857e-32 1.0
  outer loop
    vertex -8.526157174301424 -5.9142135623730905 2.111943611928375
    vertex -9.111943611928332 -8.999999999999995 2.111943611928375
    vertex -8.11194361192833 -6.2320508075688705 2.111943611928375
  endloop
endfacet
facet normal -1.6312812471681885e-16 -6.645705885761857e-32 1.0
  outer loop
    vertex -8.11194361192833 -6.2320508075688705 2.111943611928375
    vertex -9.111943611928332 -8.999999999999995 2.111943611928375
    vertex -2.1119436119283357 -8.999999999999995 2.1119436119283765
  endloop
endfacet
facet normal -1.6312812471681885e-16 -6.645705885761857e-32 1.0
  outer loop
    vertex -8.11194361192833 -6.2320508075688705 2.111943611928375
    vertex -2.1119436119283357 -8.999999999999995 2.1119436119283765
    vertex -7.629581702133372 -6.431851652578128 2.111943611928375
  endloop
endfacet
facet normal -1.6312812471681885e-16 -6.645705885761857e-32 1.0
  outer loop
    vertex -7.629581702133372 -6.431851652578128 2.111943611928375
    vertex -2.1119436119283357 -8.999999999999995 2.1119436119283765
    vertex -7.111943611928332 -6.499999999999991 2.111943611928375
  endloop
endfacet
facet normal -1.6312812471681885e-16 -6.645705885761857e-32 1.0
  outer loop
    vertex -7.111943611928332 -6.499999999999991 2.111943611928375
    vertex -2.1119436119283357 -8.999999999999995 2.1119436119283765
    vertex -6.594305521723292 -6.4318516525781275 2.111943611928375
  endloop
endfacet
facet normal -1.6312812471681885e-16 -6.645705885761857e-32 1.0
  outer loop
    vertex -6.594305521723292 -6.4318516525781275 2.111943611928375
    vertex -2.1119436119283357 -8.999999999999995 2.1119436119283765
    vertex -6.111943611928333 -6.232050807568867 2.111943611928375
  endloop
endfacet
facet normal -1.6312812471681885e-16 -6.645705885761857e-32 1.0
  outer loop
    vertex -6.111943611928333 -6.232050807568867 2.111943611928375
    vertex -2.1119436119283357 -8.999999999999995 2.1119436119283765
    vertex -5.697730049555237 -5.914213562373084 2.111943611928375
  endloop
endfacet
facet normal -1.6312812471681885e-16 -6.645705885761857e-32 1.0
  outer loop
    vertex -5.697730049555237 -5.914213562373084 2.111943611928375
    vertex -2.1119436119283357 -8.999999999999995 2.1119436119283765
    vertex -5.379892804359456 -5.499999999999989 2.111943611928375
  endloop
endfacet
facet normal -1.6312812471681885e-16 -6.645705885761857e-32 1.0
  outer loop
    vertex -5.379892804359456 -5.499999999999989 2.111943611928375
    vertex -2.1119436119283357 -8.999999999999995 2.1119436119283765
    vertex -5.1800919593501975 -5.01763809020503 2.111943611928375
  endloop
endfacet
facet normal -1.6312812471681885e-16 -6.645705885761857e-32 1.0
  outer loop
    vertex -5.1800919593501975 -5.01763809020503 2.111943611928375
    vertex -2.1119436119283357 -8.999999999999995 2.1119436119283765
    vertex -5.111943611928336 -4.499999999999989 2.111943611928375
  endloop
endfacet
facet normal -1.6312812471681885e-16 -6.645705885761857e-32 1.0
  outer loop
    vertex -9.111943611928337 0.0 2.111943611928375
    vertex -8.11194361192834 -2.767949192431116 2.111943611928375
    vertex -2.1119436119283357 0.0 2.1119436119283765
  endloop
endfacet
facet normal -1.6312812471681885e-16 -6.645705885761857e-32 1.0
  outer loop
    vertex -8.11194361192834 -2.767949192431116 2.111943611928375
    vertex -9.111943611928337 0.0 2.111943611928375
    vertex -8.526157174301431 -3.0857864376268993 2.111943611928375
  endloop
endfacet
facet normal -1.6312812471681885e-16 -6.645705885761857e-32 1.0
  outer loop
    vertex -8.526157174301431 -3.0857864376268993 2.111943611928375
    vertex -9.111943611928337 0.0 2.111943611928375
    vertex -8.843994419497214 -3.4999999999999987 2.111943611928375
  endloop
endfacet
facet normal -1.6312812471681885e-16 -6.645705885761857e-32 1.0
  outer loop
    vertex -8.843994419497214 -3.4999999999999987 2.111943611928375
    vertex -9.111943611928337 0.0 2.111943611928375
    vertex -9.043795264506471 -3.9823619097949567 2.111943611928375
  endloop
endfacet
facet normal -1.6312812471681885e-16 -6.645705885761857e-32 1.0
  outer loop
    vertex -9.043795264506471 -3.9823619097949567 2.111943611928375
    vertex -9.111943611928337 0.0 2.111943611928375
    vertex -9.111943611928334 -4.499999999999998 2.111943611928375
  endloop
endfacet
facet normal -1.6312812471681885e-16 -6.645705885761857e-32 1.0
  outer loop
    vertex -2.1119436119283357 0.0 2.1119436119283765
    vertex -8.11194361192834 -2.767949192431116 2.111943611928375
    vertex -7.629581702133381 -2.568148347421856 2.111943611928375
  endloop
endfacet
facet normal -1.6312812471681885e-16 -6.645705885761857e-32 1.0
  outer loop
    vertex -2.1119436119283357 0.0 2.1119436119283765
    vertex -7.629581702133381 -2.568148347421856 2.111943611928375
    vertex -7.111943611928338 -2.4999999999999925 2.111943611928375
  endloop
endfacet
facet normal -1.6312812471681885e-16 -6.645705885761857e-32 1.0
  outer loop
    vertex -2.1119436119283357 0.0 2.1119436119283765
    vertex -7.111943611928338 -2.4999999999999925 2.111943611928375
    vertex -6.594305521723298 -2.5681483474218547 2.111943611928375
  endloop
endfacet
facet normal -1.6312812471681885e-16 -6.645705885761857e-32 1.0
  outer loop
    vertex -2.1119436119283357 0.0 2.1119436119283765
    vertex -6.594305521723298 -2.5681483474218547 2.111943611928375
    vertex -6.1119436119283375 -2.7679491924311135 2.111943611928375
  endloop
endfacet
facet normal -1.6312812471681885e-16 -6.645705885761857e-32 1.0
  outer loop
    vertex -2.1119436119283357 0.0 2.1119436119283765
    vertex -6.1119436119283375 -2.7679491924311135 2.111943611928375
    vertex -5.6977300495552425 -3.0857864376268944 2.111943611928375
  endloop
endfacet
facet normal -1.6312812471681885e-16 -6.645705885761857e-32 1.0
  outer loop
    vertex -2.1119436119283357 0.0 2.1119436119283765
    vertex -5.6977300495552425 -3.0857864376268944 2.111943611928375
    vertex -5.379892804359459 -3.4999999999999885 2.111943611928375
  endloop
endfacet
facet normal -1.6312812471681885e-16 -6.645705885761857e-32 1.0
  outer loop
    vertex -2.1119436119283357 0.0 2.1119436119283765
    vertex -5.379892804359459 -3.4999999999999885 2.111943611928375
    vertex -5.1800919593502 -3.982361909794947 2.111943611928375
  endloop
endfacet
facet normal -1.6312812471681885e-16 -6.645705885761857e-32 1.0
  outer loop
    vertex -2.1119436119283357 0.0 2.1119436119283765
    vertex -5.1800919593502 -3.982361909794947 2.111943611928375
    vertex -5.111943611928336 -4.499999999999989 2.111943611928375
  endloop
endfacet
facet normal -1.6312812471681885e-16 -6.645705885761857e-32 1.0
  outer loop
    vertex -2.1119436119283357 0.0 2.1119436119283765
    vertex -5.111943611928336 -4.499999999999989 2.111943611928375
    vertex -2.1119436119283357 -8.999999999999995 2.1119436119283765
  endloop
endfacet
facet normal -0.9914448613738103 -0.13052619222005296 -5.166769231152131e-16
  outer loop
    vertex -5.111943611928336 -4.499999999999989 2.111943611928375
    vertex -5.1800919593501975 -3.982361909794951 -0.8880563880716643
    vertex -5.111943611928334 -4.499999999999993 -0.8880563880716643
  endloop
endfacet
facet normal -0.9914448613738103 -0.13052619222005296 -5.166769231152131e-16
  outer loop
    vertex -5.1800919593501975 -3.982361909794951 -0.8880563880716643
    vertex -5.111943611928336 -4.499999999999989 2.111943611928375
    vertex -5.1800919593502 -3.982361909794947 2.111943611928375
  endloop
endfacet
facet normal -0.8095938306592986 0.5869904848959675 3.7753188580854604e-16
  outer loop
    vertex -9.697837390957185 -0.6081699002800836 2.111943611928375
    vertex -10.193537613378304 -1.291853626430609 -0.8880563880716643
    vertex -10.193537613378304 -1.291853626430609 2.111943611928375
  endloop
endfacet
facet normal -0.8095938306592986 0.5869904848959675 3.7753188580854604e-16
  outer loop
    vertex -10.193537613378304 -1.291853626430609 -0.8880563880716643
    vertex -9.697837390957185 -0.6081699002800836 2.111943611928375
    vertex -9.697837390957186 -0.6081699002800836 -0.8880563880716643
  endloop
endfacet
facet normal 0.9238795325112881 -0.3826834323650869 -4.966967618755942e-16
  outer loop
    vertex -9.043795264506471 -3.9823619097949527 -0.8880563880716643
    vertex -8.843994419497214 -3.4999999999999987 2.111943611928375
    vertex -9.043795264506471 -3.9823619097949567 2.111943611928375
  endloop
endfacet
facet normal 0.9238795325112881 -0.3826834323650869 -4.966967618755942e-16
  outer loop
    vertex -8.843994419497214 -3.4999999999999987 2.111943611928375
    vertex -9.043795264506471 -3.9823619097949527 -0.8880563880716643
    vertex -8.843994419497214 -3.499999999999995 -0.8880563880716643
  endloop
endfacet
facet normal -0.9975716558093417 -0.06964762397819624 0.0
  outer loop
    vertex -11.111943611928334 -4.499999999999992 2.111943611928375
    vertex -11.053127764677908 -5.342426758848276 -0.8880563880716643
    vertex -11.053127764677908 -5.342426758848276 2.111943611928375
  endloop
endfacet
facet normal -0.9975716558093417 -0.06964762397819624 0.0
  outer loop
    vertex -11.053127764677908 -5.342426758848276 -0.8880563880716643
    vertex -11.111943611928334 -4.499999999999992 2.111943611928375
    vertex -11.111943611928334 -4.499999999999992 -0.8880563880716643
  endloop
endfacet
facet normal -0.8833059204880362 0.4687970251940417 0.0
  outer loop
    vertex -10.193537613378304 -1.291853626430609 2.111943611928375
    vertex -10.589426125438642 -2.0377855495509727 -0.8880563880716643
    vertex -10.589426125438642 -2.0377855495509727 2.111943611928375
  endloop
endfacet
facet normal -0.8833059204880362 0.4687970251940417 0.0
  outer loop
    vertex -10.589426125438642 -2.0377855495509727 -0.8880563880716643
    vertex -10.193537613378304 -1.291853626430609 2.111943611928375
    vertex -10.193537613378304 -1.291853626430609 -0.8880563880716643
  endloop
endfacet
facet normal 0.6087614290087229 -0.7933533402912334 2.5138591875675307e-16
  outer loop
    vertex -8.11194361192834 -2.767949192431116 2.111943611928375
    vertex -8.526157174301428 -3.0857864376268966 -0.8880563880716643
    vertex -8.111943611928334 -2.767949192431115 -0.8880563880716643
  endloop
endfacet
facet normal 0.6087614290087229 -0.7933533402912334 2.5138591875675307e-16
  outer loop
    vertex -8.526157174301428 -3.0857864376268966 -0.8880563880716643
    vertex -8.11194361192834 -2.767949192431116 2.111943611928375
    vertex -8.526157174301431 -3.0857864376268993 2.111943611928375
  endloop
endfacet
facet normal -0.8095938306592931 -0.586990484895975 7.5506377161708725e-16
  outer loop
    vertex -10.193537613378298 -7.708146373569385 2.111943611928375
    vertex -9.697837390957181 -8.3918300997199 -0.8880563880716643
    vertex -9.69783739095718 -8.3918300997199 2.111943611928375
  endloop
endfacet
facet normal -0.8095938306592931 -0.586990484895975 7.5506377161708725e-16
  outer loop
    vertex -9.697837390957181 -8.3918300997199 -0.8880563880716643
    vertex -10.193537613378298 -7.708146373569385 2.111943611928375
    vertex -10.1935376133783 -7.708146373569385 -0.8880563880716643
  endloop
endfacet
facet normal 0.13052619222005046 0.9914448613738107 4.9476563800710593e-17
  outer loop
    vertex -7.629581702133372 -6.431851652578128 2.111943611928375
    vertex -7.111943611928335 -6.499999999999991 -0.8880563880716643
    vertex -7.629581702133378 -6.4318516525781275 -0.8880563880716643
  endloop
endfacet
facet normal 0.13052619222005046 0.9914448613738107 4.9476563800710593e-17
  outer loop
    vertex -7.111943611928335 -6.499999999999991 -0.8880563880716643
    vertex -7.629581702133372 -6.431851652578128 2.111943611928375
    vertex -7.111943611928332 -6.499999999999991 2.111943611928375
  endloop
endfacet
facet normal -0.9782156072717954 -0.20759148751784823 0.0
  outer loop
    vertex -11.053127764677908 -5.342426758848276 2.111943611928375
    vertex -10.877821436580334 -6.168507771364808 -0.8880563880716643
    vertex -10.877821436580334 -6.168507771364808 2.111943611928375
  endloop
endfacet
facet normal -0.9782156072717954 -0.20759148751784823 0.0
  outer loop
    vertex -10.877821436580334 -6.168507771364808 -0.8880563880716643
    vertex -11.053127764677908 -5.342426758848276 2.111943611928375
    vertex -11.053127764677908 -5.342426758848276 -0.8880563880716643
  endloop
endfacet
facet normal 0.7933533402912344 0.6087614290087217 4.168165144621367e-17
  outer loop
    vertex -8.526157174301428 -5.914213562373086 -0.8880563880716643
    vertex -8.843994419497207 -5.499999999999996 2.111943611928375
    vertex -8.526157174301424 -5.9142135623730905 2.111943611928375
  endloop
endfacet
facet normal 0.7933533402912344 0.6087614290087217 4.168165144621367e-17
  outer loop
    vertex -8.843994419497207 -5.499999999999996 2.111943611928375
    vertex -8.526157174301428 -5.914213562373086 -0.8880563880716643
    vertex -8.84399441949721 -5.499999999999992 -0.8880563880716643
  endloop
endfacet
facet normal 0.9914448613738105 -0.1305261922200518 -1.8260193308087048e-16
  outer loop
    vertex -9.111943611928334 -4.499999999999994 -0.8880563880716643
    vertex -9.043795264506471 -3.9823619097949567 2.111943611928375
    vertex -9.111943611928334 -4.499999999999998 2.111943611928375
  endloop
endfacet
facet normal 0.9914448613738105 -0.1305261922200518 -1.8260193308087048e-16
  outer loop
    vertex -9.043795264506471 -3.9823619097949567 2.111943611928375
    vertex -9.111943611928334 -4.499999999999994 -0.8880563880716643
    vertex -9.043795264506471 -3.9823619097949527 -0.8880563880716643
  endloop
endfacet
facet normal -0.8833059204880356 -0.46879702519404304 4.1533804370738284e-16
  outer loop
    vertex -10.58942612543864 -6.9622144504490215 2.111943611928375
    vertex -10.1935376133783 -7.708146373569385 -0.8880563880716643
    vertex -10.193537613378298 -7.708146373569385 2.111943611928375
  endloop
endfacet
facet normal -0.8833059204880356 -0.46879702519404304 4.1533804370738284e-16
  outer loop
    vertex -10.1935376133783 -7.708146373569385 -0.8880563880716643
    vertex -10.58942612543864 -6.9622144504490215 2.111943611928375
    vertex -10.58942612543864 -6.9622144504490215 -0.8880563880716643
  endloop
endfacet
facet normal -1.0 1.05302748312738e-31 -1.127919119795763e-16
  outer loop
    vertex -2.1119436119283375 -6.168507771364808 14.877821436580447
    vertex -2.1119436119283375 -6.4999999999999885 11.111943611928453
    vertex -2.1119436119283375 -6.9622144504490215 14.589426125438754
  endloop
endfacet
facet normal -1.0 1.05302748312738e-31 -1.127919119795763e-16
  outer loop
    vertex -2.1119436119283375 -6.4999999999999885 11.111943611928453
    vertex -2.1119436119283375 -6.168507771364808 14.877821436580447
    vertex -2.1119436119283375 -6.431851652578125 11.629581702133521
  endloop
endfacet
facet normal -1.0 1.05302748312738e-31 -1.127919119795763e-16
  outer loop
    vertex -2.1119436119283375 -6.431851652578125 11.629581702133521
    vertex -2.1119436119283375 -6.168507771364808 14.877821436580447
    vertex -2.1119436119283375 -6.2320508075688705 12.111943611928453
  endloop
endfacet
facet normal -1.0 1.05302748312738e-31 -1.127919119795763e-16
  outer loop
    vertex -2.1119436119283375 -6.2320508075688705 12.111943611928453
    vertex -2.1119436119283375 -6.168507771364808 14.877821436580447
    vertex -2.1119436119283375 -5.914213562373079 12.526157174301554
  endloop
endfacet
facet normal -1.0 1.05302748312738e-31 -1.127919119795763e-16
  outer loop
    vertex -2.1119436119283375 -5.914213562373079 12.526157174301554
    vertex -2.1119436119283375 -6.168507771364808 14.877821436580447
    vertex -2.1119436119283375 -5.342426758848276 15.053127764678056
  endloop
endfacet
facet normal -1.0 1.05302748312738e-31 -1.127919119795763e-16
  outer loop
    vertex -2.1119436119283375 -5.914213562373079 12.526157174301554
    vertex -2.1119436119283375 -5.342426758848276 15.053127764678056
    vertex -2.1119436119283375 -5.49999999999999 12.843994419497323
  endloop
endfacet
facet normal -1.0 1.05302748312738e-31 -1.127919119795763e-16
  outer loop
    vertex -2.1119436119283375 -5.49999999999999 12.843994419497323
    vertex -2.1119436119283375 -5.342426758848276 15.053127764678056
    vertex -2.1119436119283375 -5.017638090205037 13.043795264506622
  endloop
endfacet
facet normal -1.0 1.05302748312738e-31 -1.127919119795763e-16
  outer loop
    vertex -2.1119436119283375 -5.017638090205037 13.043795264506622
    vertex -2.1119436119283375 -5.342426758848276 15.053127764678056
    vertex -2.1119436119283375 -4.499999999999992 15.111943611928448
  endloop
endfacet
facet normal -1.0 1.05302748312738e-31 -1.127919119795763e-16
  outer loop
    vertex -2.1119436119283375 -5.017638090205037 13.043795264506622
    vertex -2.1119436119283375 -4.499999999999992 15.111943611928448
    vertex -2.1119436119283375 -4.499999999999992 13.111943611928451
  endloop
endfacet
facet normal -1.0 1.05302748312738e-31 -1.127919119795763e-16
  outer loop
    vertex -2.1119436119283375 -4.499999999999992 13.111943611928451
    vertex -2.1119436119283375 -4.499999999999992 15.111943611928448
    vertex -2.1119436119283375 -3.657573241151718 15.053127764678056
  endloop
endfacet
facet normal -1.0 1.05302748312738e-31 -1.127919119795763e-16
  outer loop
    vertex -2.1119436119283375 -4.499999999999992 13.111943611928451
    vertex -2.1119436119283375 -3.657573241151718 15.053127764678056
    vertex -2.1119436119283375 -3.982361909794946 13.043795264506622
  endloop
endfacet
facet normal -1.0 1.05302748312738e-31 -1.127919119795763e-16
  outer loop
    vertex -2.1119436119283375 -3.982361909794946 13.043795264506622
    vertex -2.1119436119283375 -3.657573241151718 15.053127764678056
    vertex -2.1119436119283375 -3.499999999999994 12.843994419497323
  endloop
endfacet
facet normal -1.0 1.05302748312738e-31 -1.127919119795763e-16
  outer loop
    vertex -2.1119436119283375 -3.499999999999994 12.843994419497323
    vertex -2.1119436119283375 -3.657573241151718 15.053127764678056
    vertex -2.1119436119283375 -2.831492228635175 14.877821436580447
  endloop
endfacet
facet normal -1.0 1.05302748312738e-31 -1.127919119795763e-16
  outer loop
    vertex -2.1119436119283375 -3.499999999999994 12.843994419497323
    vertex -2.1119436119283375 -2.831492228635175 14.877821436580447
    vertex -2.1119436119283375 -3.0857864376269046 12.526157174301554
  endloop
endfacet
facet normal -1.0 1.05302748312738e-31 -1.127919119795763e-16
  outer loop
    vertex -2.1119436119283375 -3.0857864376269046 12.526157174301554
    vertex -2.1119436119283375 -2.831492228635175 14.877821436580447
    vertex -2.1119436119283375 -2.7679491924311135 12.111943611928453
  endloop
endfacet
facet normal -1.0 1.05302748312738e-31 -1.127919119795763e-16
  outer loop
    vertex -2.1119436119283375 -2.7679491924311135 12.111943611928453
    vertex -2.1119436119283375 -2.831492228635175 14.877821436580447
    vertex -2.1119436119283375 -2.0377855495509727 14.589426125438754
  endloop
endfacet
facet normal -1.0 1.05302748312738e-31 -1.127919119795763e-16
  outer loop
    vertex -2.1119436119283375 -2.7679491924311135 12.111943611928453
    vertex -2.1119436119283375 -2.0377855495509727 14.589426125438754
    vertex -2.1119436119283375 -2.5681483474218587 11.629581702133521
  endloop
endfacet
facet normal -1.0 1.05302748312738e-31 -1.127919119795763e-16
  outer loop
    vertex -2.1119436119283375 -2.5681483474218587 11.629581702133521
    vertex -2.1119436119283375 -2.0377855495509727 14.589426125438754
    vertex -2.1119436119283375 -2.4999999999999956 11.111943611928453
  endloop
endfacet
facet normal -1.0 1.05302748312738e-31 -1.127919119795763e-16
  outer loop
    vertex -2.1119436119283375 -8.391830099719911 13.697837390957309
    vertex -2.1119436119283357 -8.999999999999995 2.1119436119283765
    vertex -2.1119436119283375 -8.999999999999995 13.111943611928451
  endloop
endfacet
facet normal -1.0 1.05302748312738e-31 -1.127919119795763e-16
  outer loop
    vertex -2.1119436119283357 -8.999999999999995 2.1119436119283765
    vertex -2.1119436119283375 -8.391830099719911 13.697837390957309
    vertex -2.1119436119283375 -6.2320508075688705 10.111943611928455
  endloop
endfacet
facet normal -1.0 1.05302748312738e-31 -1.127919119795763e-16
  outer loop
    vertex -2.1119436119283357 -8.999999999999995 2.1119436119283765
    vertex -2.1119436119283375 -6.2320508075688705 10.111943611928455
    vertex -2.1119436119283375 -5.9142135623730905 9.697730049555355
  endloop
endfacet
facet normal -1.0 1.05302748312738e-31 -1.127919119795763e-16
  outer loop
    vertex -2.1119436119283357 -8.999999999999995 2.1119436119283765
    vertex -2.1119436119283375 -5.9142135623730905 9.697730049555355
    vertex -2.1119436119283357 0.0 2.1119436119283765
  endloop
endfacet
facet normal -1.0 1.05302748312738e-31 -1.127919119795763e-16
  outer loop
    vertex -2.1119436119283375 -6.2320508075688705 10.111943611928455
    vertex -2.1119436119283375 -8.391830099719911 13.697837390957309
    vertex -2.1119436119283375 -6.431851652578125 10.594305521723385
  endloop
endfacet
facet normal -1.0 1.05302748312738e-31 -1.127919119795763e-16
  outer loop
    vertex -2.1119436119283375 -6.431851652578125 10.594305521723385
    vertex -2.1119436119283375 -8.391830099719911 13.697837390957309
    vertex -2.1119436119283375 -7.708146373569385 14.193537613378409
  endloop
endfacet
facet normal -1.0 1.05302748312738e-31 -1.127919119795763e-16
  outer loop
    vertex -2.1119436119283375 -6.431851652578125 10.594305521723385
    vertex -2.1119436119283375 -7.708146373569385 14.193537613378409
    vertex -2.1119436119283375 -6.9622144504490215 14.589426125438754
  endloop
endfacet
facet normal -1.0 1.05302748312738e-31 -1.127919119795763e-16
  outer loop
    vertex -2.1119436119283375 -6.431851652578125 10.594305521723385
    vertex -2.1119436119283375 -6.9622144504490215 14.589426125438754
    vertex -2.1119436119283375 -6.4999999999999885 11.111943611928453
  endloop
endfacet
facet normal -1.0 1.05302748312738e-31 -1.127919119795763e-16
  outer loop
    vertex -2.1119436119283357 0.0 2.1119436119283765
    vertex -2.1119436119283375 -5.9142135623730905 9.697730049555355
    vertex -2.1119436119283375 -5.49999999999999 9.379892804359587
  endloop
endfacet
facet normal -1.0 1.05302748312738e-31 -1.127919119795763e-16
  outer loop
    vertex -2.1119436119283357 0.0 2.1119436119283765
    vertex -2.1119436119283375 -5.49999999999999 9.379892804359587
    vertex -2.1119436119283375 -5.017638090205037 9.180091959350332
  endloop
endfacet
facet normal -1.0 1.05302748312738e-31 -1.127919119795763e-16
  outer loop
    vertex -2.1119436119283357 0.0 2.1119436119283765
    vertex -2.1119436119283375 -5.017638090205037 9.180091959350332
    vertex -2.1119436119283375 -4.499999999999992 9.111943611928456
  endloop
endfacet
facet normal -1.0 1.05302748312738e-31 -1.127919119795763e-16
  outer loop
    vertex -2.1119436119283357 0.0 2.1119436119283765
    vertex -2.1119436119283375 -4.499999999999992 9.111943611928456
    vertex -2.1119436119283375 -3.9823619097949576 9.180091959350287
  endloop
endfacet
facet normal -1.0 1.05302748312738e-31 -1.127919119795763e-16
  outer loop
    vertex -2.1119436119283357 0.0 2.1119436119283765
    vertex -2.1119436119283375 -3.9823619097949576 9.180091959350287
    vertex -2.1119436119283375 -3.499999999999994 9.379892804359587
  endloop
endfacet
facet normal -1.0 1.05302748312738e-31 -1.127919119795763e-16
  outer loop
    vertex -2.1119436119283357 0.0 2.1119436119283765
    vertex -2.1119436119283375 -3.499999999999994 9.379892804359587
    vertex -2.1119436119283375 -3.0857864376269046 9.697730049555355
  endloop
endfacet
facet normal -1.0 1.05302748312738e-31 -1.127919119795763e-16
  outer loop
    vertex -2.1119436119283357 0.0 2.1119436119283765
    vertex -2.1119436119283375 -3.0857864376269046 9.697730049555355
    vertex -2.1119436119283375 -2.7679491924311135 10.111943611928455
  endloop
endfacet
facet normal -1.0 1.05302748312738e-31 -1.127919119795763e-16
  outer loop
    vertex -2.1119436119283357 0.0 2.1119436119283765
    vertex -2.1119436119283375 -2.7679491924311135 10.111943611928455
    vertex -2.1119436119283375 -2.5681483474218587 10.594305521723385
  endloop
endfacet
facet normal -1.0 1.05302748312738e-31 -1.127919119795763e-16
  outer loop
    vertex -2.1119436119283357 0.0 2.1119436119283765
    vertex -2.1119436119283375 -2.5681483474218587 10.594305521723385
    vertex -2.1119436119283375 -2.4999999999999956 11.111943611928453
  endloop
endfacet
facet normal -1.0 1.05302748312738e-31 -1.127919119795763e-16
  outer loop
    vertex -2.1119436119283357 0.0 2.1119436119283765
    vertex -2.1119436119283375 -2.4999999999999956 11.111943611928453
    vertex -2.1119436119283375 -2.0377855495509727 14.589426125438754
  endloop
endfacet
facet normal -1.0 1.05302748312738e-31 -1.127919119795763e-16
  outer loop
    vertex -2.1119436119283357 0.0 2.1119436119283765
    vertex -2.1119436119283375 -2.0377855495509727 14.589426125438754
    vertex -2.1119436119283375 -1.2918536264305978 14.193537613378455
  endloop
endfacet
facet normal -1.0 1.05302748312738e-31 -1.127919119795763e-16
  outer loop
    vertex -2.1119436119283357 0.0 2.1119436119283765
    vertex -2.1119436119283375 -1.2918536264305978 14.193537613378455
    vertex -2.1119436119283375 -0.6081699002800836 13.697837390957309
  endloop
endfacet
facet normal -1.0 1.05302748312738e-31 -1.127919119795763e-16
  outer loop
    vertex -2.1119436119283357 0.0 2.1119436119283765
    vertex -2.1119436119283375 -0.6081699002800836 13.697837390957309
    vertex -2.1119436119283375 0.0 13.111943611928451
  endloop
endfacet
facet normal 0.9238795325112849 0.3826834323650943 6.228065670275724e-17
  outer loop
    vertex -8.84399441949721 -5.499999999999992 -0.8880563880716643
    vertex -9.043795264506471 -5.017638090205039 2.111943611928375
    vertex -8.843994419497207 -5.499999999999996 2.111943611928375
  endloop
endfacet
facet normal 0.9238795325112849 0.3826834323650943 6.228065670275724e-17
  outer loop
    vertex -9.043795264506471 -5.017638090205039 2.111943611928375
    vertex -8.84399441949721 -5.499999999999992 -0.8880563880716643
    vertex -9.043795264506471 -5.017638090205034 -0.8880563880716643
  endloop
endfacet
facet normal 0.0 0.38268343236515967 -0.9238795325112579
  outer loop
    vertex 0.8880563880716629 -5.017638090205037 13.043795264506622
    vertex -2.1119436119283375 -5.49999999999999 12.843994419497323
    vertex -2.1119436119283375 -5.017638090205037 13.043795264506622
  endloop
endfacet
facet normal 0.0 0.38268343236515967 -0.9238795325112579
  outer loop
    vertex -2.1119436119283375 -5.49999999999999 12.843994419497323
    vertex 0.8880563880716629 -5.017638090205037 13.043795264506622
    vertex 0.8880563880716629 -5.49999999999999 12.843994419497323
  endloop
endfacet
facet normal -0.7201730572581145 0.6937944707184547 3.3583295983585736e-16
  outer loop
    vertex -9.111943611928337 0.0 2.111943611928375
    vertex -9.697837390957186 -0.6081699002800836 -0.8880563880716643
    vertex -9.697837390957185 -0.6081699002800836 2.111943611928375
  endloop
endfacet
facet normal -0.7201730572581145 0.6937944707184547 3.3583295983585736e-16
  outer loop
    vertex -9.697837390957186 -0.6081699002800836 -0.8880563880716643
    vertex -9.111943611928337 0.0 2.111943611928375
    vertex -9.111943611928337 0.0 -0.8880563880716643
  endloop
endfacet
facet normal -0.7201730572581209 -0.693794470718448 3.3583295983586017e-16
  outer loop
    vertex -9.69783739095718 -8.3918300997199 2.111943611928375
    vertex -9.111943611928332 -8.999999999999995 -0.8880563880716643
    vertex -9.111943611928332 -8.999999999999995 2.111943611928375
  endloop
endfacet
facet normal -0.7201730572581209 -0.693794470718448 3.3583295983586017e-16
  outer loop
    vertex -9.111943611928332 -8.999999999999995 -0.8880563880716643
    vertex -9.69783739095718 -8.3918300997199 2.111943611928375
    vertex -9.697837390957181 -8.3918300997199 -0.8880563880716643
  endloop
endfacet
facet normal -0.9398790788215811 -0.34150741894356584 0.0
  outer loop
    vertex -10.877821436580334 -6.168507771364808 2.111943611928375
    vertex -10.58942612543864 -6.9622144504490215 -0.8880563880716643
    vertex -10.58942612543864 -6.9622144504490215 2.111943611928375
  endloop
endfacet
facet normal -0.9398790788215811 -0.34150741894356584 0.0
  outer loop
    vertex -10.58942612543864 -6.9622144504490215 -0.8880563880716643
    vertex -10.877821436580334 -6.168507771364808 2.111943611928375
    vertex -10.877821436580334 -6.168507771364808 -0.8880563880716643
  endloop
endfacet
facet normal -0.7933533402912357 0.6087614290087202 -8.472133982596273e-17
  outer loop
    vertex -5.697730049555237 -5.914213562373084 2.111943611928375
    vertex -5.379892804359457 -5.499999999999993 -0.8880563880716643
    vertex -5.69773004955524 -5.914213562373088 -0.8880563880716643
  endloop
endfacet
facet normal -0.7933533402912357 0.6087614290087202 -8.472133982596273e-17
  outer loop
    vertex -5.379892804359457 -5.499999999999993 -0.8880563880716643
    vertex -5.697730049555237 -5.914213562373084 2.111943611928375
    vertex -5.379892804359456 -5.499999999999989 2.111943611928375
  endloop
endfacet
facet normal -0.9238795325112867 -0.38268343236508984 -1.54927395883673e-16
  outer loop
    vertex -5.1800919593502 -3.982361909794947 2.111943611928375
    vertex -5.379892804359457 -3.499999999999992 -0.8880563880716643
    vertex -5.1800919593501975 -3.982361909794951 -0.8880563880716643
  endloop
endfacet
facet normal -0.9238795325112867 -0.38268343236508984 -1.54927395883673e-16
  outer loop
    vertex -5.379892804359457 -3.499999999999992 -0.8880563880716643
    vertex -5.1800919593502 -3.982361909794947 2.111943611928375
    vertex -5.379892804359459 -3.4999999999999885 2.111943611928375
  endloop
endfacet
facet normal -0.978215607271796 0.20759148751784504 0.0
  outer loop
    vertex -10.877821436580337 -2.8314922286351862 2.111943611928375
    vertex -11.053127764677908 -3.657573241151718 -0.8880563880716643
    vertex -11.053127764677908 -3.657573241151718 2.111943611928375
  endloop
endfacet
facet normal -0.978215607271796 0.20759148751784504 0.0
  outer loop
    vertex -11.053127764677908 -3.657573241151718 -0.8880563880716643
    vertex -10.877821436580337 -2.8314922286351862 2.111943611928375
    vertex -10.877821436580337 -2.8314922286351862 -0.8880563880716643
  endloop
endfacet
facet normal 0.38268343236508895 0.9238795325112871 -2.85348064730712e-16
  outer loop
    vertex -8.11194361192833 -6.2320508075688705 2.111943611928375
    vertex -7.629581702133378 -6.4318516525781275 -0.8880563880716643
    vertex -8.111943611928336 -6.232050807568869 -0.8880563880716643
  endloop
endfacet
facet normal 0.38268343236508895 0.9238795325112871 -2.85348064730712e-16
  outer loop
    vertex -7.629581702133378 -6.4318516525781275 -0.8880563880716643
    vertex -8.11194361192833 -6.2320508075688705 2.111943611928375
    vertex -7.629581702133372 -6.431851652578128 2.111943611928375
  endloop
endfacet
facet normal -0.6087614290087199 -0.7933533402912357 -2.0750675647034084e-16
  outer loop
    vertex -5.6977300495552425 -3.0857864376268944 2.111943611928375
    vertex -6.111943611928333 -2.767949192431115 -0.8880563880716643
    vertex -5.697730049555239 -3.0857864376268975 -0.8880563880716643
  endloop
endfacet
facet normal -0.6087614290087199 -0.7933533402912357 -2.0750675647034084e-16
  outer loop
    vertex -6.111943611928333 -2.767949192431115 -0.8880563880716643
    vertex -5.6977300495552425 -3.0857864376268944 2.111943611928375
    vertex -6.1119436119283375 -2.7679491924311135 2.111943611928375
  endloop
endfacet
facet normal 2.862448616548434e-16 -0.7933533402912307 -0.6087614290087263
  outer loop
    vertex 0.8880563880716629 -3.0857864376269046 12.526157174301554
    vertex -2.1119436119283375 -2.7679491924311135 12.111943611928453
    vertex 0.8880563880716629 -2.7679491924311135 12.111943611928453
  endloop
endfacet
facet normal 2.862448616548434e-16 -0.7933533402912307 -0.6087614290087263
  outer loop
    vertex -2.1119436119283375 -2.7679491924311135 12.111943611928453
    vertex 0.8880563880716629 -3.0857864376269046 12.526157174301554
    vertex -2.1119436119283375 -3.0857864376269046 12.526157174301554
  endloop
endfacet
facet normal -0.7933533402912347 -0.6087614290087213 -1.0262360938804189e-16
  outer loop
    vertex -5.379892804359459 -3.4999999999999885 2.111943611928375
    vertex -5.697730049555239 -3.0857864376268975 -0.8880563880716643
    vertex -5.379892804359457 -3.499999999999992 -0.8880563880716643
  endloop
endfacet
facet normal -0.7933533402912347 -0.6087614290087213 -1.0262360938804189e-16
  outer loop
    vertex -5.697730049555239 -3.0857864376268975 -0.8880563880716643
    vertex -5.379892804359459 -3.4999999999999885 2.111943611928375
    vertex -5.6977300495552425 -3.0857864376268944 2.111943611928375
  endloop
endfacet
facet normal -0.9975716558093417 0.06964762397819717 0.0
  outer loop
    vertex -11.053127764677908 -3.657573241151718 2.111943611928375
    vertex -11.111943611928334 -4.499999999999992 -0.8880563880716643
    vertex -11.111943611928334 -4.499999999999992 2.111943611928375
  endloop
endfacet
facet normal -0.9975716558093417 0.06964762397819717 0.0
  outer loop
    vertex -11.111943611928334 -4.499999999999992 -0.8880563880716643
    vertex -11.053127764677908 -3.657573241151718 2.111943611928375
    vertex -11.053127764677908 -3.657573241151718 -0.8880563880716643
  endloop
endfacet
facet normal -1.7845392642238056e-16 0.9238795325112822 0.3826834323651013
  outer loop
    vertex -2.1119436119283375 -6.431851652578125 10.594305521723385
    vertex 0.8880563880716629 -6.2320508075688705 10.111943611928456
    vertex -2.1119436119283375 -6.2320508075688705 10.111943611928455
  endloop
endfacet
facet normal -1.7845392642238056e-16 0.9238795325112822 0.3826834323651013
  outer loop
    vertex 0.8880563880716629 -6.2320508075688705 10.111943611928456
    vertex -2.1119436119283375 -6.431851652578125 10.594305521723385
    vertex 0.8880563880716629 -6.431851652578125 10.594305521723387
  endloop
endfacet
facet normal 0.0 -0.13052619221998704 -0.991444861373819
  outer loop
    vertex 0.8880563880716629 -3.982361909794946 13.043795264506622
    vertex -2.1119436119283375 -4.499999999999992 13.111943611928451
    vertex -2.1119436119283375 -3.982361909794946 13.043795264506622
  endloop
endfacet
facet normal 0.0 -0.13052619221998704 -0.991444861373819
  outer loop
    vertex -2.1119436119283375 -4.499999999999992 13.111943611928451
    vertex 0.8880563880716629 -3.982361909794946 13.043795264506622
    vertex 0.8880563880716629 -4.499999999999992 13.111943611928451
  endloop
endfacet
facet normal 1.7845392642238056e-16 -0.9238795325112822 -0.3826834323651013
  outer loop
    vertex 0.8880563880716629 -2.5681483474218587 11.629581702133523
    vertex -2.1119436119283375 -2.7679491924311135 12.111943611928453
    vertex -2.1119436119283375 -2.5681483474218587 11.629581702133521
  endloop
endfacet
facet normal 1.7845392642238056e-16 -0.9238795325112822 -0.3826834323651013
  outer loop
    vertex -2.1119436119283375 -2.7679491924311135 12.111943611928453
    vertex 0.8880563880716629 -2.5681483474218587 11.629581702133523
    vertex 0.8880563880716629 -2.7679491924311135 12.111943611928453
  endloop
endfacet
facet normal 1.7845392642238056e-16 0.9238795325112822 -0.3826834323651013
  outer loop
    vertex -2.1119436119283375 -6.2320508075688705 12.111943611928453
    vertex 0.8880563880716629 -6.431851652578125 11.629581702133523
    vertex -2.1119436119283375 -6.431851652578125 11.629581702133521
  endloop
endfacet
facet normal 1.7845392642238056e-16 0.9238795325112822 -0.3826834323651013
  outer loop
    vertex 0.8880563880716629 -6.431851652578125 11.629581702133523
    vertex -2.1119436119283375 -6.2320508075688705 12.111943611928453
    vertex 0.8880563880716629 -6.2320508075688705 12.111943611928453
  endloop
endfacet
facet normal 0.3826834323650897 -0.9238795325112867 2.314948285522615e-16
  outer loop
    vertex -7.629581702133381 -2.568148347421856 2.111943611928375
    vertex -8.111943611928334 -2.767949192431115 -0.8880563880716643
    vertex -7.629581702133375 -2.568148347421856 -0.8880563880716643
  endloop
endfacet
facet normal 0.3826834323650897 -0.9238795325112867 2.314948285522615e-16
  outer loop
    vertex -8.111943611928334 -2.767949192431115 -0.8880563880716643
    vertex -7.629581702133381 -2.568148347421856 2.111943611928375
    vertex -8.11194361192834 -2.767949192431116 2.111943611928375
  endloop
endfacet
facet normal -6.086731102695533e-17 0.9914448613738114 0.1305261922200452
  outer loop
    vertex -2.1119436119283375 -6.4999999999999885 11.111943611928453
    vertex 0.8880563880716629 -6.431851652578125 10.594305521723387
    vertex -2.1119436119283375 -6.431851652578125 10.594305521723385
  endloop
endfacet
facet normal -6.086731102695533e-17 0.9914448613738114 0.1305261922200452
  outer loop
    vertex 0.8880563880716629 -6.431851652578125 10.594305521723387
    vertex -2.1119436119283375 -6.4999999999999885 11.111943611928453
    vertex 0.8880563880716629 -6.4999999999999885 11.111943611928455
  endloop
endfacet
facet normal -0.9238795325112867 0.3826834323650897 -2.3487522768358154e-16
  outer loop
    vertex -5.379892804359456 -5.499999999999989 2.111943611928375
    vertex -5.1800919593501975 -5.0176380902050335 -0.8880563880716643
    vertex -5.379892804359457 -5.499999999999993 -0.8880563880716643
  endloop
endfacet
facet normal -0.9238795325112867 0.3826834323650897 -2.3487522768358154e-16
  outer loop
    vertex -5.1800919593501975 -5.0176380902050335 -0.8880563880716643
    vertex -5.379892804359456 -5.499999999999989 2.111943611928375
    vertex -5.1800919593501975 -5.01763809020503 2.111943611928375
  endloop
endfacet
facet normal 0.0 -0.5869904848959533 0.8095938306593089
  outer loop
    vertex 0.8880563880716629 -8.391830099719911 13.697837390957309
    vertex -2.1119436119283375 -7.708146373569385 14.193537613378409
    vertex -2.1119436119283375 -8.391830099719911 13.697837390957309
  endloop
endfacet
facet normal 0.0 -0.5869904848959533 0.8095938306593089
  outer loop
    vertex -2.1119436119283375 -7.708146373569385 14.193537613378409
    vertex 0.8880563880716629 -8.391830099719911 13.697837390957309
    vertex 0.8880563880716629 -7.708146373569385 14.193537613378409
  endloop
endfacet
facet normal 1.8806227735367594e-16 0.6087614290087103 -0.793353340291243
  outer loop
    vertex 0.8880563880716629 -5.49999999999999 12.843994419497323
    vertex -2.1119436119283375 -5.914213562373079 12.526157174301554
    vertex -2.1119436119283375 -5.49999999999999 12.843994419497323
  endloop
endfacet
facet normal 1.8806227735367594e-16 0.6087614290087103 -0.793353340291243
  outer loop
    vertex -2.1119436119283375 -5.914213562373079 12.526157174301554
    vertex 0.8880563880716629 -5.49999999999999 12.843994419497323
    vertex 0.8880563880716629 -5.914213562373079 12.526157174301554
  endloop
endfacet
facet normal -1.7845392642238056e-16 -0.9238795325112822 0.3826834323651013
  outer loop
    vertex 0.8880563880716629 -2.7679491924311135 10.111943611928456
    vertex -2.1119436119283375 -2.5681483474218587 10.594305521723385
    vertex -2.1119436119283375 -2.7679491924311135 10.111943611928455
  endloop
endfacet
facet normal -1.7845392642238056e-16 -0.9238795325112822 0.3826834323651013
  outer loop
    vertex -2.1119436119283375 -2.5681483474218587 10.594305521723385
    vertex 0.8880563880716629 -2.7679491924311135 10.111943611928456
    vertex 0.8880563880716629 -2.5681483474218587 10.594305521723387
  endloop
endfacet
facet normal -6.086731102695533e-17 -0.9914448613738114 0.1305261922200452
  outer loop
    vertex 0.8880563880716629 -2.5681483474218587 10.594305521723387
    vertex -2.1119436119283375 -2.4999999999999956 11.111943611928453
    vertex -2.1119436119283375 -2.5681483474218587 10.594305521723385
  endloop
endfacet
facet normal -6.086731102695533e-17 -0.9914448613738114 0.1305261922200452
  outer loop
    vertex -2.1119436119283375 -2.4999999999999956 11.111943611928453
    vertex 0.8880563880716629 -2.5681483474218587 10.594305521723387
    vertex 0.8880563880716629 -2.4999999999999956 11.111943611928455
  endloop
endfacet
facet normal -4.652227101139354e-16 0.130526192220072 0.9914448613738077
  outer loop
    vertex 0.8880563880716629 -5.017638090205037 9.180091959350333
    vertex -2.1119436119283375 -4.499999999999992 9.111943611928456
    vertex -2.1119436119283375 -5.017638090205037 9.180091959350332
  endloop
endfacet
facet normal -4.652227101139354e-16 0.130526192220072 0.9914448613738077
  outer loop
    vertex -2.1119436119283375 -4.499999999999992 9.111943611928456
    vertex 0.8880563880716629 -5.017638090205037 9.180091959350333
    vertex 0.8880563880716629 -4.499999999999992 9.111943611928458
  endloop
endfacet
facet normal -0.3826834323650886 -0.9238795325112873 -1.9612110151952633e-16
  outer loop
    vertex -6.1119436119283375 -2.7679491924311135 2.111943611928375
    vertex -6.594305521723292 -2.568148347421856 -0.8880563880716643
    vertex -6.111943611928333 -2.767949192431115 -0.8880563880716643
  endloop
endfacet
facet normal -0.3826834323650886 -0.9238795325112873 -1.9612110151952633e-16
  outer loop
    vertex -6.594305521723292 -2.568148347421856 -0.8880563880716643
    vertex -6.1119436119283375 -2.7679491924311135 2.111943611928375
    vertex -6.594305521723298 -2.5681483474218547 2.111943611928375
  endloop
endfacet
facet normal -4.3441610517285967e-16 0.3826834323650859 0.9238795325112884
  outer loop
    vertex 0.8880563880716629 -5.49999999999999 9.379892804359587
    vertex -2.1119436119283375 -5.017638090205037 9.180091959350332
    vertex -2.1119436119283375 -5.49999999999999 9.379892804359587
  endloop
endfacet
facet normal -4.3441610517285967e-16 0.3826834323650859 0.9238795325112884
  outer loop
    vertex -2.1119436119283375 -5.017638090205037 9.180091959350332
    vertex 0.8880563880716629 -5.49999999999999 9.379892804359587
    vertex 0.8880563880716629 -5.017638090205037 9.180091959350333
  endloop
endfacet
facet normal -3.7304156655401324e-16 -0.6087614290087096 0.7933533402912438
  outer loop
    vertex 0.8880563880716629 -3.499999999999994 9.379892804359587
    vertex -2.1119436119283375 -3.0857864376269046 9.697730049555355
    vertex -2.1119436119283375 -3.499999999999994 9.379892804359587
  endloop
endfacet
facet normal -3.7304156655401324e-16 -0.6087614290087096 0.7933533402912438
  outer loop
    vertex -2.1119436119283375 -3.0857864376269046 9.697730049555355
    vertex 0.8880563880716629 -3.499999999999994 9.379892804359587
    vertex 0.8880563880716629 -3.0857864376269046 9.697730049555355
  endloop
endfacet
facet normal -0.6087614290087201 0.7933533402912357 -1.7359340979833333e-16
  outer loop
    vertex -6.111943611928333 -6.232050807568867 2.111943611928375
    vertex -5.69773004955524 -5.914213562373088 -0.8880563880716643
    vertex -6.111943611928337 -6.2320508075688705 -0.8880563880716643
  endloop
endfacet
facet normal -0.6087614290087201 0.7933533402912357 -1.7359340979833333e-16
  outer loop
    vertex -5.69773004955524 -5.914213562373088 -0.8880563880716643
    vertex -6.111943611928333 -6.232050807568867 2.111943611928375
    vertex -5.697730049555237 -5.914213562373084 2.111943611928375
  endloop
endfacet
facet normal -0.38268343236508967 0.9238795325112868 -2.917420728074909e-16
  outer loop
    vertex -6.594305521723292 -6.4318516525781275 2.111943611928375
    vertex -6.111943611928337 -6.2320508075688705 -0.8880563880716643
    vertex -6.594305521723295 -6.431851652578128 -0.8880563880716643
  endloop
endfacet
facet normal -0.38268343236508967 0.9238795325112868 -2.917420728074909e-16
  outer loop
    vertex -6.111943611928337 -6.2320508075688705 -0.8880563880716643
    vertex -6.594305521723292 -6.4318516525781275 2.111943611928375
    vertex -6.111943611928333 -6.232050807568867 2.111943611928375
  endloop
endfacet
facet normal -4.3441610517284685e-16 -0.382683432365152 0.923879532511261
  outer loop
    vertex 0.8880563880716629 -3.9823619097949576 9.180091959350287
    vertex -2.1119436119283375 -3.499999999999994 9.379892804359587
    vertex -2.1119436119283375 -3.9823619097949576 9.180091959350287
  endloop
endfacet
facet normal -4.3441610517284685e-16 -0.382683432365152 0.923879532511261
  outer loop
    vertex -2.1119436119283375 -3.499999999999994 9.379892804359587
    vertex 0.8880563880716629 -3.9823619097949576 9.180091959350287
    vertex 0.8880563880716629 -3.499999999999994 9.379892804359587
  endloop
endfacet
facet normal 1.0 0.0 0.0
  outer loop
    vertex 0.8880563880716629 0.0 -0.8880563880716643
    vertex 0.8880563880716629 -8.999999999999995 13.111943611928451
    vertex 0.8880563880716629 -8.999999999999995 -0.8880563880716643
  endloop
endfacet
facet normal 1.0 0.0 0.0
  outer loop
    vertex 0.8880563880716629 -8.999999999999995 13.111943611928451
    vertex 0.8880563880716629 0.0 -0.8880563880716643
    vertex 0.8880563880716629 -8.391830099719911 13.697837390957309
  endloop
endfacet
facet normal 1.0 0.0 0.0
  outer loop
    vertex 0.8880563880716629 -8.391830099719911 13.697837390957309
    vertex 0.8880563880716629 0.0 -0.8880563880716643
    vertex 0.8880563880716629 -6.2320508075688705 10.111943611928456
  endloop
endfacet
facet normal 1.0 0.0 0.0
  outer loop
    vertex 0.8880563880716629 -8.391830099719911 13.697837390957309
    vertex 0.8880563880716629 -6.2320508075688705 10.111943611928456
    vertex 0.8880563880716629 -6.431851652578125 10.594305521723387
  endloop
endfacet
facet normal 1.0 0.0 0.0
  outer loop
    vertex 0.8880563880716629 -8.391830099719911 13.697837390957309
    vertex 0.8880563880716629 -6.431851652578125 10.594305521723387
    vertex 0.8880563880716629 -7.708146373569385 14.193537613378409
  endloop
endfacet
facet normal 1.0 0.0 0.0
  outer loop
    vertex 0.8880563880716629 -7.708146373569385 14.193537613378409
    vertex 0.8880563880716629 -6.431851652578125 10.594305521723387
    vertex 0.8880563880716629 -6.9622144504490215 14.589426125438754
  endloop
endfacet
facet normal 1.0 0.0 0.0
  outer loop
    vertex 0.8880563880716629 -6.9622144504490215 14.589426125438754
    vertex 0.8880563880716629 -6.431851652578125 10.594305521723387
    vertex 0.8880563880716629 -6.4999999999999885 11.111943611928455
  endloop
endfacet
facet normal 1.0 0.0 0.0
  outer loop
    vertex 0.8880563880716629 -6.2320508075688705 10.111943611928456
    vertex 0.8880563880716629 0.0 -0.8880563880716643
    vertex 0.8880563880716629 -5.9142135623730905 9.697730049555355
  endloop
endfacet
facet normal 1.0 0.0 0.0
  outer loop
    vertex 0.8880563880716629 -5.9142135623730905 9.697730049555355
    vertex 0.8880563880716629 0.0 -0.8880563880716643
    vertex 0.8880563880716629 -5.49999999999999 9.379892804359587
  endloop
endfacet
facet normal 1.0 0.0 0.0
  outer loop
    vertex 0.8880563880716629 -5.49999999999999 9.379892804359587
    vertex 0.8880563880716629 0.0 -0.8880563880716643
    vertex 0.8880563880716629 -5.017638090205037 9.180091959350333
  endloop
endfacet
facet normal 1.0 0.0 0.0
  outer loop
    vertex 0.8880563880716629 -5.017638090205037 9.180091959350333
    vertex 0.8880563880716629 0.0 -0.8880563880716643
    vertex 0.8880563880716629 -4.499999999999992 9.111943611928458
  endloop
endfacet
facet normal 1.0 0.0 0.0
  outer loop
    vertex 0.8880563880716629 -4.499999999999992 9.111943611928458
    vertex 0.8880563880716629 0.0 -0.8880563880716643
    vertex 0.8880563880716629 -3.9823619097949576 9.180091959350287
  endloop
endfacet
facet normal 1.0 0.0 0.0
  outer loop
    vertex 0.8880563880716629 -3.9823619097949576 9.180091959350287
    vertex 0.8880563880716629 0.0 -0.8880563880716643
    vertex 0.8880563880716629 -3.499999999999994 9.379892804359587
  endloop
endfacet
facet normal 1.0 0.0 0.0
  outer loop
    vertex 0.8880563880716629 -3.499999999999994 9.379892804359587
    vertex 0.8880563880716629 0.0 -0.8880563880716643
    vertex 0.8880563880716629 -3.0857864376269046 9.697730049555355
  endloop
endfacet
facet normal 1.0 0.0 0.0
  outer loop
    vertex 0.8880563880716629 -3.0857864376269046 9.697730049555355
    vertex 0.8880563880716629 0.0 -0.8880563880716643
    vertex 0.8880563880716629 -2.7679491924311135 10.111943611928456
  endloop
endfacet
facet normal 1.0 0.0 0.0
  outer loop
    vertex 0.8880563880716629 -2.7679491924311135 10.111943611928456
    vertex 0.8880563880716629 0.0 -0.8880563880716643
    vertex 0.8880563880716629 -2.5681483474218587 10.594305521723387
  endloop
endfacet
facet normal 1.0 0.0 0.0
  outer loop
    vertex 0.8880563880716629 -2.5681483474218587 10.594305521723387
    vertex 0.8880563880716629 0.0 -0.8880563880716643
    vertex 0.8880563880716629 -2.4999999999999956 11.111943611928455
  endloop
endfacet
facet normal 1.0 0.0 0.0
  outer loop
    vertex 0.8880563880716629 -2.4999999999999956 11.111943611928455
    vertex 0.8880563880716629 0.0 -0.8880563880716643
    vertex 0.8880563880716629 -2.0377855495509727 14.589426125438754
  endloop
endfacet
facet normal 1.0 0.0 0.0
  outer loop
    vertex 0.8880563880716629 -2.0377855495509727 14.589426125438754
    vertex 0.8880563880716629 0.0 -0.8880563880716643
    vertex 0.8880563880716629 -1.2918536264305978 14.193537613378455
  endloop
endfacet
facet normal 1.0 0.0 0.0
  outer loop
    vertex 0.8880563880716629 -1.2918536264305978 14.193537613378455
    vertex 0.8880563880716629 0.0 -0.8880563880716643
    vertex 0.8880563880716629 -0.6081699002800836 13.697837390957309
  endloop
endfacet
facet normal 1.0 0.0 0.0
  outer loop
    vertex 0.8880563880716629 -0.6081699002800836 13.697837390957309
    vertex 0.8880563880716629 0.0 -0.8880563880716643
    vertex 0.8880563880716629 0.0 13.111943611928451
  endloop
endfacet
facet normal 1.0 0.0 0.0
  outer loop
    vertex 0.8880563880716629 -6.4999999999999885 11.111943611928455
    vertex 0.8880563880716629 -6.168507771364808 14.877821436580447
    vertex 0.8880563880716629 -6.9622144504490215 14.589426125438754
  endloop
endfacet
facet normal 1.0 0.0 0.0
  outer loop
    vertex 0.8880563880716629 -6.168507771364808 14.877821436580447
    vertex 0.8880563880716629 -6.4999999999999885 11.111943611928455
    vertex 0.8880563880716629 -6.431851652578125 11.629581702133523
  endloop
endfacet
facet normal 1.0 0.0 0.0
  outer loop
    vertex 0.8880563880716629 -6.168507771364808 14.877821436580447
    vertex 0.8880563880716629 -6.431851652578125 11.629581702133523
    vertex 0.8880563880716629 -6.2320508075688705 12.111943611928453
  endloop
endfacet
facet normal 1.0 0.0 0.0
  outer loop
    vertex 0.8880563880716629 -6.168507771364808 14.877821436580447
    vertex 0.8880563880716629 -6.2320508075688705 12.111943611928453
    vertex 0.8880563880716629 -5.914213562373079 12.526157174301554
  endloop
endfacet
facet normal 1.0 0.0 0.0
  outer loop
    vertex 0.8880563880716629 -6.168507771364808 14.877821436580447
    vertex 0.8880563880716629 -5.914213562373079 12.526157174301554
    vertex 0.8880563880716629 -5.342426758848276 15.053127764678056
  endloop
endfacet
facet normal 1.0 0.0 0.0
  outer loop
    vertex 0.8880563880716629 -5.342426758848276 15.053127764678056
    vertex 0.8880563880716629 -5.914213562373079 12.526157174301554
    vertex 0.8880563880716629 -5.49999999999999 12.843994419497323
  endloop
endfacet
facet normal 1.0 0.0 0.0
  outer loop
    vertex 0.8880563880716629 -5.342426758848276 15.053127764678056
    vertex 0.8880563880716629 -5.49999999999999 12.843994419497323
    vertex 0.8880563880716629 -5.017638090205037 13.043795264506622
  endloop
endfacet
facet normal 1.0 0.0 0.0
  outer loop
    vertex 0.8880563880716629 -5.342426758848276 15.053127764678056
    vertex 0.8880563880716629 -5.017638090205037 13.043795264506622
    vertex 0.8880563880716629 -4.499999999999992 15.111943611928448
  endloop
endfacet
facet normal 1.0 0.0 0.0
  outer loop
    vertex 0.8880563880716629 -4.499999999999992 15.111943611928448
    vertex 0.8880563880716629 -5.017638090205037 13.043795264506622
    vertex 0.8880563880716629 -4.499999999999992 13.111943611928451
  endloop
endfacet
facet normal 1.0 0.0 0.0
  outer loop
    vertex 0.8880563880716629 -4.499999999999992 15.111943611928448
    vertex 0.8880563880716629 -4.499999999999992 13.111943611928451
    vertex 0.8880563880716629 -3.982361909794946 13.043795264506622
  endloop
endfacet
facet normal 1.0 0.0 0.0
  outer loop
    vertex 0.8880563880716629 -4.499999999999992 15.111943611928448
    vertex 0.8880563880716629 -3.982361909794946 13.043795264506622
    vertex 0.8880563880716629 -3.657573241151718 15.053127764678056
  endloop
endfacet
facet normal 1.0 0.0 0.0
  outer loop
    vertex 0.8880563880716629 -3.657573241151718 15.053127764678056
    vertex 0.8880563880716629 -3.982361909794946 13.043795264506622
    vertex 0.8880563880716629 -3.499999999999994 12.843994419497323
  endloop
endfacet
facet normal 1.0 0.0 0.0
  outer loop
    vertex 0.8880563880716629 -3.657573241151718 15.053127764678056
    vertex 0.8880563880716629 -3.499999999999994 12.843994419497323
    vertex 0.8880563880716629 -2.831492228635175 14.877821436580447
  endloop
endfacet
facet normal 1.0 0.0 0.0
  outer loop
    vertex 0.8880563880716629 -2.831492228635175 14.877821436580447
    vertex 0.8880563880716629 -3.499999999999994 12.843994419497323
    vertex 0.8880563880716629 -3.0857864376269046 12.526157174301554
  endloop
endfacet
facet normal 1.0 0.0 0.0
  outer loop
    vertex 0.8880563880716629 -2.831492228635175 14.877821436580447
    vertex 0.8880563880716629 -3.0857864376269046 12.526157174301554
    vertex 0.8880563880716629 -2.7679491924311135 12.111943611928453
  endloop
endfacet
facet normal 1.0 0.0 0.0
  outer loop
    vertex 0.8880563880716629 -2.831492228635175 14.877821436580447
    vertex 0.8880563880716629 -2.7679491924311135 12.111943611928453
    vertex 0.8880563880716629 -2.0377855495509727 14.589426125438754
  endloop
endfacet
facet normal 1.0 0.0 0.0
  outer loop
    vertex 0.8880563880716629 -2.0377855495509727 14.589426125438754
    vertex 0.8880563880716629 -2.7679491924311135 12.111943611928453
    vertex 0.8880563880716629 -2.5681483474218587 11.629581702133523
  endloop
endfacet
facet normal 1.0 0.0 0.0
  outer loop
    vertex 0.8880563880716629 -2.0377855495509727 14.589426125438754
    vertex 0.8880563880716629 -2.5681483474218587 11.629581702133523
    vertex 0.8880563880716629 -2.4999999999999956 11.111943611928455
  endloop
endfacet
facet normal 6.086731102695533e-17 0.9914448613738114 -0.1305261922200452
  outer loop
    vertex -2.1119436119283375 -6.431851652578125 11.629581702133521
    vertex 0.8880563880716629 -6.4999999999999885 11.111943611928455
    vertex -2.1119436119283375 -6.4999999999999885 11.111943611928453
  endloop
endfacet
facet normal 6.086731102695533e-17 0.9914448613738114 -0.1305261922200452
  outer loop
    vertex 0.8880563880716629 -6.4999999999999885 11.111943611928455
    vertex -2.1119436119283375 -6.431851652578125 11.629581702133521
    vertex 0.8880563880716629 -6.431851652578125 11.629581702133523
  endloop
endfacet
facet normal -0.1305261922200508 -0.9914448613738105 -1.258247472567107e-16
  outer loop
    vertex -6.594305521723298 -2.5681483474218547 2.111943611928375
    vertex -7.111943611928335 -2.4999999999999925 -0.8880563880716643
    vertex -6.594305521723292 -2.568148347421856 -0.8880563880716643
  endloop
endfacet
facet normal -0.1305261922200508 -0.9914448613738105 -1.258247472567107e-16
  outer loop
    vertex -7.111943611928335 -2.4999999999999925 -0.8880563880716643
    vertex -6.594305521723298 -2.5681483474218547 2.111943611928375
    vertex -7.111943611928338 -2.4999999999999925 2.111943611928375
  endloop
endfacet
facet normal 2.862448616548434e-16 0.7933533402912307 -0.6087614290087263
  outer loop
    vertex -2.1119436119283375 -5.914213562373079 12.526157174301554
    vertex 0.8880563880716629 -6.2320508075688705 12.111943611928453
    vertex -2.1119436119283375 -6.2320508075688705 12.111943611928453
  endloop
endfacet
facet normal 2.862448616548434e-16 0.7933533402912307 -0.6087614290087263
  outer loop
    vertex 0.8880563880716629 -6.2320508075688705 12.111943611928453
    vertex -2.1119436119283375 -5.914213562373079 12.526157174301554
    vertex 0.8880563880716629 -5.914213562373079 12.526157174301554
  endloop
endfacet
facet normal 1.8806227735367594e-16 -0.6087614290087103 -0.793353340291243
  outer loop
    vertex 0.8880563880716629 -3.0857864376269046 12.526157174301554
    vertex -2.1119436119283375 -3.499999999999994 12.843994419497323
    vertex -2.1119436119283375 -3.0857864376269046 12.526157174301554
  endloop
endfacet
facet normal 1.8806227735367594e-16 -0.6087614290087103 -0.793353340291243
  outer loop
    vertex -2.1119436119283375 -3.499999999999994 12.843994419497323
    vertex 0.8880563880716629 -3.0857864376269046 12.526157174301554
    vertex 0.8880563880716629 -3.499999999999994 12.843994419497323
  endloop
endfacet
facet normal 0.0 -0.38268343236515967 -0.9238795325112579
  outer loop
    vertex 0.8880563880716629 -3.499999999999994 12.843994419497323
    vertex -2.1119436119283375 -3.982361909794946 13.043795264506622
    vertex -2.1119436119283375 -3.499999999999994 12.843994419497323
  endloop
endfacet
facet normal 0.0 -0.38268343236515967 -0.9238795325112579
  outer loop
    vertex -2.1119436119283375 -3.982361909794946 13.043795264506622
    vertex 0.8880563880716629 -3.499999999999994 12.843994419497323
    vertex 0.8880563880716629 -3.982361909794946 13.043795264506622
  endloop
endfacet
facet normal -2.862448616548434e-16 -0.7933533402912307 0.6087614290087263
  outer loop
    vertex 0.8880563880716629 -3.0857864376269046 9.697730049555355
    vertex -2.1119436119283375 -2.7679491924311135 10.111943611928455
    vertex -2.1119436119283375 -3.0857864376269046 9.697730049555355
  endloop
endfacet
facet normal -2.862448616548434e-16 -0.7933533402912307 0.6087614290087263
  outer loop
    vertex -2.1119436119283375 -2.7679491924311135 10.111943611928455
    vertex 0.8880563880716629 -3.0857864376269046 9.697730049555355
    vertex 0.8880563880716629 -2.7679491924311135 10.111943611928456
  endloop
endfacet
facet normal 0.0 0.13052619221998704 -0.991444861373819
  outer loop
    vertex 0.8880563880716629 -4.499999999999992 13.111943611928451
    vertex -2.1119436119283375 -5.017638090205037 13.043795264506622
    vertex -2.1119436119283375 -4.499999999999992 13.111943611928451
  endloop
endfacet
facet normal 0.0 0.13052619221998704 -0.991444861373819
  outer loop
    vertex -2.1119436119283375 -5.017638090205037 13.043795264506622
    vertex 0.8880563880716629 -4.499999999999992 13.111943611928451
    vertex 0.8880563880716629 -5.017638090205037 13.043795264506622
  endloop
endfacet
facet normal 0.0 0.6937944707184609 0.7201730572581084
  outer loop
    vertex 0.8880563880716629 -0.6081699002800836 13.697837390957309
    vertex -2.1119436119283375 0.0 13.111943611928451
    vertex -2.1119436119283375 -0.6081699002800836 13.697837390957309
  endloop
endfacet
facet normal 0.0 0.6937944707184609 0.7201730572581084
  outer loop
    vertex -2.1119436119283375 0.0 13.111943611928451
    vertex 0.8880563880716629 -0.6081699002800836 13.697837390957309
    vertex 0.8880563880716629 0.0 13.111943611928451
  endloop
endfacet
facet normal 0.0 0.0696476239781573 0.9975716558093446
  outer loop
    vertex 0.8880563880716629 -4.499999999999992 15.111943611928448
    vertex -2.1119436119283375 -3.657573241151718 15.053127764678056
    vertex -2.1119436119283375 -4.499999999999992 15.111943611928448
  endloop
endfacet
facet normal 0.0 0.0696476239781573 0.9975716558093446
  outer loop
    vertex -2.1119436119283375 -3.657573241151718 15.053127764678056
    vertex 0.8880563880716629 -4.499999999999992 15.111943611928448
    vertex 0.8880563880716629 -3.657573241151718 15.053127764678056
  endloop
endfacet
facet normal -4.661859041307396e-16 -0.13052619221998982 0.9914448613738186
  outer loop
    vertex 0.8880563880716629 -4.499999999999992 9.111943611928458
    vertex -2.1119436119283375 -3.9823619097949576 9.180091959350287
    vertex -2.1119436119283375 -4.499999999999992 9.111943611928456
  endloop
endfacet
facet normal -4.661859041307396e-16 -0.13052619221998982 0.9914448613738186
  outer loop
    vertex -2.1119436119283375 -3.9823619097949576 9.180091959350287
    vertex 0.8880563880716629 -4.499999999999992 9.111943611928458
    vertex 0.8880563880716629 -3.9823619097949576 9.180091959350287
  endloop
endfacet
facet normal -3.7304156655401704e-16 0.608761429008699 0.7933533402912517
  outer loop
    vertex 0.8880563880716629 -5.9142135623730905 9.697730049555355
    vertex -2.1119436119283375 -5.49999999999999 9.379892804359587
    vertex -2.1119436119283375 -5.9142135623730905 9.697730049555355
  endloop
endfacet
facet normal -3.7304156655401704e-16 0.608761429008699 0.7933533402912517
  outer loop
    vertex -2.1119436119283375 -5.49999999999999 9.379892804359587
    vertex 0.8880563880716629 -5.9142135623730905 9.697730049555355
    vertex 0.8880563880716629 -5.49999999999999 9.379892804359587
  endloop
endfacet
facet normal 6.086731102695533e-17 -0.9914448613738114 -0.1305261922200452
  outer loop
    vertex 0.8880563880716629 -2.4999999999999956 11.111943611928455
    vertex -2.1119436119283375 -2.5681483474218587 11.629581702133521
    vertex -2.1119436119283375 -2.4999999999999956 11.111943611928453
  endloop
endfacet
facet normal 6.086731102695533e-17 -0.9914448613738114 -0.1305261922200452
  outer loop
    vertex -2.1119436119283375 -2.5681483474218587 11.629581702133521
    vertex 0.8880563880716629 -2.4999999999999956 11.111943611928455
    vertex 0.8880563880716629 -2.5681483474218587 11.629581702133523
  endloop
endfacet
facet normal -0.9914448613738105 0.13052619222005055 -4.004780573894914e-16
  outer loop
    vertex -5.1800919593501975 -5.01763809020503 2.111943611928375
    vertex -5.111943611928334 -4.499999999999993 -0.8880563880716643
    vertex -5.1800919593501975 -5.0176380902050335 -0.8880563880716643
  endloop
endfacet
facet normal -0.9914448613738105 0.13052619222005055 -4.004780573894914e-16
  outer loop
    vertex -5.111943611928334 -4.499999999999993 -0.8880563880716643
    vertex -5.1800919593501975 -5.01763809020503 2.111943611928375
    vertex -5.111943611928336 -4.499999999999989 2.111943611928375
  endloop
endfacet
facet normal -2.8624486165483706e-16 0.7933533402912413 0.6087614290087127
  outer loop
    vertex -2.1119436119283375 -6.2320508075688705 10.111943611928455
    vertex 0.8880563880716629 -5.9142135623730905 9.697730049555355
    vertex -2.1119436119283375 -5.9142135623730905 9.697730049555355
  endloop
endfacet
facet normal -2.8624486165483706e-16 0.7933533402912413 0.6087614290087127
  outer loop
    vertex 0.8880563880716629 -5.9142135623730905 9.697730049555355
    vertex -2.1119436119283375 -6.2320508075688705 10.111943611928455
    vertex 0.8880563880716629 -6.2320508075688705 10.111943611928456
  endloop
endfacet
facet normal 0.0 -0.2075914875178866 0.9782156072717872
  outer loop
    vertex 0.8880563880716629 -6.168507771364808 14.877821436580447
    vertex -2.1119436119283375 -5.342426758848276 15.053127764678056
    vertex -2.1119436119283375 -6.168507771364808 14.877821436580447
  endloop
endfacet
facet normal 0.0 -0.2075914875178866 0.9782156072717872
  outer loop
    vertex -2.1119436119283375 -5.342426758848276 15.053127764678056
    vertex 0.8880563880716629 -6.168507771364808 14.877821436580447
    vertex 0.8880563880716629 -5.342426758848276 15.053127764678056
  endloop
endfacet
endsolid Motion_Detection_via_LoRa
