solid Motion_Detection_via_LoRa
facet normal 2.7755575615628907e-17 1.0 9.39988827515966e-17
  outer loop
    vertex -327.29999999999995 75.80000000000003 12.500000000000002
    vertex -321.9 75.80000000000003 10.500000000000002
    vertex -327.29999999999995 75.80000000000003 10.500000000000002
  endloop
endfacet
facet normal 2.7755575615628907e-17 1.0 9.39988827515966e-17
  outer loop
    vertex -321.9 75.80000000000003 10.500000000000002
    vertex -327.29999999999995 75.80000000000003 12.500000000000002
    vertex -321.9 75.80000000000003 12.500000000000002
  endloop
endfacet
facet normal -2.7755575615628907e-17 -1.0 -9.39988827515966e-17
  outer loop
    vertex -321.9 60.800000000000026 12.500000000000002
    vertex -327.29999999999995 60.800000000000026 10.5
    vertex -321.9 60.800000000000026 10.5
  endloop
endfacet
facet normal -2.7755575615628907e-17 -1.0 -9.39988827515966e-17
  outer loop
    vertex -327.29999999999995 60.800000000000026 10.5
    vertex -321.9 60.800000000000026 12.500000000000002
    vertex -327.29999999999995 60.800000000000026 12.500000000000002
  endloop
endfacet
facet normal 1.0 -2.7755575615628907e-17 -3.91143532172085e-32
  outer loop
    vertex -321.9 60.800000000000026 12.500000000000002
    vertex -321.9 75.80000000000003 10.500000000000002
    vertex -321.9 75.80000000000003 12.500000000000002
  endloop
endfacet
facet normal 1.0 -2.7755575615628907e-17 -3.91143532172085e-32
  outer loop
    vertex -321.9 75.80000000000003 10.500000000000002
    vertex -321.9 60.800000000000026 12.500000000000002
    vertex -321.9 60.800000000000026 10.5
  endloop
endfacet
facet normal -1.0 2.7755575615628907e-17 3.91143532172085e-32
  outer loop
    vertex -327.29999999999995 60.800000000000026 10.5
    vertex -327.29999999999995 75.80000000000003 12.500000000000002
    vertex -327.29999999999995 75.80000000000003 10.500000000000002
  endloop
endfacet
facet normal -1.0 2.7755575615628907e-17 3.91143532172085e-32
  outer loop
    vertex -327.29999999999995 75.80000000000003 12.500000000000002
    vertex -327.29999999999995 60.800000000000026 10.5
    vertex -327.29999999999995 60.800000000000026 12.500000000000002
  endloop
endfacet
facet normal 3.650536011921193e-32 -9.399888275159663e-17 1.0
  outer loop
    vertex -321.9 75.80000000000003 12.500000000000002
    vertex -324.3161543355673 68.47901873806147 12.5
    vertex -321.9 60.800000000000026 12.500000000000002
  endloop
endfacet
facet normal 3.650536011921193e-32 -9.399888275159663e-17 1.0
  outer loop
    vertex -324.3161543355673 68.47901873806147 12.5
    vertex -321.9 75.80000000000003 12.500000000000002
    vertex -324.39601152248247 68.72755681787996 12.5
  endloop
endfacet
facet normal 3.650536011921193e-32 -9.399888275159663e-17 1.0
  outer loop
    vertex -324.39601152248247 68.72755681787996 12.5
    vertex -321.9 75.80000000000003 12.500000000000002
    vertex -327.29999999999995 75.80000000000003 12.500000000000002
  endloop
endfacet
facet normal 3.650536011921193e-32 -9.399888275159663e-17 1.0
  outer loop
    vertex -321.9 60.800000000000026 12.500000000000002
    vertex -324.3161543355673 68.47901873806147 12.5
    vertex -324.30334460480145 68.21828082708655 12.5
  endloop
endfacet
facet normal 3.650536011921193e-32 -9.399888275159663e-17 1.0
  outer loop
    vertex -324.39601152248247 68.72755681787996 12.5
    vertex -327.29999999999995 75.80000000000003 12.500000000000002
    vertex -324.53747403022885 68.94695760713098 12.5
  endloop
endfacet
facet normal 3.650536011921193e-32 -9.399888275159663e-17 1.0
  outer loop
    vertex -324.53747403022885 68.94695760713098 12.5
    vertex -327.29999999999995 75.80000000000003 12.500000000000002
    vertex -324.73090142268137 69.12226930460403 12.5
  endloop
endfacet
facet normal 3.650536011921193e-32 -9.399888275159663e-17 1.0
  outer loop
    vertex -324.73090142268137 69.12226930460403 12.5
    vertex -327.29999999999995 75.80000000000003 12.500000000000002
    vertex -324.9631119426983 69.24154470783259 12.5
  endloop
endfacet
facet normal 3.650536011921193e-32 -9.399888275159663e-17 1.0
  outer loop
    vertex -324.9631119426983 69.24154470783259 12.5
    vertex -327.29999999999995 75.80000000000003 12.500000000000002
    vertex -325.21828082708646 69.29665539519856 12.5
  endloop
endfacet
facet normal 3.650536011921193e-32 -9.399888275159663e-17 1.0
  outer loop
    vertex -325.21828082708646 69.29665539519856 12.5
    vertex -327.29999999999995 75.80000000000003 12.500000000000002
    vertex -325.4790187380614 69.28384566443265 12.5
  endloop
endfacet
facet normal 3.650536011921193e-32 -9.399888275159663e-17 1.0
  outer loop
    vertex -325.4790187380614 69.28384566443265 12.5
    vertex -327.29999999999995 75.80000000000003 12.500000000000002
    vertex -325.7275568178799 69.20398847751751 12.5
  endloop
endfacet
facet normal 3.650536011921193e-32 -9.399888275159663e-17 1.0
  outer loop
    vertex -325.7275568178799 69.20398847751751 12.5
    vertex -327.29999999999995 75.80000000000003 12.500000000000002
    vertex -325.9469576071309 69.06252596977114 12.5
  endloop
endfacet
facet normal 3.650536011921193e-32 -9.399888275159663e-17 1.0
  outer loop
    vertex -325.9469576071309 69.06252596977114 12.5
    vertex -327.29999999999995 75.80000000000003 12.500000000000002
    vertex -326.122269304604 68.86909857731861 12.5
  endloop
endfacet
facet normal 3.650536011921193e-32 -9.399888275159663e-17 1.0
  outer loop
    vertex -326.122269304604 68.86909857731861 12.5
    vertex -327.29999999999995 75.80000000000003 12.500000000000002
    vertex -326.24154470783253 68.63688805730169 12.5
  endloop
endfacet
facet normal 3.650536011921193e-32 -9.399888275159663e-17 1.0
  outer loop
    vertex -326.24154470783253 68.63688805730169 12.5
    vertex -327.29999999999995 75.80000000000003 12.500000000000002
    vertex -326.29665539519846 68.3817191729135 12.5
  endloop
endfacet
facet normal 3.650536011921193e-32 -9.399888275159663e-17 1.0
  outer loop
    vertex -321.9 60.800000000000026 12.500000000000002
    vertex -324.35845529216743 67.96311194269835 12.5
    vertex -327.29999999999995 60.800000000000026 12.500000000000002
  endloop
endfacet
facet normal 3.650536011921193e-32 -9.399888275159663e-17 1.0
  outer loop
    vertex -324.35845529216743 67.96311194269835 12.5
    vertex -321.9 60.800000000000026 12.500000000000002
    vertex -324.30334460480145 68.21828082708655 12.5
  endloop
endfacet
facet normal 3.650536011921193e-32 -9.399888275159663e-17 1.0
  outer loop
    vertex -327.29999999999995 60.800000000000026 12.500000000000002
    vertex -324.35845529216743 67.96311194269835 12.5
    vertex -324.47773069539596 67.73090142268143 12.5
  endloop
endfacet
facet normal 3.650536011921193e-32 -9.399888275159663e-17 1.0
  outer loop
    vertex -327.29999999999995 60.800000000000026 12.500000000000002
    vertex -324.47773069539596 67.73090142268143 12.5
    vertex -324.653042392869 67.53747403022889 12.5
  endloop
endfacet
facet normal 3.650536011921193e-32 -9.399888275159663e-17 1.0
  outer loop
    vertex -327.29999999999995 60.800000000000026 12.500000000000002
    vertex -324.653042392869 67.53747403022889 12.5
    vertex -324.87244318212004 67.39601152248252 12.5
  endloop
endfacet
facet normal 3.650536011921193e-32 -9.399888275159663e-17 1.0
  outer loop
    vertex -327.29999999999995 60.800000000000026 12.500000000000002
    vertex -324.87244318212004 67.39601152248252 12.5
    vertex -325.12098126193854 67.31615433556739 12.5
  endloop
endfacet
facet normal 3.650536011921193e-32 -9.399888275159663e-17 1.0
  outer loop
    vertex -327.29999999999995 60.800000000000026 12.500000000000002
    vertex -325.12098126193854 67.31615433556739 12.5
    vertex -325.38171917291345 67.30334460480148 12.5
  endloop
endfacet
facet normal 3.650536011921193e-32 -9.399888275159663e-17 1.0
  outer loop
    vertex -327.29999999999995 60.800000000000026 12.500000000000002
    vertex -325.38171917291345 67.30334460480148 12.5
    vertex -325.63688805730163 67.35845529216745 12.5
  endloop
endfacet
facet normal 3.650536011921193e-32 -9.399888275159663e-17 1.0
  outer loop
    vertex -327.29999999999995 60.800000000000026 12.500000000000002
    vertex -325.63688805730163 67.35845529216745 12.5
    vertex -325.86909857731854 67.477730695396 12.5
  endloop
endfacet
facet normal 3.650536011921193e-32 -9.399888275159663e-17 1.0
  outer loop
    vertex -327.29999999999995 60.800000000000026 12.500000000000002
    vertex -325.86909857731854 67.477730695396 12.5
    vertex -326.06252596977106 67.65304239286907 12.5
  endloop
endfacet
facet normal 3.650536011921193e-32 -9.399888275159663e-17 1.0
  outer loop
    vertex -327.29999999999995 60.800000000000026 12.500000000000002
    vertex -326.06252596977106 67.65304239286907 12.5
    vertex -326.20398847751744 67.87244318212008 12.5
  endloop
endfacet
facet normal 3.650536011921193e-32 -9.399888275159663e-17 1.0
  outer loop
    vertex -327.29999999999995 60.800000000000026 12.500000000000002
    vertex -326.20398847751744 67.87244318212008 12.5
    vertex -326.2838456644326 68.12098126193858 12.5
  endloop
endfacet
facet normal 3.650536011921193e-32 -9.399888275159663e-17 1.0
  outer loop
    vertex -327.29999999999995 60.800000000000026 12.500000000000002
    vertex -326.2838456644326 68.12098126193858 12.5
    vertex -326.29665539519846 68.3817191729135 12.5
  endloop
endfacet
facet normal 3.650536011921193e-32 -9.399888275159663e-17 1.0
  outer loop
    vertex -327.29999999999995 60.800000000000026 12.500000000000002
    vertex -326.29665539519846 68.3817191729135 12.5
    vertex -327.29999999999995 75.80000000000003 12.500000000000002
  endloop
endfacet
facet normal -3.650536011921193e-32 9.399888275159663e-17 -1.0
  outer loop
    vertex -321.9 60.800000000000026 10.5
    vertex -324.35845529216743 67.96311194269835 10.5
    vertex -321.9 75.80000000000003 10.500000000000002
  endloop
endfacet
facet normal -3.650536011921193e-32 9.399888275159663e-17 -1.0
  outer loop
    vertex -324.35845529216743 67.96311194269835 10.5
    vertex -321.9 60.800000000000026 10.5
    vertex -327.29999999999995 60.800000000000026 10.5
  endloop
endfacet
facet normal -3.650536011921193e-32 9.399888275159663e-17 -1.0
  outer loop
    vertex -321.9 75.80000000000003 10.500000000000002
    vertex -324.35845529216743 67.96311194269835 10.5
    vertex -324.30334460480145 68.21828082708655 10.5
  endloop
endfacet
facet normal -3.650536011921193e-32 9.399888275159663e-17 -1.0
  outer loop
    vertex -324.35845529216743 67.96311194269835 10.5
    vertex -327.29999999999995 60.800000000000026 10.5
    vertex -324.47773069539596 67.73090142268143 10.5
  endloop
endfacet
facet normal -3.650536011921193e-32 9.399888275159663e-17 -1.0
  outer loop
    vertex -324.47773069539596 67.73090142268143 10.5
    vertex -327.29999999999995 60.800000000000026 10.5
    vertex -324.653042392869 67.53747403022889 10.5
  endloop
endfacet
facet normal -3.650536011921193e-32 9.399888275159663e-17 -1.0
  outer loop
    vertex -324.653042392869 67.53747403022889 10.5
    vertex -327.29999999999995 60.800000000000026 10.5
    vertex -324.87244318212004 67.39601152248252 10.5
  endloop
endfacet
facet normal -3.650536011921193e-32 9.399888275159663e-17 -1.0
  outer loop
    vertex -324.87244318212004 67.39601152248252 10.5
    vertex -327.29999999999995 60.800000000000026 10.5
    vertex -325.12098126193854 67.31615433556739 10.5
  endloop
endfacet
facet normal -3.650536011921193e-32 9.399888275159663e-17 -1.0
  outer loop
    vertex -325.12098126193854 67.31615433556739 10.5
    vertex -327.29999999999995 60.800000000000026 10.5
    vertex -325.38171917291345 67.30334460480148 10.5
  endloop
endfacet
facet normal -3.650536011921193e-32 9.399888275159663e-17 -1.0
  outer loop
    vertex -325.38171917291345 67.30334460480148 10.5
    vertex -327.29999999999995 60.800000000000026 10.5
    vertex -325.63688805730163 67.35845529216745 10.5
  endloop
endfacet
facet normal -3.650536011921193e-32 9.399888275159663e-17 -1.0
  outer loop
    vertex -325.63688805730163 67.35845529216745 10.5
    vertex -327.29999999999995 60.800000000000026 10.5
    vertex -325.86909857731854 67.477730695396 10.5
  endloop
endfacet
facet normal -3.650536011921193e-32 9.399888275159663e-17 -1.0
  outer loop
    vertex -325.86909857731854 67.477730695396 10.5
    vertex -327.29999999999995 60.800000000000026 10.5
    vertex -326.06252596977106 67.65304239286907 10.5
  endloop
endfacet
facet normal -3.650536011921193e-32 9.399888275159663e-17 -1.0
  outer loop
    vertex -326.06252596977106 67.65304239286907 10.5
    vertex -327.29999999999995 60.800000000000026 10.5
    vertex -326.20398847751744 67.87244318212008 10.5
  endloop
endfacet
facet normal -3.650536011921193e-32 9.399888275159663e-17 -1.0
  outer loop
    vertex -326.20398847751744 67.87244318212008 10.5
    vertex -327.29999999999995 60.800000000000026 10.5
    vertex -326.2838456644326 68.12098126193858 10.5
  endloop
endfacet
facet normal -3.650536011921193e-32 9.399888275159663e-17 -1.0
  outer loop
    vertex -326.2838456644326 68.12098126193858 10.5
    vertex -327.29999999999995 60.800000000000026 10.5
    vertex -326.29665539519846 68.3817191729135 10.5
  endloop
endfacet
facet normal -3.650536011921193e-32 9.399888275159663e-17 -1.0
  outer loop
    vertex -321.9 75.80000000000003 10.500000000000002
    vertex -324.39601152248247 68.72755681787996 10.5
    vertex -327.29999999999995 75.80000000000003 10.500000000000002
  endloop
endfacet
facet normal -3.650536011921193e-32 9.399888275159663e-17 -1.0
  outer loop
    vertex -324.39601152248247 68.72755681787996 10.5
    vertex -321.9 75.80000000000003 10.500000000000002
    vertex -324.3161543355673 68.47901873806147 10.5
  endloop
endfacet
facet normal -3.650536011921193e-32 9.399888275159663e-17 -1.0
  outer loop
    vertex -324.3161543355673 68.47901873806147 10.5
    vertex -321.9 75.80000000000003 10.500000000000002
    vertex -324.30334460480145 68.21828082708655 10.5
  endloop
endfacet
facet normal -3.650536011921193e-32 9.399888275159663e-17 -1.0
  outer loop
    vertex -327.29999999999995 75.80000000000003 10.500000000000002
    vertex -324.39601152248247 68.72755681787996 10.5
    vertex -324.53747403022885 68.94695760713098 10.5
  endloop
endfacet
facet normal -3.650536011921193e-32 9.399888275159663e-17 -1.0
  outer loop
    vertex -327.29999999999995 75.80000000000003 10.500000000000002
    vertex -324.53747403022885 68.94695760713098 10.5
    vertex -324.73090142268137 69.12226930460403 10.5
  endloop
endfacet
facet normal -3.650536011921193e-32 9.399888275159663e-17 -1.0
  outer loop
    vertex -327.29999999999995 75.80000000000003 10.500000000000002
    vertex -324.73090142268137 69.12226930460403 10.5
    vertex -324.9631119426983 69.24154470783259 10.5
  endloop
endfacet
facet normal -3.650536011921193e-32 9.399888275159663e-17 -1.0
  outer loop
    vertex -327.29999999999995 75.80000000000003 10.500000000000002
    vertex -324.9631119426983 69.24154470783259 10.5
    vertex -325.21828082708646 69.29665539519856 10.5
  endloop
endfacet
facet normal -3.650536011921193e-32 9.399888275159663e-17 -1.0
  outer loop
    vertex -327.29999999999995 75.80000000000003 10.500000000000002
    vertex -325.21828082708646 69.29665539519856 10.5
    vertex -325.4790187380614 69.28384566443265 10.5
  endloop
endfacet
facet normal -3.650536011921193e-32 9.399888275159663e-17 -1.0
  outer loop
    vertex -327.29999999999995 75.80000000000003 10.500000000000002
    vertex -325.4790187380614 69.28384566443265 10.5
    vertex -325.7275568178799 69.20398847751751 10.5
  endloop
endfacet
facet normal -3.650536011921193e-32 9.399888275159663e-17 -1.0
  outer loop
    vertex -327.29999999999995 75.80000000000003 10.500000000000002
    vertex -325.7275568178799 69.20398847751751 10.5
    vertex -325.9469576071309 69.06252596977114 10.5
  endloop
endfacet
facet normal -3.650536011921193e-32 9.399888275159663e-17 -1.0
  outer loop
    vertex -327.29999999999995 75.80000000000003 10.500000000000002
    vertex -325.9469576071309 69.06252596977114 10.5
    vertex -326.122269304604 68.86909857731861 10.5
  endloop
endfacet
facet normal -3.650536011921193e-32 9.399888275159663e-17 -1.0
  outer loop
    vertex -327.29999999999995 75.80000000000003 10.500000000000002
    vertex -326.122269304604 68.86909857731861 10.5
    vertex -326.24154470783253 68.63688805730169 10.5
  endloop
endfacet
facet normal -3.650536011921193e-32 9.399888275159663e-17 -1.0
  outer loop
    vertex -327.29999999999995 75.80000000000003 10.500000000000002
    vertex -326.24154470783253 68.63688805730169 10.5
    vertex -326.29665539519846 68.3817191729135 10.5
  endloop
endfacet
facet normal -3.650536011921193e-32 9.399888275159663e-17 -1.0
  outer loop
    vertex -327.29999999999995 75.80000000000003 10.500000000000002
    vertex -326.29665539519846 68.3817191729135 10.5
    vertex -327.29999999999995 60.800000000000026 10.5
  endloop
endfacet
facet normal 0.6715575414070892 0.7409524064197819 1.3929739675113288e-16
  outer loop
    vertex -326.06252596977106 67.65304239286907 12.5
    vertex -325.86909857731854 67.477730695396 10.5
    vertex -326.06252596977106 67.65304239286907 10.5
  endloop
endfacet
facet normal 0.6715575414070892 0.7409524064197819 1.3929739675113288e-16
  outer loop
    vertex -325.86909857731854 67.477730695396 10.5
    vertex -326.06252596977106 67.65304239286907 12.5
    vertex -325.86909857731854 67.477730695396 12.5
  endloop
endfacet
facet normal 0.45690217878827993 0.8895169470102988 1.6722719841515852e-16
  outer loop
    vertex -325.86909857731854 67.477730695396 12.5
    vertex -325.63688805730163 67.35845529216745 10.5
    vertex -325.86909857731854 67.477730695396 10.5
  endloop
endfacet
facet normal 0.45690217878827993 0.8895169470102988 1.6722719841515852e-16
  outer loop
    vertex -325.63688805730163 67.35845529216745 10.5
    vertex -325.86909857731854 67.477730695396 12.5
    vertex -325.63688805730163 67.35845529216745 12.5
  endloop
endfacet
facet normal 0.21110968775163572 0.9774623776582949 1.8376074286319784e-16
  outer loop
    vertex -325.63688805730163 67.35845529216745 12.5
    vertex -325.38171917291345 67.30334460480148 10.5
    vertex -325.63688805730163 67.35845529216745 10.5
  endloop
endfacet
facet normal 0.21110968775163572 0.9774623776582949 1.8376074286319784e-16
  outer loop
    vertex -325.38171917291345 67.30334460480148 10.5
    vertex -325.63688805730163 67.35845529216745 12.5
    vertex -325.38171917291345 67.30334460480148 12.5
  endloop
endfacet
facet normal -0.049069579630074876 0.9987953626018333 1.8777129636409634e-16
  outer loop
    vertex -325.38171917291345 67.30334460480148 12.5
    vertex -325.12098126193854 67.31615433556739 10.5
    vertex -325.38171917291345 67.30334460480148 10.5
  endloop
endfacet
facet normal -0.049069579630074876 0.9987953626018333 1.8777129636409634e-16
  outer loop
    vertex -325.12098126193854 67.31615433556739 10.5
    vertex -325.38171917291345 67.30334460480148 12.5
    vertex -325.12098126193854 67.31615433556739 12.5
  endloop
endfacet
facet normal -0.30590483625124526 0.9520620941714354 1.789855463245206e-16
  outer loop
    vertex -325.12098126193854 67.31615433556739 12.5
    vertex -324.87244318212004 67.39601152248252 10.5
    vertex -325.12098126193854 67.31615433556739 10.5
  endloop
endfacet
facet normal -0.30590483625124526 0.9520620941714354 1.789855463245206e-16
  outer loop
    vertex -324.87244318212004 67.39601152248252 10.5
    vertex -325.12098126193854 67.31615433556739 12.5
    vertex -324.87244318212004 67.39601152248252 12.5
  endloop
endfacet
facet normal -0.5418931838135539 0.8404473673802602 1.5800222709053028e-16
  outer loop
    vertex -324.87244318212004 67.39601152248252 12.5
    vertex -324.653042392869 67.53747403022889 10.5
    vertex -324.87244318212004 67.39601152248252 10.5
  endloop
endfacet
facet normal -0.5418931838135539 0.8404473673802602 1.5800222709053028e-16
  outer loop
    vertex -324.653042392869 67.53747403022889 10.5
    vertex -324.87244318212004 67.39601152248252 12.5
    vertex -324.653042392869 67.53747403022889 12.5
  endloop
endfacet
facet normal -0.7409524064197994 0.67155754140707 1.2625131719134736e-16
  outer loop
    vertex -324.653042392869 67.53747403022889 10.5
    vertex -324.47773069539596 67.73090142268143 12.5
    vertex -324.47773069539596 67.73090142268143 10.5
  endloop
endfacet
facet normal -0.7409524064197994 0.67155754140707 1.2625131719134736e-16
  outer loop
    vertex -324.47773069539596 67.73090142268143 12.5
    vertex -324.653042392869 67.53747403022889 10.5
    vertex -324.653042392869 67.53747403022889 12.5
  endloop
endfacet
facet normal -0.8895169470103164 0.45690217878824574 8.589658866573073e-17
  outer loop
    vertex -324.47773069539596 67.73090142268143 10.5
    vertex -324.35845529216743 67.96311194269835 12.5
    vertex -324.35845529216743 67.96311194269835 10.5
  endloop
endfacet
facet normal -0.8895169470103164 0.45690217878824574 8.589658866573073e-17
  outer loop
    vertex -324.35845529216743 67.96311194269835 12.5
    vertex -324.47773069539596 67.73090142268143 10.5
    vertex -324.47773069539596 67.73090142268143 12.5
  endloop
endfacet
facet normal -0.9774623776583037 0.2111096877515944 3.9688149573376625e-17
  outer loop
    vertex -324.35845529216743 67.96311194269835 10.5
    vertex -324.30334460480145 68.21828082708655 12.5
    vertex -324.30334460480145 68.21828082708655 10.5
  endloop
endfacet
facet normal -0.9774623776583037 0.2111096877515944 3.9688149573376625e-17
  outer loop
    vertex -324.30334460480145 68.21828082708655 12.5
    vertex -324.35845529216743 67.96311194269835 10.5
    vertex -324.35845529216743 67.96311194269835 12.5
  endloop
endfacet
facet normal -0.9987953626018353 -0.04906957963003389 -9.224971324627347e-18
  outer loop
    vertex -324.30334460480145 68.21828082708655 10.5
    vertex -324.3161543355673 68.47901873806147 12.5
    vertex -324.3161543355673 68.47901873806147 10.5
  endloop
endfacet
facet normal -0.9987953626018353 -0.04906957963003389 -9.224971324627347e-18
  outer loop
    vertex -324.3161543355673 68.47901873806147 12.5
    vertex -324.30334460480145 68.21828082708655 10.5
    vertex -324.30334460480145 68.21828082708655 12.5
  endloop
endfacet
facet normal -0.9520620941714559 -0.3059048362511809 -5.75094256718422e-17
  outer loop
    vertex -324.3161543355673 68.47901873806147 10.5
    vertex -324.39601152248247 68.72755681787996 12.5
    vertex -324.39601152248247 68.72755681787996 10.5
  endloop
endfacet
facet normal -0.9520620941714559 -0.3059048362511809 -5.75094256718422e-17
  outer loop
    vertex -324.39601152248247 68.72755681787996 12.5
    vertex -324.3161543355673 68.47901873806147 10.5
    vertex -324.3161543355673 68.47901873806147 12.5
  endloop
endfacet
facet normal -0.8404473673802209 -0.541893183813615 -1.0187470769837074e-16
  outer loop
    vertex -324.39601152248247 68.72755681787996 10.5
    vertex -324.53747403022885 68.94695760713098 12.5
    vertex -324.53747403022885 68.94695760713098 10.5
  endloop
endfacet
facet normal -0.8404473673802209 -0.541893183813615 -1.0187470769837074e-16
  outer loop
    vertex -324.53747403022885 68.94695760713098 12.5
    vertex -324.39601152248247 68.72755681787996 10.5
    vertex -324.39601152248247 68.72755681787996 12.5
  endloop
endfacet
facet normal -0.6715575414070892 -0.7409524064197819 -1.3929739675113288e-16
  outer loop
    vertex -324.53747403022885 68.94695760713098 12.5
    vertex -324.73090142268137 69.12226930460403 10.5
    vertex -324.53747403022885 68.94695760713098 10.5
  endloop
endfacet
facet normal -0.6715575414070892 -0.7409524064197819 -1.3929739675113288e-16
  outer loop
    vertex -324.73090142268137 69.12226930460403 10.5
    vertex -324.53747403022885 68.94695760713098 12.5
    vertex -324.73090142268137 69.12226930460403 12.5
  endloop
endfacet
facet normal -0.45690217878827993 -0.8895169470102988 -1.6722719841515852e-16
  outer loop
    vertex -324.73090142268137 69.12226930460403 12.5
    vertex -324.9631119426983 69.24154470783259 10.5
    vertex -324.73090142268137 69.12226930460403 10.5
  endloop
endfacet
facet normal -0.45690217878827993 -0.8895169470102988 -1.6722719841515852e-16
  outer loop
    vertex -324.9631119426983 69.24154470783259 10.5
    vertex -324.73090142268137 69.12226930460403 12.5
    vertex -324.9631119426983 69.24154470783259 12.5
  endloop
endfacet
facet normal -0.21110968775163572 -0.9774623776582949 -1.8376074286319784e-16
  outer loop
    vertex -324.9631119426983 69.24154470783259 12.5
    vertex -325.21828082708646 69.29665539519856 10.5
    vertex -324.9631119426983 69.24154470783259 10.5
  endloop
endfacet
facet normal -0.21110968775163572 -0.9774623776582949 -1.8376074286319784e-16
  outer loop
    vertex -325.21828082708646 69.29665539519856 10.5
    vertex -324.9631119426983 69.24154470783259 12.5
    vertex -325.21828082708646 69.29665539519856 12.5
  endloop
endfacet
facet normal 0.049069579630074876 -0.9987953626018333 -1.8777129636409634e-16
  outer loop
    vertex -325.21828082708646 69.29665539519856 12.5
    vertex -325.4790187380614 69.28384566443265 10.5
    vertex -325.21828082708646 69.29665539519856 10.5
  endloop
endfacet
facet normal 0.049069579630074876 -0.9987953626018333 -1.8777129636409634e-16
  outer loop
    vertex -325.4790187380614 69.28384566443265 10.5
    vertex -325.21828082708646 69.29665539519856 12.5
    vertex -325.4790187380614 69.28384566443265 12.5
  endloop
endfacet
facet normal 0.30590483625124526 -0.9520620941714354 -1.789855463245206e-16
  outer loop
    vertex -325.4790187380614 69.28384566443265 12.5
    vertex -325.7275568178799 69.20398847751751 10.5
    vertex -325.4790187380614 69.28384566443265 10.5
  endloop
endfacet
facet normal 0.30590483625124526 -0.9520620941714354 -1.789855463245206e-16
  outer loop
    vertex -325.7275568178799 69.20398847751751 10.5
    vertex -325.4790187380614 69.28384566443265 12.5
    vertex -325.7275568178799 69.20398847751751 12.5
  endloop
endfacet
facet normal 0.5418931838135539 -0.8404473673802602 -1.5800222709053028e-16
  outer loop
    vertex -325.7275568178799 69.20398847751751 12.5
    vertex -325.9469576071309 69.06252596977114 10.5
    vertex -325.7275568178799 69.20398847751751 10.5
  endloop
endfacet
facet normal 0.5418931838135539 -0.8404473673802602 -1.5800222709053028e-16
  outer loop
    vertex -325.9469576071309 69.06252596977114 10.5
    vertex -325.7275568178799 69.20398847751751 12.5
    vertex -325.9469576071309 69.06252596977114 12.5
  endloop
endfacet
facet normal 0.7409524064197994 -0.67155754140707 -1.2625131719134736e-16
  outer loop
    vertex -326.122269304604 68.86909857731861 12.5
    vertex -325.9469576071309 69.06252596977114 10.5
    vertex -325.9469576071309 69.06252596977114 12.5
  endloop
endfacet
facet normal 0.7409524064197994 -0.67155754140707 -1.2625131719134736e-16
  outer loop
    vertex -325.9469576071309 69.06252596977114 10.5
    vertex -326.122269304604 68.86909857731861 12.5
    vertex -326.122269304604 68.86909857731861 10.5
  endloop
endfacet
facet normal 0.8895169470103164 -0.45690217878824574 -8.589658866573073e-17
  outer loop
    vertex -326.24154470783253 68.63688805730169 12.5
    vertex -326.122269304604 68.86909857731861 10.5
    vertex -326.122269304604 68.86909857731861 12.5
  endloop
endfacet
facet normal 0.8895169470103164 -0.45690217878824574 -8.589658866573073e-17
  outer loop
    vertex -326.122269304604 68.86909857731861 10.5
    vertex -326.24154470783253 68.63688805730169 12.5
    vertex -326.24154470783253 68.63688805730169 10.5
  endloop
endfacet
facet normal 0.9774623776583037 -0.2111096877515944 -3.9688149573376625e-17
  outer loop
    vertex -326.29665539519846 68.3817191729135 12.5
    vertex -326.24154470783253 68.63688805730169 10.5
    vertex -326.24154470783253 68.63688805730169 12.5
  endloop
endfacet
facet normal 0.9774623776583037 -0.2111096877515944 -3.9688149573376625e-17
  outer loop
    vertex -326.24154470783253 68.63688805730169 10.5
    vertex -326.29665539519846 68.3817191729135 12.5
    vertex -326.29665539519846 68.3817191729135 10.5
  endloop
endfacet
facet normal 0.9987953626018353 0.04906957963003389 9.224971324627347e-18
  outer loop
    vertex -326.2838456644326 68.12098126193858 12.5
    vertex -326.29665539519846 68.3817191729135 10.5
    vertex -326.29665539519846 68.3817191729135 12.5
  endloop
endfacet
facet normal 0.9987953626018353 0.04906957963003389 9.224971324627347e-18
  outer loop
    vertex -326.29665539519846 68.3817191729135 10.5
    vertex -326.2838456644326 68.12098126193858 12.5
    vertex -326.2838456644326 68.12098126193858 10.5
  endloop
endfacet
facet normal 0.9520620941714559 0.3059048362511809 5.75094256718422e-17
  outer loop
    vertex -326.20398847751744 67.87244318212008 12.5
    vertex -326.2838456644326 68.12098126193858 10.5
    vertex -326.2838456644326 68.12098126193858 12.5
  endloop
endfacet
facet normal 0.9520620941714559 0.3059048362511809 5.75094256718422e-17
  outer loop
    vertex -326.2838456644326 68.12098126193858 10.5
    vertex -326.20398847751744 67.87244318212008 12.5
    vertex -326.20398847751744 67.87244318212008 10.5
  endloop
endfacet
facet normal 0.8404473673802209 0.541893183813615 1.0187470769837074e-16
  outer loop
    vertex -326.06252596977106 67.65304239286907 12.5
    vertex -326.20398847751744 67.87244318212008 10.5
    vertex -326.20398847751744 67.87244318212008 12.5
  endloop
endfacet
facet normal 0.8404473673802209 0.541893183813615 1.0187470769837074e-16
  outer loop
    vertex -326.20398847751744 67.87244318212008 10.5
    vertex -326.06252596977106 67.65304239286907 12.5
    vertex -326.06252596977106 67.65304239286907 10.5
  endloop
endfacet
endsolid Motion_Detection_via_LoRa
