solid Motion_Detection_via_LoRa
facet normal 0.0 1.1102230246251563e-16 1.0
  outer loop
    vertex -496.69999999999993 3.40000000000001 27.499999999999996
    vertex -591.3 4.9000000000000075 27.499999999999996
    vertex -591.3 3.40000000000001 27.499999999999996
  endloop
endfacet
facet normal 0.0 1.1102230246251563e-16 1.0
  outer loop
    vertex -591.3 4.9000000000000075 27.499999999999996
    vertex -496.69999999999993 3.40000000000001 27.499999999999996
    vertex -496.69999999999993 4.9000000000000075 27.499999999999996
  endloop
endfacet
facet normal 1.0 0.0 0.0
  outer loop
    vertex -496.69999999999993 4.9000000000000075 1.999999999999992
    vertex -496.69999999999993 3.40000000000001 27.499999999999996
    vertex -496.69999999999993 3.40000000000001 1.999999999999992
  endloop
endfacet
facet normal 1.0 0.0 0.0
  outer loop
    vertex -496.69999999999993 3.40000000000001 27.499999999999996
    vertex -496.69999999999993 4.9000000000000075 1.999999999999992
    vertex -496.69999999999993 4.9000000000000075 27.499999999999996
  endloop
endfacet
facet normal -1.0 0.0 0.0
  outer loop
    vertex -591.3 4.9000000000000075 27.499999999999996
    vertex -591.3 3.40000000000001 1.999999999999992
    vertex -591.3 3.40000000000001 27.499999999999996
  endloop
endfacet
facet normal -1.0 0.0 0.0
  outer loop
    vertex -591.3 3.40000000000001 1.999999999999992
    vertex -591.3 4.9000000000000075 27.499999999999996
    vertex -591.3 4.9000000000000075 1.999999999999992
  endloop
endfacet
facet normal 0.0 -1.1102230246251563e-16 -1.0
  outer loop
    vertex -496.69999999999993 4.9000000000000075 1.999999999999992
    vertex -591.3 3.40000000000001 1.999999999999992
    vertex -591.3 4.9000000000000075 1.999999999999992
  endloop
endfacet
facet normal 0.0 -1.1102230246251563e-16 -1.0
  outer loop
    vertex -591.3 3.40000000000001 1.999999999999992
    vertex -496.69999999999993 4.9000000000000075 1.999999999999992
    vertex -496.69999999999993 3.40000000000001 1.999999999999992
  endloop
endfacet
facet normal 0.0 1.0 0.0
  outer loop
    vertex -538.2986058900723 4.900000000000001 8.333331320090931
    vertex -559.5 4.9000000000000075 8.499999999999996
    vertex -539.1931384017199 4.900000000000001 8.872019675594371
  endloop
endfacet
facet normal 0.0 1.0 0.0
  outer loop
    vertex -559.5 4.9000000000000075 8.499999999999996
    vertex -538.2986058900723 4.900000000000001 8.333331320090931
    vertex -574.4999999999999 4.90000000000001 8.499999999999996
  endloop
endfacet
facet normal 0.0 1.0 0.0
  outer loop
    vertex -539.1931384017199 4.900000000000001 8.872019675594371
    vertex -559.5 4.9000000000000075 8.499999999999996
    vertex -559.5 4.900000000000008 16.499999999999996
  endloop
endfacet
facet normal 0.0 1.0 0.0
  outer loop
    vertex -539.1931384017199 4.900000000000001 8.872019675594371
    vertex -559.5 4.900000000000008 16.499999999999996
    vertex -539.9177676513965 4.900000000000001 9.62387472097416
  endloop
endfacet
facet normal 0.0 1.0 0.0
  outer loop
    vertex -539.9177676513965 4.900000000000001 9.62387472097416
    vertex -559.5 4.900000000000008 16.499999999999996
    vertex -540.4231113532428 4.900000000000001 10.537658777386872
  endloop
endfacet
facet normal 0.0 1.0 0.0
  outer loop
    vertex -540.4231113532428 4.900000000000001 10.537658777386872
    vertex -559.5 4.900000000000008 16.499999999999996
    vertex -540.6747311690981 4.900000000000001 11.551098971487535
  endloop
endfacet
facet normal 0.0 1.0 0.0
  outer loop
    vertex -540.6747311690981 4.900000000000001 11.551098971487535
    vertex -559.5 4.900000000000008 16.499999999999996
    vertex -540.6554796243331 4.900000000000001 12.595131028837297
  endloop
endfacet
facet normal 0.0 1.0 0.0
  outer loop
    vertex -540.6554796243331 4.900000000000001 12.595131028837297
    vertex -559.5 4.900000000000008 16.499999999999996
    vertex -540.366668679909 4.900000000000001 13.598605890072324
  endloop
endfacet
facet normal 0.0 1.0 0.0
  outer loop
    vertex -540.366668679909 4.900000000000001 13.598605890072324
    vertex -559.5 4.900000000000008 16.499999999999996
    vertex -539.8279803244056 4.900000000000001 14.493138401720065
  endloop
endfacet
facet normal 0.0 1.0 0.0
  outer loop
    vertex -539.8279803244056 4.900000000000001 14.493138401720065
    vertex -559.5 4.900000000000008 16.499999999999996
    vertex -539.0761252790257 4.900000000000001 15.217767651396596
  endloop
endfacet
facet normal 0.0 1.0 0.0
  outer loop
    vertex -539.0761252790257 4.900000000000001 15.217767651396596
    vertex -559.5 4.900000000000008 16.499999999999996
    vertex -538.162341222613 4.900000000000001 15.723111353242913
  endloop
endfacet
facet normal 0.0 1.0 0.0
  outer loop
    vertex -538.162341222613 4.900000000000001 15.723111353242913
    vertex -559.5 4.900000000000008 16.499999999999996
    vertex -537.1489010285123 4.900000000000001 15.974731169098154
  endloop
endfacet
facet normal 0.0 1.0 0.0
  outer loop
    vertex -591.3 4.9000000000000075 1.999999999999992
    vertex -574.4999999999999 4.90000000000001 8.499999999999996
    vertex -496.69999999999993 4.9000000000000075 1.999999999999992
  endloop
endfacet
facet normal 0.0 1.0 0.0
  outer loop
    vertex -574.4999999999999 4.90000000000001 8.499999999999996
    vertex -591.3 4.9000000000000075 1.999999999999992
    vertex -591.3 4.9000000000000075 27.499999999999996
  endloop
endfacet
facet normal 0.0 1.0 0.0
  outer loop
    vertex -496.69999999999993 4.9000000000000075 1.999999999999992
    vertex -574.4999999999999 4.90000000000001 8.499999999999996
    vertex -536.2510989714875 4.900000000000001 8.02526883090183
  endloop
endfacet
facet normal 0.0 1.0 0.0
  outer loop
    vertex -536.2510989714875 4.900000000000001 8.02526883090183
    vertex -574.4999999999999 4.90000000000001 8.499999999999996
    vertex -537.2951310288373 4.900000000000001 8.044520375666801
  endloop
endfacet
facet normal 0.0 1.0 0.0
  outer loop
    vertex -537.2951310288373 4.900000000000001 8.044520375666801
    vertex -574.4999999999999 4.90000000000001 8.499999999999996
    vertex -538.2986058900723 4.900000000000001 8.333331320090931
  endloop
endfacet
facet normal 0.0 1.0 0.0
  outer loop
    vertex -574.4999999999999 4.90000000000001 8.499999999999996
    vertex -591.3 4.9000000000000075 27.499999999999996
    vertex -574.4999999999999 4.90000000000001 16.499999999999996
  endloop
endfacet
facet normal 0.0 1.0 0.0
  outer loop
    vertex -574.4999999999999 4.90000000000001 16.499999999999996
    vertex -591.3 4.9000000000000075 27.499999999999996
    vertex -559.5 4.900000000000008 16.499999999999996
  endloop
endfacet
facet normal 0.0 1.0 0.0
  outer loop
    vertex -496.69999999999993 4.9000000000000075 1.999999999999992
    vertex -535.2376587773869 4.900000000000001 8.276888646757069
    vertex -496.69999999999993 4.9000000000000075 27.499999999999996
  endloop
endfacet
facet normal 0.0 1.0 0.0
  outer loop
    vertex -535.2376587773869 4.900000000000001 8.276888646757069
    vertex -496.69999999999993 4.9000000000000075 1.999999999999992
    vertex -536.2510989714875 4.900000000000001 8.02526883090183
  endloop
endfacet
facet normal 0.0 1.0 0.0
  outer loop
    vertex -496.69999999999993 4.9000000000000075 27.499999999999996
    vertex -535.2376587773869 4.900000000000001 8.276888646757069
    vertex -534.3238747209741 4.900000000000001 8.782232348603388
  endloop
endfacet
facet normal 0.0 1.0 0.0
  outer loop
    vertex -496.69999999999993 4.9000000000000075 27.499999999999996
    vertex -534.3238747209741 4.900000000000001 8.782232348603388
    vertex -533.5720196755943 4.900000000000001 9.50686159827992
  endloop
endfacet
facet normal 0.0 1.0 0.0
  outer loop
    vertex -496.69999999999993 4.9000000000000075 27.499999999999996
    vertex -533.5720196755943 4.900000000000001 9.50686159827992
    vertex -533.033331320091 4.900000000000001 10.401394109927661
  endloop
endfacet
facet normal 0.0 1.0 0.0
  outer loop
    vertex -496.69999999999993 4.9000000000000075 27.499999999999996
    vertex -533.033331320091 4.900000000000001 10.401394109927661
    vertex -532.7445203756668 4.900000000000001 11.404868971162696
  endloop
endfacet
facet normal 0.0 1.0 0.0
  outer loop
    vertex -496.69999999999993 4.9000000000000075 27.499999999999996
    vertex -532.7445203756668 4.900000000000001 11.404868971162696
    vertex -532.7252688309018 4.900000000000001 12.448901028512456
  endloop
endfacet
facet normal 0.0 1.0 0.0
  outer loop
    vertex -496.69999999999993 4.9000000000000075 27.499999999999996
    vertex -532.7252688309018 4.900000000000001 12.448901028512456
    vertex -532.9768886467571 4.900000000000001 13.462341222613118
  endloop
endfacet
facet normal 0.0 1.0 0.0
  outer loop
    vertex -496.69999999999993 4.9000000000000075 27.499999999999996
    vertex -532.9768886467571 4.900000000000001 13.462341222613118
    vertex -533.4822323486034 4.900000000000001 14.376125279025828
  endloop
endfacet
facet normal 0.0 1.0 0.0
  outer loop
    vertex -496.69999999999993 4.9000000000000075 27.499999999999996
    vertex -533.4822323486034 4.900000000000001 14.376125279025828
    vertex -534.2068615982799 4.900000000000001 15.127980324405616
  endloop
endfacet
facet normal 0.0 1.0 0.0
  outer loop
    vertex -496.69999999999993 4.9000000000000075 27.499999999999996
    vertex -534.2068615982799 4.900000000000001 15.127980324405616
    vertex -535.1013941099276 4.900000000000001 15.666668679909051
  endloop
endfacet
facet normal 0.0 1.0 0.0
  outer loop
    vertex -496.69999999999993 4.9000000000000075 27.499999999999996
    vertex -535.1013941099276 4.900000000000001 15.666668679909051
    vertex -536.1048689711627 4.900000000000001 15.955479624333181
  endloop
endfacet
facet normal 0.0 1.0 0.0
  outer loop
    vertex -496.69999999999993 4.9000000000000075 27.499999999999996
    vertex -536.1048689711627 4.900000000000001 15.955479624333181
    vertex -537.1489010285123 4.900000000000001 15.974731169098154
  endloop
endfacet
facet normal 0.0 1.0 0.0
  outer loop
    vertex -496.69999999999993 4.9000000000000075 27.499999999999996
    vertex -537.1489010285123 4.900000000000001 15.974731169098154
    vertex -559.5 4.900000000000008 16.499999999999996
  endloop
endfacet
facet normal 0.0 1.0 0.0
  outer loop
    vertex -496.69999999999993 4.9000000000000075 27.499999999999996
    vertex -559.5 4.900000000000008 16.499999999999996
    vertex -591.3 4.9000000000000075 27.499999999999996
  endloop
endfacet
facet normal 0.0 -1.0 0.0
  outer loop
    vertex -496.69999999999993 3.40000000000001 1.999999999999992
    vertex -536.2510989714875 3.400000000000009 8.02526883090183
    vertex -591.3 3.40000000000001 1.999999999999992
  endloop
endfacet
facet normal 0.0 -1.0 0.0
  outer loop
    vertex -536.2510989714875 3.400000000000009 8.02526883090183
    vertex -496.69999999999993 3.40000000000001 1.999999999999992
    vertex -535.2376587773869 3.400000000000009 8.276888646757069
  endloop
endfacet
facet normal 0.0 -1.0 0.0
  outer loop
    vertex -535.2376587773869 3.400000000000009 8.276888646757069
    vertex -496.69999999999993 3.40000000000001 1.999999999999992
    vertex -496.69999999999993 3.40000000000001 27.499999999999996
  endloop
endfacet
facet normal 0.0 -1.0 0.0
  outer loop
    vertex -535.2376587773869 3.400000000000009 8.276888646757069
    vertex -496.69999999999993 3.40000000000001 27.499999999999996
    vertex -534.3238747209741 3.400000000000009 8.782232348603388
  endloop
endfacet
facet normal 0.0 -1.0 0.0
  outer loop
    vertex -534.3238747209741 3.400000000000009 8.782232348603388
    vertex -496.69999999999993 3.40000000000001 27.499999999999996
    vertex -533.5720196755943 3.400000000000009 9.50686159827992
  endloop
endfacet
facet normal 0.0 -1.0 0.0
  outer loop
    vertex -533.5720196755943 3.400000000000009 9.50686159827992
    vertex -496.69999999999993 3.40000000000001 27.499999999999996
    vertex -533.033331320091 3.400000000000009 10.401394109927661
  endloop
endfacet
facet normal 0.0 -1.0 0.0
  outer loop
    vertex -533.033331320091 3.400000000000009 10.401394109927661
    vertex -496.69999999999993 3.40000000000001 27.499999999999996
    vertex -532.7445203756668 3.400000000000009 11.404868971162696
  endloop
endfacet
facet normal 0.0 -1.0 0.0
  outer loop
    vertex -532.7445203756668 3.400000000000009 11.404868971162696
    vertex -496.69999999999993 3.40000000000001 27.499999999999996
    vertex -532.7252688309018 3.400000000000009 12.448901028512456
  endloop
endfacet
facet normal 0.0 -1.0 0.0
  outer loop
    vertex -532.7252688309018 3.400000000000009 12.448901028512456
    vertex -496.69999999999993 3.40000000000001 27.499999999999996
    vertex -532.9768886467571 3.400000000000009 13.462341222613118
  endloop
endfacet
facet normal 0.0 -1.0 0.0
  outer loop
    vertex -532.9768886467571 3.400000000000009 13.462341222613118
    vertex -496.69999999999993 3.40000000000001 27.499999999999996
    vertex -533.4822323486034 3.400000000000009 14.376125279025828
  endloop
endfacet
facet normal 0.0 -1.0 0.0
  outer loop
    vertex -533.4822323486034 3.400000000000009 14.376125279025828
    vertex -496.69999999999993 3.40000000000001 27.499999999999996
    vertex -534.2068615982799 3.400000000000009 15.127980324405616
  endloop
endfacet
facet normal 0.0 -1.0 0.0
  outer loop
    vertex -534.2068615982799 3.400000000000009 15.127980324405616
    vertex -496.69999999999993 3.40000000000001 27.499999999999996
    vertex -535.1013941099276 3.400000000000009 15.666668679909051
  endloop
endfacet
facet normal 0.0 -1.0 0.0
  outer loop
    vertex -535.1013941099276 3.400000000000009 15.666668679909051
    vertex -496.69999999999993 3.40000000000001 27.499999999999996
    vertex -536.1048689711627 3.400000000000009 15.955479624333181
  endloop
endfacet
facet normal 0.0 -1.0 0.0
  outer loop
    vertex -536.1048689711627 3.400000000000009 15.955479624333181
    vertex -496.69999999999993 3.40000000000001 27.499999999999996
    vertex -537.1489010285123 3.400000000000009 15.974731169098154
  endloop
endfacet
facet normal 0.0 -1.0 0.0
  outer loop
    vertex -537.1489010285123 3.400000000000009 15.974731169098154
    vertex -496.69999999999993 3.40000000000001 27.499999999999996
    vertex -559.5 3.400000000000009 16.499999999999996
  endloop
endfacet
facet normal 0.0 -1.0 0.0
  outer loop
    vertex -559.5 3.400000000000009 16.499999999999996
    vertex -496.69999999999993 3.40000000000001 27.499999999999996
    vertex -574.4999999999999 3.40000000000001 16.499999999999996
  endloop
endfacet
facet normal 0.0 -1.0 0.0
  outer loop
    vertex -591.3 3.40000000000001 1.999999999999992
    vertex -574.4999999999999 3.40000000000001 8.499999999999996
    vertex -591.3 3.40000000000001 27.499999999999996
  endloop
endfacet
facet normal 0.0 -1.0 0.0
  outer loop
    vertex -574.4999999999999 3.40000000000001 8.499999999999996
    vertex -591.3 3.40000000000001 1.999999999999992
    vertex -536.2510989714875 3.400000000000009 8.02526883090183
  endloop
endfacet
facet normal 0.0 -1.0 0.0
  outer loop
    vertex -574.4999999999999 3.40000000000001 8.499999999999996
    vertex -536.2510989714875 3.400000000000009 8.02526883090183
    vertex -537.2951310288373 3.400000000000009 8.044520375666801
  endloop
endfacet
facet normal 0.0 -1.0 0.0
  outer loop
    vertex -574.4999999999999 3.40000000000001 8.499999999999996
    vertex -537.2951310288373 3.400000000000009 8.044520375666801
    vertex -538.2986058900723 3.400000000000009 8.333331320090931
  endloop
endfacet
facet normal 0.0 -1.0 0.0
  outer loop
    vertex -574.4999999999999 3.40000000000001 8.499999999999996
    vertex -538.2986058900723 3.400000000000009 8.333331320090931
    vertex -559.5 3.400000000000007 8.499999999999996
  endloop
endfacet
facet normal 0.0 -1.0 0.0
  outer loop
    vertex -591.3 3.40000000000001 27.499999999999996
    vertex -574.4999999999999 3.40000000000001 8.499999999999996
    vertex -574.4999999999999 3.40000000000001 16.499999999999996
  endloop
endfacet
facet normal 0.0 -1.0 0.0
  outer loop
    vertex -591.3 3.40000000000001 27.499999999999996
    vertex -574.4999999999999 3.40000000000001 16.499999999999996
    vertex -496.69999999999993 3.40000000000001 27.499999999999996
  endloop
endfacet
facet normal 0.0 -1.0 0.0
  outer loop
    vertex -539.1931384017199 3.400000000000009 8.872019675594371
    vertex -559.5 3.400000000000007 8.499999999999996
    vertex -538.2986058900723 3.400000000000009 8.333331320090931
  endloop
endfacet
facet normal 0.0 -1.0 0.0
  outer loop
    vertex -559.5 3.400000000000007 8.499999999999996
    vertex -539.1931384017199 3.400000000000009 8.872019675594371
    vertex -559.5 3.400000000000009 16.499999999999996
  endloop
endfacet
facet normal 0.0 -1.0 0.0
  outer loop
    vertex -559.5 3.400000000000009 16.499999999999996
    vertex -539.1931384017199 3.400000000000009 8.872019675594371
    vertex -539.9177676513965 3.400000000000009 9.62387472097416
  endloop
endfacet
facet normal 0.0 -1.0 0.0
  outer loop
    vertex -559.5 3.400000000000009 16.499999999999996
    vertex -539.9177676513965 3.400000000000009 9.62387472097416
    vertex -540.4231113532428 3.400000000000009 10.537658777386872
  endloop
endfacet
facet normal 0.0 -1.0 0.0
  outer loop
    vertex -559.5 3.400000000000009 16.499999999999996
    vertex -540.4231113532428 3.400000000000009 10.537658777386872
    vertex -540.6747311690981 3.400000000000009 11.551098971487535
  endloop
endfacet
facet normal 0.0 -1.0 0.0
  outer loop
    vertex -559.5 3.400000000000009 16.499999999999996
    vertex -540.6747311690981 3.400000000000009 11.551098971487535
    vertex -540.6554796243331 3.400000000000009 12.595131028837297
  endloop
endfacet
facet normal 0.0 -1.0 0.0
  outer loop
    vertex -559.5 3.400000000000009 16.499999999999996
    vertex -540.6554796243331 3.400000000000009 12.595131028837297
    vertex -540.366668679909 3.400000000000009 13.598605890072324
  endloop
endfacet
facet normal 0.0 -1.0 0.0
  outer loop
    vertex -559.5 3.400000000000009 16.499999999999996
    vertex -540.366668679909 3.400000000000009 13.598605890072324
    vertex -539.8279803244056 3.400000000000009 14.493138401720065
  endloop
endfacet
facet normal 0.0 -1.0 0.0
  outer loop
    vertex -559.5 3.400000000000009 16.499999999999996
    vertex -539.8279803244056 3.400000000000009 14.493138401720065
    vertex -539.0761252790257 3.400000000000009 15.217767651396596
  endloop
endfacet
facet normal 0.0 -1.0 0.0
  outer loop
    vertex -559.5 3.400000000000009 16.499999999999996
    vertex -539.0761252790257 3.400000000000009 15.217767651396596
    vertex -538.162341222613 3.400000000000009 15.723111353242913
  endloop
endfacet
facet normal 0.0 -1.0 0.0
  outer loop
    vertex -559.5 3.400000000000009 16.499999999999996
    vertex -538.162341222613 3.400000000000009 15.723111353242913
    vertex -537.1489010285123 3.400000000000009 15.974731169098154
  endloop
endfacet
facet normal 2.0286252455850916e-32 1.0071308866242491e-16 1.0
  outer loop
    vertex -559.5 3.400000000000007 8.499999999999996
    vertex -574.4999999999999 4.90000000000001 8.499999999999996
    vertex -574.4999999999999 3.40000000000001 8.499999999999996
  endloop
endfacet
facet normal 2.0286252455850916e-32 1.0071308866242491e-16 1.0
  outer loop
    vertex -574.4999999999999 4.90000000000001 8.499999999999996
    vertex -559.5 3.400000000000007 8.499999999999996
    vertex -559.5 4.9000000000000075 8.499999999999996
  endloop
endfacet
facet normal -1.0 1.5106963299363733e-16 -3.0429378683776375e-32
  outer loop
    vertex -559.5 3.400000000000009 16.499999999999996
    vertex -559.5 4.9000000000000075 8.499999999999996
    vertex -559.5 3.400000000000007 8.499999999999996
  endloop
endfacet
facet normal -1.0 1.5106963299363733e-16 -3.0429378683776375e-32
  outer loop
    vertex -559.5 4.9000000000000075 8.499999999999996
    vertex -559.5 3.400000000000009 16.499999999999996
    vertex -559.5 4.900000000000008 16.499999999999996
  endloop
endfacet
facet normal -1.0143126227925458e-32 -1.0071308866242491e-16 -1.0
  outer loop
    vertex -559.5 4.900000000000008 16.499999999999996
    vertex -574.4999999999999 3.40000000000001 16.499999999999996
    vertex -574.4999999999999 4.90000000000001 16.499999999999996
  endloop
endfacet
facet normal -1.0143126227925458e-32 -1.0071308866242491e-16 -1.0
  outer loop
    vertex -574.4999999999999 3.40000000000001 16.499999999999996
    vertex -559.5 4.900000000000008 16.499999999999996
    vertex -559.5 3.400000000000009 16.499999999999996
  endloop
endfacet
facet normal 1.0 -1.5106963299363733e-16 0.0
  outer loop
    vertex -574.4999999999999 4.90000000000001 8.499999999999996
    vertex -574.4999999999999 3.40000000000001 16.499999999999996
    vertex -574.4999999999999 3.40000000000001 8.499999999999996
  endloop
endfacet
facet normal 1.0 -1.5106963299363733e-16 0.0
  outer loop
    vertex -574.4999999999999 3.40000000000001 16.499999999999996
    vertex -574.4999999999999 4.90000000000001 8.499999999999996
    vertex -574.4999999999999 4.90000000000001 16.499999999999996
  endloop
endfacet
facet normal -0.9609899401869428 0.0 0.27658332353830756
  outer loop
    vertex -532.7445203756668 4.900000000000001 11.404868971162696
    vertex -533.033331320091 3.400000000000009 10.401394109927661
    vertex -532.7445203756668 3.400000000000009 11.404868971162696
  endloop
endfacet
facet normal -0.9609899401869428 0.0 0.27658332353830756
  outer loop
    vertex -533.033331320091 3.400000000000009 10.401394109927661
    vertex -532.7445203756668 4.900000000000001 11.404868971162696
    vertex -533.033331320091 4.900000000000001 10.401394109927661
  endloop
endfacet
facet normal -0.9998300337200221 8.145041764595685e-33 0.01843647665416827
  outer loop
    vertex -532.7252688309018 4.900000000000001 12.448901028512456
    vertex -532.7445203756668 3.400000000000009 11.404868971162696
    vertex -532.7252688309018 3.400000000000009 12.448901028512456
  endloop
endfacet
facet normal -0.9998300337200221 8.145041764595685e-33 0.01843647665416827
  outer loop
    vertex -532.7445203756668 3.400000000000009 11.404868971162696
    vertex -532.7252688309018 4.900000000000001 12.448901028512456
    vertex -532.7445203756668 4.900000000000001 11.404868971162696
  endloop
endfacet
facet normal -0.9705333627523122 0.0 -0.2409667856462562
  outer loop
    vertex -532.9768886467571 4.900000000000001 13.462341222613118
    vertex -532.7252688309018 3.400000000000009 12.448901028512456
    vertex -532.9768886467571 3.400000000000009 13.462341222613118
  endloop
endfacet
facet normal -0.9705333627523122 0.0 -0.2409667856462562
  outer loop
    vertex -532.7252688309018 3.400000000000009 12.448901028512456
    vertex -532.9768886467571 4.900000000000001 13.462341222613118
    vertex -532.7252688309018 4.900000000000001 12.448901028512456
  endloop
endfacet
facet normal -0.8750964469952797 -2.4742938877191538e-29 -0.4839485597212141
  outer loop
    vertex -533.4822323486034 4.900000000000001 14.376125279025828
    vertex -532.9768886467571 3.400000000000009 13.462341222613118
    vertex -533.4822323486034 3.400000000000009 14.376125279025828
  endloop
endfacet
facet normal -0.8750964469952797 -2.4742938877191538e-29 -0.4839485597212141
  outer loop
    vertex -532.9768886467571 3.400000000000009 13.462341222613118
    vertex -533.4822323486034 4.900000000000001 14.376125279025828
    vertex -532.9768886467571 4.900000000000001 13.462341222613118
  endloop
endfacet
facet normal -0.7200231545407272 0.0 -0.6939500392140778
  outer loop
    vertex -534.2068615982799 4.900000000000001 15.127980324405616
    vertex -533.4822323486034 3.400000000000009 14.376125279025828
    vertex -534.2068615982799 3.400000000000009 15.127980324405616
  endloop
endfacet
facet normal -0.7200231545407272 0.0 -0.6939500392140778
  outer loop
    vertex -533.4822323486034 3.400000000000009 14.376125279025828
    vertex -534.2068615982799 4.900000000000001 15.127980324405616
    vertex -533.4822323486034 4.900000000000001 14.376125279025828
  endloop
endfacet
facet normal -0.5158814739988363 2.935380839814949e-17 -0.8566599703410848
  outer loop
    vertex -534.2068615982799 4.900000000000001 15.127980324405616
    vertex -535.1013941099276 3.400000000000009 15.666668679909051
    vertex -535.1013941099276 4.900000000000001 15.666668679909051
  endloop
endfacet
facet normal -0.5158814739988363 2.935380839814949e-17 -0.8566599703410848
  outer loop
    vertex -535.1013941099276 3.400000000000009 15.666668679909051
    vertex -534.2068615982799 4.900000000000001 15.127980324405616
    vertex -534.2068615982799 3.400000000000009 15.127980324405616
  endloop
endfacet
facet normal -0.2765833235382555 0.0 -0.9609899401869578
  outer loop
    vertex -535.1013941099276 4.900000000000001 15.666668679909051
    vertex -536.1048689711627 3.400000000000009 15.955479624333181
    vertex -536.1048689711627 4.900000000000001 15.955479624333181
  endloop
endfacet
facet normal -0.2765833235382555 0.0 -0.9609899401869578
  outer loop
    vertex -536.1048689711627 3.400000000000009 15.955479624333181
    vertex -535.1013941099276 4.900000000000001 15.666668679909051
    vertex -535.1013941099276 3.400000000000009 15.666668679909051
  endloop
endfacet
facet normal -0.018436476654160195 -8.834288172198573e-31 -0.9998300337200221
  outer loop
    vertex -536.1048689711627 4.900000000000001 15.955479624333181
    vertex -537.1489010285123 3.400000000000009 15.974731169098154
    vertex -537.1489010285123 4.900000000000001 15.974731169098154
  endloop
endfacet
facet normal -0.018436476654160195 -8.834288172198573e-31 -0.9998300337200221
  outer loop
    vertex -537.1489010285123 3.400000000000009 15.974731169098154
    vertex -536.1048689711627 4.900000000000001 15.955479624333181
    vertex -536.1048689711627 3.400000000000009 15.955479624333181
  endloop
endfacet
facet normal 0.2409667856462079 5.955679201756377e-30 -0.9705333627523243
  outer loop
    vertex -537.1489010285123 4.900000000000001 15.974731169098154
    vertex -538.162341222613 3.400000000000009 15.723111353242913
    vertex -538.162341222613 4.900000000000001 15.723111353242913
  endloop
endfacet
facet normal 0.2409667856462079 5.955679201756377e-30 -0.9705333627523243
  outer loop
    vertex -538.162341222613 3.400000000000009 15.723111353242913
    vertex -537.1489010285123 4.900000000000001 15.974731169098154
    vertex -537.1489010285123 3.400000000000009 15.974731169098154
  endloop
endfacet
facet normal 0.48394855972123096 1.3602574500410554e-17 -0.8750964469952704
  outer loop
    vertex -538.162341222613 4.900000000000001 15.723111353242913
    vertex -539.0761252790257 3.400000000000009 15.217767651396596
    vertex -539.0761252790257 4.900000000000001 15.217767651396596
  endloop
endfacet
facet normal 0.48394855972123096 1.3602574500410554e-17 -0.8750964469952704
  outer loop
    vertex -539.0761252790257 3.400000000000009 15.217767651396596
    vertex -538.162341222613 4.900000000000001 15.723111353242913
    vertex -538.162341222613 3.400000000000009 15.723111353242913
  endloop
endfacet
facet normal 0.6939500392140218 1.1192101893806116e-17 -0.7200231545407813
  outer loop
    vertex -539.0761252790257 4.900000000000001 15.217767651396596
    vertex -539.8279803244056 3.400000000000009 14.493138401720065
    vertex -539.8279803244056 4.900000000000001 14.493138401720065
  endloop
endfacet
facet normal 0.6939500392140218 1.1192101893806116e-17 -0.7200231545407813
  outer loop
    vertex -539.8279803244056 3.400000000000009 14.493138401720065
    vertex -539.0761252790257 4.900000000000001 15.217767651396596
    vertex -539.0761252790257 3.400000000000009 15.217767651396596
  endloop
endfacet
facet normal 0.8566599703411419 0.0 -0.5158814739987415
  outer loop
    vertex -540.366668679909 4.900000000000001 13.598605890072324
    vertex -539.8279803244056 3.400000000000009 14.493138401720065
    vertex -540.366668679909 3.400000000000009 13.598605890072324
  endloop
endfacet
facet normal 0.8566599703411419 0.0 -0.5158814739987415
  outer loop
    vertex -539.8279803244056 3.400000000000009 14.493138401720065
    vertex -540.366668679909 4.900000000000001 13.598605890072324
    vertex -539.8279803244056 4.900000000000001 14.493138401720065
  endloop
endfacet
facet normal 0.9609899401869423 -8.59846997875348e-18 -0.2765833235383097
  outer loop
    vertex -540.6554796243331 4.900000000000001 12.595131028837297
    vertex -540.366668679909 3.400000000000009 13.598605890072324
    vertex -540.6554796243331 3.400000000000009 12.595131028837297
  endloop
endfacet
facet normal 0.9609899401869423 -8.59846997875348e-18 -0.2765833235383097
  outer loop
    vertex -540.366668679909 3.400000000000009 13.598605890072324
    vertex -540.6554796243331 4.900000000000001 12.595131028837297
    vertex -540.366668679909 4.900000000000001 13.598605890072324
  endloop
endfacet
facet normal 0.9998300337200221 5.7315636024922935e-19 -0.018436476654168223
  outer loop
    vertex -540.6747311690981 4.900000000000001 11.551098971487535
    vertex -540.6554796243331 3.400000000000009 12.595131028837297
    vertex -540.6747311690981 3.400000000000009 11.551098971487535
  endloop
endfacet
facet normal 0.9998300337200221 5.7315636024922935e-19 -0.018436476654168223
  outer loop
    vertex -540.6554796243331 3.400000000000009 12.595131028837297
    vertex -540.6747311690981 4.900000000000001 11.551098971487535
    vertex -540.6554796243331 4.900000000000001 12.595131028837297
  endloop
endfacet
facet normal 0.9705333627523124 7.4912169170206e-18 0.24096678564625587
  outer loop
    vertex -540.4231113532428 4.900000000000001 10.537658777386872
    vertex -540.6747311690981 3.400000000000009 11.551098971487535
    vertex -540.4231113532428 3.400000000000009 10.537658777386872
  endloop
endfacet
facet normal 0.9705333627523124 7.4912169170206e-18 0.24096678564625587
  outer loop
    vertex -540.6747311690981 3.400000000000009 11.551098971487535
    vertex -540.4231113532428 4.900000000000001 10.537658777386872
    vertex -540.6747311690981 4.900000000000001 11.551098971487535
  endloop
endfacet
facet normal 0.8750964469952803 -2.4742938877191557e-29 0.483948559721213
  outer loop
    vertex -539.9177676513965 4.900000000000001 9.62387472097416
    vertex -540.4231113532428 3.400000000000009 10.537658777386872
    vertex -539.9177676513965 3.400000000000009 9.62387472097416
  endloop
endfacet
facet normal 0.8750964469952803 -2.4742938877191557e-29 0.483948559721213
  outer loop
    vertex -540.4231113532428 3.400000000000009 10.537658777386872
    vertex -539.9177676513965 4.900000000000001 9.62387472097416
    vertex -540.4231113532428 4.900000000000001 10.537658777386872
  endloop
endfacet
facet normal 0.7200231545407272 0.0 0.6939500392140778
  outer loop
    vertex -539.1931384017199 4.900000000000001 8.872019675594371
    vertex -539.9177676513965 3.400000000000009 9.62387472097416
    vertex -539.1931384017199 3.400000000000009 8.872019675594371
  endloop
endfacet
facet normal 0.7200231545407272 0.0 0.6939500392140778
  outer loop
    vertex -539.9177676513965 3.400000000000009 9.62387472097416
    vertex -539.1931384017199 4.900000000000001 8.872019675594371
    vertex -539.9177676513965 4.900000000000001 9.62387472097416
  endloop
endfacet
facet normal 0.5158814739988383 1.603781207786235e-17 0.8566599703410834
  outer loop
    vertex -538.2986058900723 3.400000000000009 8.333331320090931
    vertex -539.1931384017199 4.900000000000001 8.872019675594371
    vertex -539.1931384017199 3.400000000000009 8.872019675594371
  endloop
endfacet
facet normal 0.5158814739988383 1.603781207786235e-17 0.8566599703410834
  outer loop
    vertex -539.1931384017199 4.900000000000001 8.872019675594371
    vertex -538.2986058900723 3.400000000000009 8.333331320090931
    vertex -538.2986058900723 4.900000000000001 8.333331320090931
  endloop
endfacet
facet normal 0.2765833235382555 0.0 0.9609899401869578
  outer loop
    vertex -537.2951310288373 3.400000000000009 8.044520375666801
    vertex -538.2986058900723 4.900000000000001 8.333331320090931
    vertex -538.2986058900723 3.400000000000009 8.333331320090931
  endloop
endfacet
facet normal 0.2765833235382555 0.0 0.9609899401869578
  outer loop
    vertex -538.2986058900723 4.900000000000001 8.333331320090931
    vertex -537.2951310288373 3.400000000000009 8.044520375666801
    vertex -537.2951310288373 4.900000000000001 8.044520375666801
  endloop
endfacet
facet normal 0.018436476654160195 0.0 0.9998300337200221
  outer loop
    vertex -536.2510989714875 3.400000000000009 8.02526883090183
    vertex -537.2951310288373 4.900000000000001 8.044520375666801
    vertex -537.2951310288373 3.400000000000009 8.044520375666801
  endloop
endfacet
facet normal 0.018436476654160195 0.0 0.9998300337200221
  outer loop
    vertex -537.2951310288373 4.900000000000001 8.044520375666801
    vertex -536.2510989714875 3.400000000000009 8.02526883090183
    vertex -536.2510989714875 4.900000000000001 8.02526883090183
  endloop
endfacet
facet normal -0.24096678564620788 6.813222095860705e-30 0.9705333627523243
  outer loop
    vertex -535.2376587773869 3.400000000000009 8.276888646757069
    vertex -536.2510989714875 4.900000000000001 8.02526883090183
    vertex -536.2510989714875 3.400000000000009 8.02526883090183
  endloop
endfacet
facet normal -0.24096678564620788 6.813222095860705e-30 0.9705333627523243
  outer loop
    vertex -536.2510989714875 4.900000000000001 8.02526883090183
    vertex -535.2376587773869 3.400000000000009 8.276888646757069
    vertex -535.2376587773869 4.900000000000001 8.276888646757069
  endloop
endfacet
facet normal -0.48394855972123096 -1.3602574500410554e-17 0.8750964469952704
  outer loop
    vertex -534.3238747209741 3.400000000000009 8.782232348603388
    vertex -535.2376587773869 4.900000000000001 8.276888646757069
    vertex -535.2376587773869 3.400000000000009 8.276888646757069
  endloop
endfacet
facet normal -0.48394855972123096 -1.3602574500410554e-17 0.8750964469952704
  outer loop
    vertex -535.2376587773869 4.900000000000001 8.276888646757069
    vertex -534.3238747209741 3.400000000000009 8.782232348603388
    vertex -534.3238747209741 4.900000000000001 8.782232348603388
  endloop
endfacet
facet normal -0.6939500392140232 1.9621109722309114e-29 0.7200231545407798
  outer loop
    vertex -533.5720196755943 3.400000000000009 9.50686159827992
    vertex -534.3238747209741 4.900000000000001 8.782232348603388
    vertex -534.3238747209741 3.400000000000009 8.782232348603388
  endloop
endfacet
facet normal -0.6939500392140232 1.9621109722309114e-29 0.7200231545407798
  outer loop
    vertex -534.3238747209741 4.900000000000001 8.782232348603388
    vertex -533.5720196755943 3.400000000000009 9.50686159827992
    vertex -533.5720196755943 4.900000000000001 9.50686159827992
  endloop
endfacet
facet normal -0.8566599703411414 1.6037812077844997e-17 0.5158814739987421
  outer loop
    vertex -533.033331320091 4.900000000000001 10.401394109927661
    vertex -533.5720196755943 3.400000000000009 9.50686159827992
    vertex -533.033331320091 3.400000000000009 10.401394109927661
  endloop
endfacet
facet normal -0.8566599703411414 1.6037812077844997e-17 0.5158814739987421
  outer loop
    vertex -533.5720196755943 3.400000000000009 9.50686159827992
    vertex -533.033331320091 4.900000000000001 10.401394109927661
    vertex -533.5720196755943 4.900000000000001 9.50686159827992
  endloop
endfacet
endsolid Motion_Detection_via_LoRa
