solid Motion_Detection_via_LoRa
facet normal 0.0 1.1102230246251563e-16 1.0
  outer loop
    vertex -196.69999999999993 3.40000000000001 27.499999999999996
    vertex -291.3 4.9000000000000075 27.499999999999996
    vertex -291.3 3.40000000000001 27.499999999999996
  endloop
endfacet
facet normal 0.0 1.1102230246251563e-16 1.0
  outer loop
    vertex -291.3 4.9000000000000075 27.499999999999996
    vertex -196.69999999999993 3.40000000000001 27.499999999999996
    vertex -196.69999999999993 4.9000000000000075 27.499999999999996
  endloop
endfacet
facet normal 1.0 0.0 0.0
  outer loop
    vertex -196.69999999999993 4.9000000000000075 1.999999999999992
    vertex -196.69999999999993 3.40000000000001 27.499999999999996
    vertex -196.69999999999993 3.40000000000001 1.999999999999992
  endloop
endfacet
facet normal 1.0 0.0 0.0
  outer loop
    vertex -196.69999999999993 3.40000000000001 27.499999999999996
    vertex -196.69999999999993 4.9000000000000075 1.999999999999992
    vertex -196.69999999999993 4.9000000000000075 27.499999999999996
  endloop
endfacet
facet normal -1.0 0.0 0.0
  outer loop
    vertex -291.3 4.9000000000000075 27.499999999999996
    vertex -291.3 3.40000000000001 1.999999999999992
    vertex -291.3 3.40000000000001 27.499999999999996
  endloop
endfacet
facet normal -1.0 0.0 0.0
  outer loop
    vertex -291.3 3.40000000000001 1.999999999999992
    vertex -291.3 4.9000000000000075 27.499999999999996
    vertex -291.3 4.9000000000000075 1.999999999999992
  endloop
endfacet
facet normal 0.0 -1.1102230246251563e-16 -1.0
  outer loop
    vertex -196.69999999999993 4.9000000000000075 1.999999999999992
    vertex -291.3 3.40000000000001 1.999999999999992
    vertex -291.3 4.9000000000000075 1.999999999999992
  endloop
endfacet
facet normal 0.0 -1.1102230246251563e-16 -1.0
  outer loop
    vertex -291.3 3.40000000000001 1.999999999999992
    vertex -196.69999999999993 4.9000000000000075 1.999999999999992
    vertex -196.69999999999993 3.40000000000001 1.999999999999992
  endloop
endfacet
facet normal 0.0 1.0 0.0
  outer loop
    vertex -291.3 4.9000000000000075 1.999999999999992
    vertex -274.49999999999994 4.90000000000001 8.499999999999996
    vertex -196.69999999999993 4.9000000000000075 1.999999999999992
  endloop
endfacet
facet normal 0.0 1.0 0.0
  outer loop
    vertex -274.49999999999994 4.90000000000001 8.499999999999996
    vertex -291.3 4.9000000000000075 1.999999999999992
    vertex -291.3 4.9000000000000075 27.499999999999996
  endloop
endfacet
facet normal 0.0 1.0 0.0
  outer loop
    vertex -274.49999999999994 4.90000000000001 8.499999999999996
    vertex -291.3 4.9000000000000075 27.499999999999996
    vertex -274.49999999999994 4.90000000000001 16.499999999999996
  endloop
endfacet
facet normal 0.0 1.0 0.0
  outer loop
    vertex -274.49999999999994 4.90000000000001 16.499999999999996
    vertex -291.3 4.9000000000000075 27.499999999999996
    vertex -259.49999999999994 4.900000000000008 16.499999999999996
  endloop
endfacet
facet normal 0.0 1.0 0.0
  outer loop
    vertex -196.69999999999993 4.9000000000000075 1.999999999999992
    vertex -259.49999999999994 4.9000000000000075 8.499999999999996
    vertex -196.69999999999993 4.9000000000000075 27.499999999999996
  endloop
endfacet
facet normal 0.0 1.0 0.0
  outer loop
    vertex -259.49999999999994 4.9000000000000075 8.499999999999996
    vertex -196.69999999999993 4.9000000000000075 1.999999999999992
    vertex -274.49999999999994 4.90000000000001 8.499999999999996
  endloop
endfacet
facet normal 0.0 1.0 0.0
  outer loop
    vertex -196.69999999999993 4.9000000000000075 27.499999999999996
    vertex -259.49999999999994 4.9000000000000075 8.499999999999996
    vertex -259.49999999999994 4.900000000000008 16.499999999999996
  endloop
endfacet
facet normal 0.0 1.0 0.0
  outer loop
    vertex -196.69999999999993 4.9000000000000075 27.499999999999996
    vertex -259.49999999999994 4.900000000000008 16.499999999999996
    vertex -291.3 4.9000000000000075 27.499999999999996
  endloop
endfacet
facet normal 0.0 -1.0 0.0
  outer loop
    vertex -196.69999999999993 3.40000000000001 1.999999999999992
    vertex -259.49999999999994 3.400000000000007 8.499999999999996
    vertex -291.3 3.40000000000001 1.999999999999992
  endloop
endfacet
facet normal 0.0 -1.0 0.0
  outer loop
    vertex -259.49999999999994 3.400000000000007 8.499999999999996
    vertex -196.69999999999993 3.40000000000001 1.999999999999992
    vertex -196.69999999999993 3.40000000000001 27.499999999999996
  endloop
endfacet
facet normal 0.0 -1.0 0.0
  outer loop
    vertex -259.49999999999994 3.400000000000007 8.499999999999996
    vertex -196.69999999999993 3.40000000000001 27.499999999999996
    vertex -259.49999999999994 3.400000000000009 16.499999999999996
  endloop
endfacet
facet normal 0.0 -1.0 0.0
  outer loop
    vertex -259.49999999999994 3.400000000000009 16.499999999999996
    vertex -196.69999999999993 3.40000000000001 27.499999999999996
    vertex -274.49999999999994 3.40000000000001 16.499999999999996
  endloop
endfacet
facet normal 0.0 -1.0 0.0
  outer loop
    vertex -291.3 3.40000000000001 1.999999999999992
    vertex -274.49999999999994 3.40000000000001 8.499999999999996
    vertex -291.3 3.40000000000001 27.499999999999996
  endloop
endfacet
facet normal 0.0 -1.0 0.0
  outer loop
    vertex -274.49999999999994 3.40000000000001 8.499999999999996
    vertex -291.3 3.40000000000001 1.999999999999992
    vertex -259.49999999999994 3.400000000000007 8.499999999999996
  endloop
endfacet
facet normal 0.0 -1.0 0.0
  outer loop
    vertex -291.3 3.40000000000001 27.499999999999996
    vertex -274.49999999999994 3.40000000000001 8.499999999999996
    vertex -274.49999999999994 3.40000000000001 16.499999999999996
  endloop
endfacet
facet normal 0.0 -1.0 0.0
  outer loop
    vertex -291.3 3.40000000000001 27.499999999999996
    vertex -274.49999999999994 3.40000000000001 16.499999999999996
    vertex -196.69999999999993 3.40000000000001 27.499999999999996
  endloop
endfacet
facet normal 2.0286252455850916e-32 1.0071308866242491e-16 1.0
  outer loop
    vertex -259.49999999999994 3.400000000000007 8.499999999999996
    vertex -274.49999999999994 4.90000000000001 8.499999999999996
    vertex -274.49999999999994 3.40000000000001 8.499999999999996
  endloop
endfacet
facet normal 2.0286252455850916e-32 1.0071308866242491e-16 1.0
  outer loop
    vertex -274.49999999999994 4.90000000000001 8.499999999999996
    vertex -259.49999999999994 3.400000000000007 8.499999999999996
    vertex -259.49999999999994 4.9000000000000075 8.499999999999996
  endloop
endfacet
facet normal -1.0 1.5106963299363733e-16 -3.0429378683776375e-32
  outer loop
    vertex -259.49999999999994 3.400000000000009 16.499999999999996
    vertex -259.49999999999994 4.9000000000000075 8.499999999999996
    vertex -259.49999999999994 3.400000000000007 8.499999999999996
  endloop
endfacet
facet normal -1.0 1.5106963299363733e-16 -3.0429378683776375e-32
  outer loop
    vertex -259.49999999999994 4.9000000000000075 8.499999999999996
    vertex -259.49999999999994 3.400000000000009 16.499999999999996
    vertex -259.49999999999994 4.900000000000008 16.499999999999996
  endloop
endfacet
facet normal -1.0143126227925458e-32 -1.0071308866242491e-16 -1.0
  outer loop
    vertex -259.49999999999994 4.900000000000008 16.499999999999996
    vertex -274.49999999999994 3.40000000000001 16.499999999999996
    vertex -274.49999999999994 4.90000000000001 16.499999999999996
  endloop
endfacet
facet normal -1.0143126227925458e-32 -1.0071308866242491e-16 -1.0
  outer loop
    vertex -274.49999999999994 3.40000000000001 16.499999999999996
    vertex -259.49999999999994 4.900000000000008 16.499999999999996
    vertex -259.49999999999994 3.400000000000009 16.499999999999996
  endloop
endfacet
facet normal 1.0 -1.5106963299363733e-16 0.0
  outer loop
    vertex -274.49999999999994 4.90000000000001 8.499999999999996
    vertex -274.49999999999994 3.40000000000001 16.499999999999996
    vertex -274.49999999999994 3.40000000000001 8.499999999999996
  endloop
endfacet
facet normal 1.0 -1.5106963299363733e-16 0.0
  outer loop
    vertex -274.49999999999994 3.40000000000001 16.499999999999996
    vertex -274.49999999999994 4.90000000000001 8.499999999999996
    vertex -274.49999999999994 4.90000000000001 16.499999999999996
  endloop
endfacet
endsolid Motion_Detection_via_LoRa
